<?xml version="1.0" encoding="utf-8"?>
<!-- Generator: Adobe Illustrator 19.0.0, SVG Export Plug-In . SVG Version: 6.00 Build 0)  -->
<svg version="1.1" id="Layer_1" xmlns="http://www.w3.org/2000/svg" xmlns:xlink="http://www.w3.org/1999/xlink" x="0px" y="0px"
	 viewBox="0 0 166.4 284.1" style="enable-background:new 0 0 166.4 284.1;" xml:space="preserve">
<style type="text/css">
	.st0{display:none;opacity:0.3;fill:#ACB7C6;}
	.st1{opacity:0.2;clip-path:url(#XMLID_164_);fill:#373852;}
	.st2{clip-path:url(#XMLID_164_);fill:#FFFFFF;}
	.st3{display:none;}
	.st4{display:inline;fill:#3E2C46;}
	.st5{font-family:'Assistant-Bold';}
	.st6{font-size:16.1116px;}
	.st7{display:inline;fill:#6A52FA;}
	.st8{font-family:'Assistant-ExtraLight';}
	.st9{font-size:15.5187px;}
	.st10{fill:url(#XMLID_165_);}
	.st11{fill:url(#XMLID_166_);}
	.st12{fill:url(#XMLID_167_);}
	.st13{fill:url(#XMLID_168_);}
	.st14{fill:url(#XMLID_169_);}
	.st15{fill:url(#XMLID_170_);}
	.st16{fill:#FFFFFF;}
	.st17{clip-path:url(#XMLID_172_);fill:#A0FFFF;}
	.st18{opacity:0.2;clip-path:url(#XMLID_172_);fill:#764D79;}
	.st19{opacity:0.28;fill:url(#XMLID_173_);}
	.st20{opacity:0.5;fill:url(#XMLID_174_);}
	.st21{opacity:0.2;clip-path:url(#XMLID_176_);fill:#382795;}
	.st22{opacity:0.2;clip-path:url(#XMLID_176_);fill:#764D79;}
	.st23{opacity:0.2;clip-path:url(#XMLID_178_);fill:#454D79;}
	.st24{opacity:0.2;clip-path:url(#XMLID_180_);fill:#454D79;}
	.st25{clip-path:url(#XMLID_182_);fill:#A0FFFF;}
	.st26{opacity:0.3;clip-path:url(#XMLID_182_);fill:#FF664A;}
</style>
<g>
	<rect id="XMLID_2_" x="4.8" y="248.7" class="st0" width="156.8" height="41"/>
	<g>
		<defs>
			<rect id="XMLID_13_" width="166.4" height="284.1"/>
		</defs>
		<linearGradient id="XMLID_163_" gradientUnits="userSpaceOnUse" x1="196.1356" y1="32.1582" x2="-80.3181" y2="301.1113">
			<stop  offset="0" style="stop-color:#1C0051"/>
			<stop  offset="1" style="stop-color:#1BA5BF"/>
		</linearGradient>
		<use xlink:href="#XMLID_13_"  style="overflow:visible;fill:url(#XMLID_163_);"/>
		<clipPath id="XMLID_164_">
			<use xlink:href="#XMLID_13_"  style="overflow:visible;"/>
		</clipPath>
		<path id="XMLID_135_" class="st1" d="M-108.9,103.8C-85.2,74.5-45.1,59.3-7.8,65.5c10.5,1.8,21.4,5.5,28,14
			c10.8,14,5.6,33.9,3.6,51.5c-4.3,36.7,8.6,75.2,34.3,101.8s63.6,41,100.5,38c31.2-2.5,61.9-17.7,80.1-43.2
			c7.8-10.9,13.3-24.4,10.9-37.6c-4.1-22.7-29.9-35.3-53-35c-23,0.3-44.9,9.8-67.4,14.6c-22.5,4.8-48.9,3.7-64.8-13.1
			C47.3,138.5,49,110.2,53.8,86s11.4-50.4,1.1-72.8C48.9,0,37.7-10.1,25.3-17.6C12.7-25.2-2.7-32-6.8-46.1
			c-2.8-9.6,0.9-20.3,7.7-27.7C7.6-81.2,17-85.7,26.6-88.7c22.9-7,51.3-4.1,65.9,14.8c15.1,19.6,10.1,47.8,1.8,71.1
			C86,20.6,74.9,45,80.3,69.1c4.3,19.2,18.6,34.9,35,45.9c18.9,12.7,41.6,20.4,64.4,19.1c22.7-1.3,45.3-12.3,58.3-31
			c5.9-8.5,9.4-21.2,2.1-28.6c-4.3-4.3-11-5.3-17.1-4.7c-25.7,2.4-45.1,26.4-70.7,29.8c-16.4,2.2-33.2-4.8-45.1-16.2
			c-14.3-13.5-21.8-37.6-9.3-52.7c2-2.5,4.6-4.6,7.7-5.5c8.2-2.3,16.1,5.3,19.4,13.2c3.2,7.9,4.1,17,9,24c6,8.5,17.2,12.2,27.6,11.6
			c14.7-0.9,28.4-9.6,37-21.7c8.5-12.1,12.2-27.1,11.9-41.9c-0.3-20.7-8.2-41.2-21.8-56.8c-12.1-13.9-28.2-23.6-44.5-32
			c-15.2-7.9-31.3-15-48.3-16.7c-25.5-2.5-50.5,7.1-73.6,18.1C-5.6-63.6-33-47.3-50.9-22.3C-67.5,0.8-74.5,29.3-80.5,57.1"/>
		<path id="XMLID_134_" class="st2" d="M23.7,230.9c7.1,1.1,14.1-2.2,20.8-4.7c7.3-2.7,15-4.4,22.8-5.2c7.1-0.7,15.4-0.1,19.6,5.6
			c6.6,8.8-1.5,21.9,2.5,32.1c3.6,9.4,15.6,12.3,25.7,12.1c10.3-0.2,20.6-2.3,30.2-6c18.5-7.2,34.5-20.7,54-24.7
			c6.3-1.3,13.9-1.2,18.1,3.7c2.2,2.5,3.1,6,3.5,9.3c1.1,11.4-4,22.9-11.8,31.3c-7.8,8.4-18.1,14.1-28.7,18.5
			c-28.7,11.9-60.4,15-91.5,15.1c-30.1,0-60.8-2.8-88.7-14.3c-6.2-2.5-12.2-5.5-17.4-9.7c-10.2-8.3-16.3-21-18.1-34
			c-1.6-11.8-1.8-39.6,11.5-46.2C-3.8,204,6.5,228.4,23.7,230.9z"/>
	</g>
	<g id="XMLID_1_" class="st3">
		<text id="XMLID_133_" transform="matrix(1 0 0 1 10.3912 273.732)" class="st4 st5 st6">SPACE</text>
		<text id="XMLID_132_" transform="matrix(1 0 0 1 11.2276 259.733)" class="st7 st8 st9">Outer </text>
	</g>
	
		<linearGradient id="XMLID_165_" gradientUnits="userSpaceOnUse" x1="-679.3528" y1="-2025.4845" x2="-696.2298" y2="-1999.188" gradientTransform="matrix(0.7071 0.7071 -0.7071 0.7071 -914.9324 1932.0255)">
		<stop  offset="0" style="stop-color:#FFFFFF"/>
		<stop  offset="0.2125" style="stop-color:#78FFFF"/>
		<stop  offset="1" style="stop-color:#FFEE58"/>
	</linearGradient>
	<path id="XMLID_131_" class="st10" d="M14.6,9.9c0,0,15.9,16.7,20.3,21.1c3.8,3.8,5.2,3.1,1-1.1C30.3,24.3,14.6,9.9,14.6,9.9z"/>
	
		<linearGradient id="XMLID_166_" gradientUnits="userSpaceOnUse" x1="-663.0134" y1="-1999.933" x2="-679.8903" y2="-1973.6365" gradientTransform="matrix(0.7071 0.7071 -0.7071 0.7071 -914.9324 1932.0255)">
		<stop  offset="0" style="stop-color:#FFFFFF"/>
		<stop  offset="0.2125" style="stop-color:#78FFFF"/>
		<stop  offset="1" style="stop-color:#FFEE58"/>
	</linearGradient>
	<path id="XMLID_130_" class="st11" d="M8.1,39.5c0,0,15.9,16.7,20.3,21.1c3.8,3.8,5.2,3.1,1-1.1C23.8,54,8.1,39.5,8.1,39.5z"/>
	
		<linearGradient id="XMLID_167_" gradientUnits="userSpaceOnUse" x1="-476.2201" y1="-1952.1785" x2="-493.0971" y2="-1925.8818" gradientTransform="matrix(0.7071 0.7071 -0.7071 0.7071 -914.9324 1932.0255)">
		<stop  offset="0" style="stop-color:#FFFFFF"/>
		<stop  offset="0.2125" style="stop-color:#78FFFF"/>
		<stop  offset="1" style="stop-color:#FFEE58"/>
	</linearGradient>
	<path id="XMLID_129_" class="st12" d="M106.4,205.4c0,0,15.9,16.7,20.3,21.1c3.8,3.8,5.2,3.1,1-1.1
		C122.1,219.8,106.4,205.4,106.4,205.4z"/>
	
		<linearGradient id="XMLID_168_" gradientUnits="userSpaceOnUse" x1="-459.4407" y1="-1960.6539" x2="-476.3176" y2="-1934.3573" gradientTransform="matrix(0.7071 0.7071 -0.7071 0.7071 -914.9324 1932.0255)">
		<stop  offset="0" style="stop-color:#FFFFFF"/>
		<stop  offset="0.2125" style="stop-color:#78FFFF"/>
		<stop  offset="1" style="stop-color:#FFEE58"/>
	</linearGradient>
	<path id="XMLID_128_" class="st13" d="M124.3,211.3c0,0,15.9,16.7,20.3,21.1c3.8,3.8,5.2,3.1,1-1.1
		C140,225.7,124.3,211.3,124.3,211.3z"/>
	
		<linearGradient id="XMLID_169_" gradientUnits="userSpaceOnUse" x1="-660.6613" y1="-2019.8583" x2="-687.0782" y2="-1978.697" gradientTransform="matrix(0.7071 0.7071 -0.7071 0.7071 -914.9324 1932.0255)">
		<stop  offset="0" style="stop-color:#FFFFFF"/>
		<stop  offset="0.2125" style="stop-color:#78FFFF"/>
		<stop  offset="1" style="stop-color:#FFEE58"/>
	</linearGradient>
	<path id="XMLID_127_" class="st14" d="M11.2,21.7c0,0,24.8,26.1,31.7,33c6,6,8.2,4.9,1.6-1.7C35.8,44.3,11.2,21.7,11.2,21.7z"/>
	
		<linearGradient id="XMLID_170_" gradientUnits="userSpaceOnUse" x1="-632.0773" y1="-2016.1405" x2="-666.8459" y2="-1961.9661" gradientTransform="matrix(0.7071 0.7071 -0.7071 0.7071 -914.9324 1932.0255)">
		<stop  offset="0" style="stop-color:#FFFFFF"/>
		<stop  offset="0.2125" style="stop-color:#78FFFF"/>
		<stop  offset="1" style="stop-color:#FFEE58"/>
	</linearGradient>
	<path id="XMLID_126_" class="st15" d="M17.8,39.8c0,0,32.7,34.4,41.8,43.5c7.9,7.9,10.8,6.4,2.1-2.2C50.1,69.6,17.8,39.8,17.8,39.8
		z"/>
	<g>
		<circle id="XMLID_125_" class="st16" cx="28.6" cy="212" r="1.7"/>
		<circle id="XMLID_124_" class="st16" cx="70.8" cy="48.1" r="1.7"/>
		<circle id="XMLID_123_" class="st16" cx="154.5" cy="199.9" r="1.7"/>
		<circle id="XMLID_122_" class="st16" cx="75.1" cy="34.4" r="1.7"/>
		<circle id="XMLID_121_" class="st16" cx="132.8" cy="255.5" r="1.7"/>
		<circle id="XMLID_120_" class="st16" cx="147.9" cy="17" r="1.7"/>
		<circle id="XMLID_119_" class="st16" cx="21.6" cy="201.2" r="1.7"/>
		<circle id="XMLID_118_" class="st16" cx="19.2" cy="210.4" r="0.3"/>
		<circle id="XMLID_117_" class="st16" cx="25" cy="84.6" r="0.3"/>
		<circle id="XMLID_116_" class="st16" cx="5.6" cy="79.6" r="0.3"/>
		<circle id="XMLID_115_" class="st16" cx="79.4" cy="21.7" r="0.3"/>
		<circle id="XMLID_114_" class="st16" cx="111.8" cy="126.1" r="0.3"/>
		<circle id="XMLID_113_" class="st16" cx="144.9" cy="155.6" r="0.3"/>
		<circle id="XMLID_112_" class="st16" cx="107.5" cy="126.1" r="0.3"/>
		<circle id="XMLID_111_" class="st16" cx="37.6" cy="130.2" r="0.3"/>
		<circle id="XMLID_110_" class="st16" cx="24.8" cy="183.3" r="0.3"/>
		<circle id="XMLID_109_" class="st16" cx="62.7" cy="115.6" r="0.3"/>
		<circle id="XMLID_108_" class="st16" cx="60.1" cy="123" r="0.3"/>
		<circle id="XMLID_107_" class="st16" cx="157.4" cy="12.7" r="0.3"/>
		<circle id="XMLID_106_" class="st16" cx="7.5" cy="10.7" r="0.3"/>
		<circle id="XMLID_105_" class="st16" cx="160.9" cy="20.4" r="0.3"/>
		<circle id="XMLID_104_" class="st16" cx="161.6" cy="112.8" r="0.3"/>
		<circle id="XMLID_103_" class="st16" cx="123.4" cy="163.4" r="0.3"/>
		<circle id="XMLID_100_" class="st16" cx="159.3" cy="84.9" r="0.3"/>
		<circle id="XMLID_99_" class="st16" cx="138.5" cy="14" r="0.3"/>
		<circle id="XMLID_98_" class="st16" cx="63.1" cy="38" r="0.3"/>
		<circle id="XMLID_97_" class="st16" cx="14.2" cy="86.9" r="0.3"/>
		<circle id="XMLID_96_" class="st16" cx="25.9" cy="71.5" r="0.3"/>
		<circle id="XMLID_95_" class="st16" cx="44.8" cy="17" r="0.3"/>
		<circle id="XMLID_94_" class="st16" cx="66.9" cy="119.6" r="0.3"/>
		<circle id="XMLID_93_" class="st16" cx="14.2" cy="185.9" r="0.3"/>
		<circle id="XMLID_92_" class="st16" cx="28.9" cy="205" r="0.3"/>
		<circle id="XMLID_91_" class="st16" cx="76.8" cy="99.4" r="0.3"/>
		<circle id="XMLID_90_" class="st16" cx="83.2" cy="92.6" r="0.3"/>
		<circle id="XMLID_89_" class="st16" cx="83.2" cy="55.6" r="0.3"/>
		<circle id="XMLID_88_" class="st16" cx="75.1" cy="78.9" r="0.3"/>
		<circle id="XMLID_87_" class="st16" cx="141.7" cy="118.6" r="0.3"/>
		<circle id="XMLID_86_" class="st16" cx="146.5" cy="113.2" r="0.3"/>
		<circle id="XMLID_85_" class="st16" cx="138.2" cy="139.8" r="0.3"/>
		<circle id="XMLID_84_" class="st16" cx="103.1" cy="238.8" r="0.3"/>
		<circle id="XMLID_83_" class="st16" cx="61.1" cy="199.5" r="0.3"/>
		<circle id="XMLID_82_" class="st16" cx="27.8" cy="222.1" r="0.3"/>
		<circle id="XMLID_81_" class="st16" cx="65.9" cy="223.4" r="0.3"/>
		<circle id="XMLID_80_" class="st16" cx="132.9" cy="196.6" r="0.3"/>
		<circle id="XMLID_79_" class="st16" cx="112.2" cy="189.7" r="0.3"/>
		<circle id="XMLID_77_" class="st16" cx="152.4" cy="243.7" r="0.3"/>
		<circle id="XMLID_72_" class="st16" cx="120" cy="235.7" r="0.3"/>
		<circle id="XMLID_71_" class="st16" cx="138.7" cy="183.7" r="0.3"/>
		<circle id="XMLID_70_" class="st16" cx="137.9" cy="177" r="0.3"/>
		<circle id="XMLID_69_" class="st16" cx="154.5" cy="141.1" r="0.3"/>
		<circle id="XMLID_68_" class="st16" cx="19.2" cy="139.8" r="0.3"/>
		<circle id="XMLID_67_" class="st16" cx="116.4" cy="126.4" r="0.3"/>
		<circle id="XMLID_66_" class="st16" cx="111.8" cy="120.3" r="0.3"/>
		<circle id="XMLID_65_" class="st16" cx="53.5" cy="31.9" r="0.3"/>
		<circle id="XMLID_64_" class="st16" cx="57.6" cy="116.4" r="0.8"/>
		<circle id="XMLID_63_" class="st16" cx="33.2" cy="146.4" r="0.8"/>
		<circle id="XMLID_62_" class="st16" cx="34.4" cy="174.4" r="0.8"/>
		<circle id="XMLID_61_" class="st16" cx="115.7" cy="12.7" r="0.8"/>
		<circle id="XMLID_60_" class="st16" cx="151.6" cy="30.4" r="0.8"/>
		<circle id="XMLID_59_" class="st16" cx="138.7" cy="108.7" r="0.8"/>
		<circle id="XMLID_58_" class="st16" cx="48.2" cy="93.3" r="0.8"/>
		<circle id="XMLID_57_" class="st16" cx="144" cy="190.4" r="0.8"/>
		<circle id="XMLID_56_" class="st16" cx="112.2" cy="244.2" r="0.8"/>
		<circle id="XMLID_55_" class="st16" cx="138.2" cy="247.6" r="0.8"/>
		<circle id="XMLID_54_" class="st16" cx="93.4" cy="211.3" r="0.8"/>
		<circle id="XMLID_53_" class="st16" cx="33.7" cy="238" r="0.8"/>
		<circle id="XMLID_52_" class="st16" cx="52.8" cy="233.8" r="0.8"/>
		<circle id="XMLID_51_" class="st16" cx="116.4" cy="135" r="0.8"/>
		<circle id="XMLID_50_" class="st16" cx="91.9" cy="109.4" r="0.8"/>
		<circle id="XMLID_49_" class="st16" cx="85.6" cy="33.7" r="0.8"/>
		<circle id="XMLID_48_" class="st16" cx="144.9" cy="6.6" r="0.8"/>
		<circle id="XMLID_47_" class="st16" cx="43.7" cy="82.6" r="0.8"/>
		<circle id="XMLID_46_" class="st16" cx="143.3" cy="253.9" r="0.8"/>
		<circle id="XMLID_45_" class="st16" cx="28.6" cy="129.5" r="0.8"/>
		<circle id="XMLID_44_" class="st16" cx="133.3" cy="31.9" r="0.8"/>
		<circle id="XMLID_43_" class="st16" cx="44.5" cy="9.9" r="0.8"/>
		<circle id="XMLID_42_" class="st16" cx="41.9" cy="24.6" r="0.8"/>
		<circle id="XMLID_41_" class="st16" cx="11.2" cy="105.2" r="0.8"/>
		<circle id="XMLID_40_" class="st16" cx="18.5" cy="66.7" r="0.8"/>
		<circle id="XMLID_39_" class="st16" cx="69.1" cy="17" r="0.8"/>
		<path id="XMLID_38_" class="st16" d="M11.1,165.7L11.1,165.7c0-1.8-1.5-3.3-3.3-3.3l0,0c1.8,0,3.3-1.5,3.3-3.3l0,0
			c0,1.8,1.5,3.3,3.3,3.3l0,0C12.5,162.4,11.1,163.9,11.1,165.7z"/>
		<path id="XMLID_37_" class="st16" d="M103.1,122.6L103.1,122.6c0-1.8-1.5-3.3-3.3-3.3l0,0c1.8,0,3.3-1.5,3.3-3.3l0,0
			c0,1.8,1.5,3.3,3.3,3.3l0,0C104.6,119.3,103.1,120.8,103.1,122.6z"/>
		<path id="XMLID_36_" class="st16" d="M107.2,235.7L107.2,235.7c0-1.8-1.5-3.3-3.3-3.3l0,0c1.8,0,3.3-1.5,3.3-3.3l0,0
			c0,1.8,1.5,3.3,3.3,3.3l0,0C108.7,232.3,107.2,233.8,107.2,235.7z"/>
		<path id="XMLID_35_" class="st16" d="M95.2,14L95.2,14c0-1.8-1.5-3.3-3.3-3.3l0,0c1.8,0,3.3-1.5,3.3-3.3l0,0
			c0,1.8,1.5,3.3,3.3,3.3l0,0C96.7,10.7,95.2,12.2,95.2,14z"/>
	</g>
	<g>
		<defs>
			<circle id="XMLID_73_" cx="123.4" cy="71.2" r="28.2"/>
		</defs>
		
			<linearGradient id="XMLID_171_" gradientUnits="userSpaceOnUse" x1="-1241.2378" y1="2224.6641" x2="-1160.9784" y2="2168.5925" gradientTransform="matrix(0.4671 -0.8842 0.8842 0.4671 -1258.2546 -2020.1293)">
			<stop  offset="0" style="stop-color:#9DFFFF"/>
			<stop  offset="1" style="stop-color:#0F40D8"/>
		</linearGradient>
		<use xlink:href="#XMLID_73_"  style="overflow:visible;fill:url(#XMLID_171_);"/>
		<clipPath id="XMLID_172_">
			<use xlink:href="#XMLID_73_"  style="overflow:visible;"/>
		</clipPath>
		<path id="XMLID_34_" class="st17" d="M89.5,86.1c5,1.4,10.4,1.4,15.4-0.1c0.8-0.2,1.6-0.5,2.4-0.5c0.8,0,1.6,0.3,2.4,0.7
			c7.4,3.2,14.1,8,21.1,12c1.7,0.9,3.4,1.9,5.3,1.9c2.1,0,4.1-1.2,5.8-2.4c4.5-3.2,8.6-6.9,12.2-11.2c-2.7-0.9-5.5,0.2-8.3,0.9
			c-4.9,1.3-10.3,1.5-15-0.3c-5.7-2.1-10.2-6.5-14.1-11.1c-2-2.4-4.5-5.1-7.7-4.9c-4.1,0.4-7,5.8-11.1,4.9c-1.1-0.3-2.1-1-3-1.8
			c-1.7-1.4-3.3-2.9-4.8-4.4c-0.3-0.3-0.7-0.8-0.6-1.2c0-0.3,0.3-0.6,0.5-0.9c1.7-1.8,3.5-3.6,5.2-5.4c0.6-0.6,1.3-1.3,2-1.8
			c2.6-1.7,6.1-1.4,8.9,0.1c2.8,1.4,4.9,3.7,7.2,5.9c2.3,2.2,4.6,4.3,7.1,6.3c2.2,1.8,4.6,3.6,7.4,4.3c6.2,1.5,12.4-2.5,18.8-2.8
			c3.4-0.2,7.2,0.5,9.7-1.6c0.8-0.7,1.4-1.6,2-2.4c1.9-2.9,3.8-5.8,5.7-8.7c1.2-1.9,2.5-3.9,2.8-6.1c0.3-2.2-0.6-4.8-2.7-5.7
			c-1.8-0.7-3.8-0.1-5.5,0.8c-2.8,1.4-5.3,3.4-7.9,5.3c-5.2,3.7-10.7,7-16.5,9.6c-1.2,0.6-2.6,1.1-3.8,0.5c-1-0.5-1.5-1.7-1.8-2.8
			c-0.7-2.4-1.4-4.7-1.8-7.2c-0.4-2-0.7-4.1-1.8-5.8c-1.1-1.7-3.3-2.9-5.2-2.2c-0.9,0.3-1.5,1-2.2,1.6c-1.5,1.5-3,2.9-4.5,4.4
			c-0.3,0.3-0.6,0.6-1,0.8c-0.7,0.3-1.5,0.1-2.2-0.1c-2.9-1.1-5-3.8-7.4-5.9c-2.4-2.1-5.9-3.6-8.6-2c-1.5,0.9-2.4,2.5-3.2,4.1
			c-4.4,9.2-7.4,19.2-8.8,29.3"/>
		<path id="XMLID_33_" class="st17" d="M84.4,76.5c1.9,2.2,3.9,4.4,6.3,6.1c2.4,1.7,5.3,2.8,8.2,2.6c3.7-0.3,7.2-2.7,10.8-2.2
			c1.7,0.3,3.3,1.1,4.7,2c4.3,2.6,8.5,5.3,12.5,8.2c2.1,1.5,4.2,3,6.6,3.8c3.9,1.3,8.1,0.6,12.1-0.5c2.8-0.7,5.6-1.6,8.3-2.7
			c1.2-0.4,2.5-1.4,2.2-2.6c-7.2-3.5-16,0.3-23.8-1.7c-3.6-0.9-6.7-3-9.6-5.3c-2.6-2.1-5.1-4.4-7.4-6.9c-1.4-1.5-3-3.3-5.1-3.4
			c-3.2-0.3-5.4,3.2-8.3,4.7c-3.9,2-8.9,0-12.1-3.1c-3.2-3.1-5.4-7.1-8.6-10.1c1-1.1,2.4-1.7,3.7-2.3c3.9-1.6,7.9-3.2,11.8-4.9
			c1.7-0.7,3.5-1.4,5.4-1.5c3.8-0.1,7,2.5,9.9,5c3.9,3.4,7.7,6.7,11.6,10.1c1.5,1.3,3,2.6,5,2.9c1.8,0.3,3.5-0.4,5.3-0.8
			c2.8-0.6,5.8-0.5,8.6-1.2c5.7-1.5,9.9-6.4,13.6-11.1c0.9-1.1,1.9-2.4,2-3.8c0.2-1.5-0.9-3.1-2.3-3.1c-0.8,0-1.4,0.5-2,0.9
			c-6.2,4.5-12.8,8.6-19.5,12.3c-1,0.5-2,1.1-3.1,1.2c-1.9,0.1-3.6-1.1-5-2.4c-3-3-5.3-6.7-6.7-10.7c-0.2-0.7-0.5-1.5-1.1-1.8
			c-0.8-0.5-1.9,0-2.6,0.7c-0.7,0.7-1.2,1.5-2,2c-2.1,1.3-4.7-0.4-6.8-1.7c-7.7-5-17.9-6.1-26.4-2.6c-0.9,0.4-1.8,0.8-2.4,1.5
			c-0.8,1-0.9,2.4-1,3.8c-0.3,5.6-0.6,11.2-0.9,16.8"/>
		<path id="XMLID_32_" class="st17" d="M115.7,32.8c3.8,1.8,7.4,4,10.3,7.1c2.9,3,5,7,5.2,11.2c0.1,2-0.2,4.1,0.7,5.9
			c0.1,0.2,0.3,0.5,0.5,0.5c0.2,0.1,0.4,0,0.6-0.1c2.6-1.3,5.2-2.7,7.8-4c2.8-1.4,5.9-3.3,6.3-6.4c0.1-1.1-0.2-2.3-1.2-2.8
			c-1.4-0.7-2.9,0.4-4,1.5c-2.7,2.6-5.3,5.2-8,7.8c-0.6-4.2-1.2-8.4-1.7-12.6c-0.1-1-0.3-2.1-0.8-3c-1.5-2.9-5.5-3.3-8.1-5.4"/>
		<path id="XMLID_31_" class="st17" d="M88.3,67.9c3.2,0.2,6.3-0.7,9.4-1.4c3.1-0.7,6.5-1,9.4,0.3c1.3,0.6,2.5,1.6,3.6,2.5
			c2.6,2.1,5.1,4.2,7.7,6.4c5.8,4.8,12.3,9.9,19.8,9.8c2.2,0,4.3-0.5,6.4-0.9c4-0.9,8.1-1.7,12-2.9c-1.1-0.9-2.8-1-4.2-0.6
			c-1.4,0.4-2.7,1.2-4.1,1.8c-4.8,2.2-10.4,2.5-15.3,0.7c-4.3-1.5-7.9-4.4-11.3-7.4c-3.1-2.7-6.2-5.4-9.2-8.2
			c-1.3-1.2-2.7-2.5-4.3-3.3c-3.7-1.9-8.1-1.3-12.2-0.8c-4.1,0.5-8.7,0.7-12-1.8"/>
		<path id="XMLID_30_" class="st18" d="M101.6,46c9.4-0.1,18.2,4.9,24.9,11.4c6.2,6,11,13.4,13.5,21.6c2.6,8.2,2.8,17.2,0.4,25.4
			c2.6-0.2,4.7-1.9,6.6-3.7c6.9-6.3,13.3-13.9,15.1-23.1c1.2-6.3,0.1-12.8-2.5-18.6c-3.4-7.7-9.4-14.3-16.8-18.4
			c-7.7-4.3-16.7-5.8-25.5-5.4c-3.2,0.2-6.5,0.6-9.5,1.8c-3,1.2-5.8,3.2-7.4,6"/>
	</g>
	<g>
		<radialGradient id="XMLID_173_" cx="77.1725" cy="162.0531" r="34.4033" gradientUnits="userSpaceOnUse">
			<stop  offset="0.7501" style="stop-color:#FFFFFF;stop-opacity:0"/>
			<stop  offset="1" style="stop-color:#FFFFFF"/>
		</radialGradient>
		<circle id="XMLID_75_" class="st19" cx="77.2" cy="162.1" r="34.4"/>
		<radialGradient id="XMLID_174_" cx="77.1725" cy="162.0531" r="25.3692" gradientUnits="userSpaceOnUse">
			<stop  offset="0.8789" style="stop-color:#FFFFFF;stop-opacity:0"/>
			<stop  offset="1" style="stop-color:#FFFFFF"/>
		</radialGradient>
		<circle id="XMLID_76_" class="st20" cx="77.2" cy="162.1" r="25.4"/>
		<g>
			<defs>
				<circle id="XMLID_74_" cx="77.4" cy="162.4" r="21.3"/>
			</defs>
			<linearGradient id="XMLID_175_" gradientUnits="userSpaceOnUse" x1="62.1325" y1="140.3016" x2="98.193" y2="192.4742">
				<stop  offset="0" style="stop-color:#B9FFFF"/>
				<stop  offset="1" style="stop-color:#2A68D6"/>
			</linearGradient>
			<use xlink:href="#XMLID_74_"  style="overflow:visible;fill:url(#XMLID_175_);"/>
			<clipPath id="XMLID_176_">
				<use xlink:href="#XMLID_74_"  style="overflow:visible;"/>
			</clipPath>
			<path id="XMLID_29_" class="st21" d="M63.8,149.9c-0.3,0.7-0.3,1.6,0.3,2c0.3,0.2,0.7,0.3,1.1,0.2c2.3-0.1,4.4-1.5,6.1-3.2
				c0.4-0.4,0.9-0.9,1.1-1.4c0.2-0.6,0.3-1.2,0-1.8c-0.5-0.8-1.5-0.9-2.4-0.8C67.2,145.3,64.9,147.4,63.8,149.9z"/>
			<path id="XMLID_28_" class="st21" d="M83.9,148.4c-0.3,0.7-0.3,1.6,0.3,2c0.3,0.2,0.7,0.3,1.1,0.2c2.3-0.1,4.4-1.5,6.1-3.2
				c0.4-0.4,0.9-0.9,1.1-1.4c0.2-0.6,0.3-1.2,0-1.8c-0.5-0.8-1.5-0.9-2.4-0.8C87.3,143.7,85,145.9,83.9,148.4z"/>
			<path id="XMLID_27_" class="st21" d="M61,161.5c-0.3,0.7-0.3,1.6,0.3,2c0.3,0.2,0.7,0.3,1.1,0.2c2.3-0.1,4.4-1.5,6.1-3.2
				c0.4-0.4,0.9-0.9,1.1-1.4c0.2-0.6,0.3-1.2,0-1.8c-0.5-0.8-1.5-0.9-2.4-0.8C64.4,156.9,62.1,159,61,161.5z"/>
			<path id="XMLID_26_" class="st21" d="M51.1,159.1c-0.3,0.7-0.3,1.6,0.3,2c0.3,0.2,0.7,0.3,1.1,0.2c2.3-0.1,4.4-1.5,6.1-3.2
				c0.4-0.4,0.9-0.9,1.1-1.4s0.3-1.2,0-1.8c-0.5-0.8-1.5-0.9-2.4-0.8C54.5,154.5,52.2,156.6,51.1,159.1z"/>
			<path id="XMLID_25_" class="st21" d="M82.2,174.4c-0.3,0.7-0.3,1.6,0.3,2c0.3,0.2,0.7,0.3,1.1,0.2c2.3-0.1,4.4-1.5,6.1-3.2
				c0.4-0.4,0.9-0.9,1.1-1.4c0.2-0.6,0.3-1.2,0-1.8c-0.5-0.8-1.5-0.9-2.4-0.8C85.6,169.7,83.3,171.9,82.2,174.4z"/>
			<path id="XMLID_24_" class="st21" d="M94.9,155.5c-0.4,0.9-0.3,2,0.4,2.6c0.4,0.3,0.9,0.3,1.4,0.3c3-0.1,5.7-2,7.9-4.1
				c0.6-0.6,1.1-1.1,1.4-1.9c0.3-0.7,0.4-1.6,0-2.3c-0.6-1-2-1.2-3.2-1.1C99.3,149.5,96.3,152.2,94.9,155.5z"/>
			<path id="XMLID_23_" class="st21" d="M82.6,183.1c-0.4,0.9-0.3,2,0.4,2.6c0.4,0.3,0.9,0.3,1.4,0.3c3-0.1,5.7-2,7.9-4.1
				c0.6-0.6,1.1-1.1,1.4-1.9c0.3-0.7,0.4-1.6,0-2.3c-0.6-1-2-1.2-3.2-1.1C87,177.1,83.9,179.8,82.6,183.1z"/>
			<path id="XMLID_22_" class="st21" d="M71,153.3c-0.2,0.4-0.1,0.9,0.2,1.1c0.2,0.1,0.4,0.1,0.6,0.1c1.3,0,2.5-0.9,3.5-1.8
				c0.2-0.2,0.5-0.5,0.6-0.8c0.1-0.3,0.2-0.7,0-1c-0.3-0.4-0.9-0.5-1.4-0.5C72.9,150.6,71.6,151.8,71,153.3z"/>
			<path id="XMLID_21_" class="st21" d="M69.3,172c-0.2,0.5-0.2,1.2,0.3,1.5c0.2,0.2,0.6,0.2,0.8,0.2c1.8-0.1,3.4-1.2,4.6-2.4
				c0.3-0.3,0.7-0.7,0.8-1.1c0.2-0.4,0.2-0.9,0-1.3c-0.4-0.6-1.2-0.7-1.9-0.6C71.9,168.5,70.1,170.1,69.3,172z"/>
			<path id="XMLID_20_" class="st21" d="M64.8,181.3c-0.2,0.5-0.2,1.2,0.3,1.5c0.2,0.2,0.6,0.2,0.8,0.2c1.8-0.1,3.4-1.2,4.6-2.4
				c0.3-0.3,0.7-0.7,0.8-1.1c0.2-0.4,0.2-0.9,0-1.3c-0.4-0.6-1.2-0.7-1.9-0.6C67.4,177.7,65.6,179.3,64.8,181.3z"/>
			<path id="XMLID_19_" class="st21" d="M72.9,163.1c-0.1,0.2-0.1,0.5,0.1,0.7c0.1,0.1,0.2,0.1,0.4,0.1c0.8,0,1.5-0.5,2.1-1.1
				c0.1-0.1,0.3-0.3,0.4-0.5c0.1-0.2,0.1-0.4,0-0.6c-0.2-0.3-0.5-0.3-0.8-0.3C74.1,161.5,73.3,162.2,72.9,163.1z"/>
			<path id="XMLID_18_" class="st21" d="M76,178.7c-0.1,0.2-0.1,0.5,0.1,0.7c0.1,0.1,0.2,0.1,0.4,0.1c0.8,0,1.5-0.5,2.1-1.1
				c0.1-0.1,0.3-0.3,0.4-0.5c0.1-0.2,0.1-0.4,0-0.6c-0.2-0.3-0.5-0.3-0.8-0.3C77.2,177.1,76.4,177.9,76,178.7z"/>
			<path id="XMLID_17_" class="st21" d="M61.1,170.7c-0.1,0.2-0.1,0.5,0.1,0.7c0.1,0.1,0.2,0.1,0.4,0.1c0.8,0,1.5-0.5,2.1-1.1
				c0.1-0.1,0.3-0.3,0.4-0.5s0.1-0.4,0-0.6c-0.2-0.3-0.5-0.3-0.8-0.3C62.2,169.1,61.4,169.8,61.1,170.7z"/>
			<path id="XMLID_16_" class="st21" d="M84,165.3c-0.1,0.2-0.1,0.5,0.1,0.7c0.1,0.1,0.2,0.1,0.4,0.1c0.8,0,1.5-0.5,2.1-1.1
				c0.1-0.1,0.3-0.3,0.4-0.5s0.1-0.4,0-0.6c-0.2-0.3-0.5-0.3-0.8-0.3C85.2,163.7,84.4,164.4,84,165.3z"/>
			<path id="XMLID_15_" class="st21" d="M90.6,153c-0.1,0.2-0.1,0.5,0.1,0.7c0.1,0.1,0.2,0.1,0.4,0.1c0.8,0,1.5-0.5,2.1-1.1
				c0.1-0.1,0.3-0.3,0.4-0.5c0.1-0.2,0.1-0.4,0-0.6c-0.2-0.3-0.5-0.3-0.8-0.3C91.8,151.4,91,152.2,90.6,153z"/>
			<path id="XMLID_14_" class="st21" d="M92.9,164.7c-0.1,0.2-0.1,0.5,0.1,0.7c0.1,0.1,0.2,0.1,0.4,0.1c0.8,0,1.5-0.5,2.1-1.1
				c0.1-0.1,0.3-0.3,0.4-0.5s0.1-0.4,0-0.6c-0.2-0.3-0.5-0.3-0.8-0.3C94,163.1,93.2,163.8,92.9,164.7z"/>
			<path id="XMLID_12_" class="st21" d="M82.1,158.4c-0.2,0.4-0.1,0.9,0.2,1.1c0.2,0.1,0.4,0.1,0.6,0.1c1.3,0,2.5-0.9,3.5-1.8
				c0.2-0.2,0.5-0.5,0.6-0.8c0.1-0.3,0.2-0.7,0-1c-0.3-0.4-0.9-0.5-1.4-0.5C84,155.8,82.7,157,82.1,158.4z"/>
			<path id="XMLID_11_" class="st21" d="M76.3,145.4c-0.2,0.4-0.1,0.9,0.2,1.1c0.2,0.1,0.4,0.1,0.6,0.1c1.3,0,2.5-0.9,3.5-1.8
				c0.2-0.2,0.5-0.5,0.6-0.8c0.1-0.3,0.2-0.7,0-1c-0.3-0.4-0.9-0.5-1.4-0.5C78.2,142.7,76.9,143.9,76.3,145.4z"/>
			<path id="XMLID_10_" class="st22" d="M89.4,187.7c3.1-7.5,3.4-16,1-23.7c-2.4-7.7-7.5-14.5-14.3-18.9c-4.8-3.1-10.3-5.1-14.7-8.6
				c-2.2-1.8-4.2-4.4-3.6-7.2c0.4-1.8,2-3.2,3.6-4c5.3-2.9,11.8-1.9,17.3,0.5c7.8,3.5,14,9.8,18.8,16.8c3.8,5.5,6.9,11.7,7.7,18.3
				c0.8,6.6-1.1,13.8-5.9,18.4c-3.4,3.3-8,5-12.5,6.7"/>
		</g>
	</g>
	<g>
		<defs>
			<circle id="XMLID_78_" cx="98.7" cy="31.2" r="6.6"/>
		</defs>
		<linearGradient id="XMLID_177_" gradientUnits="userSpaceOnUse" x1="96.9087" y1="33.6926" x2="102.8251" y2="25.311">
			<stop  offset="0" style="stop-color:#FF20A7"/>
			<stop  offset="1" style="stop-color:#FFDC58"/>
		</linearGradient>
		<use xlink:href="#XMLID_78_"  style="overflow:visible;fill:url(#XMLID_177_);"/>
		<clipPath id="XMLID_178_">
			<use xlink:href="#XMLID_78_"  style="overflow:visible;"/>
		</clipPath>
		<path id="XMLID_9_" class="st23" d="M89.1,22c0.3-1.5,1.2-3,2.3-4c0.7-0.6,1.5-1.1,2.4-1.2c0.9-0.1,1.9,0.3,2.3,1.1
			c0.4,0.8,0.2,1.8-0.1,2.7c-0.5,1.2-1.1,2.4-1.6,3.6c-0.5,1.2-0.8,2.5-0.6,3.8c0.3,1.5,1.4,2.8,2.7,3.7c2.1,1.4,4.9,1.9,7.4,1.1
			c2.5-0.7,4.6-2.6,5.5-5c0.5-1.3,0.8-2.8,0.4-4.2c-0.2-0.9-0.6-1.7-1.2-2.4c-1.4-2-3.7-3.3-6.1-3.6c-1-0.1-2.1-0.1-3.1-0.5
			c2.8-1.9,6.9-1.8,9.7,0.1c2.3,1.5,3.8,4.2,4,7c0.1,2.1-0.5,4.3-1.6,6.1c-1.2,1.8-2.8,3.3-4.7,4.3c-0.9,0.5-1.9,2.2-2.9,2.4
			c-1.2,0.2-3.4,1.9-4.6,1.7c-3.8-0.7-9.8-4.5-11-8.2c-1.2-3.7,3.3-10.1,5.6-13.3"/>
		<path id="XMLID_8_" class="st23" d="M87.8,24.9c0.3-1.5,1.2-3,2.3-4c0.7-0.6,1.5-1.1,2.4-1.2c0.9-0.1,1.9,0.3,2.3,1.1
			c0.4,0.8,0.2,1.8-0.1,2.7c-0.5,1.2-1.1,2.4-1.6,3.6c-0.5,1.2-0.8,2.5-0.6,3.8c0.3,1.5,1.4,2.8,2.7,3.7c2.1,1.4,4.9,1.9,7.4,1.1
			c2.5-0.7,4.6-2.6,5.5-5c0.5-1.3,0.8-2.8,0.4-4.2c-0.2-0.9-0.6-1.7-1.2-2.4c-1.4-2-3.7-3.3-6.1-3.6c-1-0.1-2.1-0.1-3.1-0.5
			c2.8-1.9,6.9-1.8,9.7,0.1c2.3,1.5,3.8,4.2,4,7c0.1,2.1-0.5,4.3-1.6,6.1c-1.2,1.8-2.8,3.3-4.7,4.3c-0.9,0.5-1.9,2.2-2.9,2.4
			c-1.2,0.2-3.4,1.9-4.6,1.7c-3.8-0.7-9.8-4.5-11-8.2c-1.2-3.7,3.3-10.1,5.6-13.3"/>
	</g>
	<g>
		<defs>
			<circle id="XMLID_101_" cx="136.2" cy="156.8" r="3.3"/>
		</defs>
		<linearGradient id="XMLID_179_" gradientUnits="userSpaceOnUse" x1="135.297" y1="158.045" x2="138.2552" y2="153.8542">
			<stop  offset="0" style="stop-color:#FF9D05"/>
			<stop  offset="1" style="stop-color:#FFEE58"/>
		</linearGradient>
		<use xlink:href="#XMLID_101_"  style="overflow:visible;fill:url(#XMLID_179_);"/>
		<clipPath id="XMLID_180_">
			<use xlink:href="#XMLID_101_"  style="overflow:visible;"/>
		</clipPath>
		<path id="XMLID_7_" class="st24" d="M131.4,152.2c0.2-0.8,0.6-1.5,1.2-2c0.3-0.3,0.7-0.5,1.2-0.6c0.4,0,0.9,0.1,1.1,0.5
			c0.2,0.4,0.1,0.9-0.1,1.3c-0.2,0.6-0.6,1.2-0.8,1.8c-0.3,0.6-0.4,1.3-0.3,1.9c0.1,0.8,0.7,1.4,1.3,1.8c1.1,0.7,2.5,0.9,3.7,0.6
			c1.2-0.4,2.3-1.3,2.8-2.5c0.3-0.7,0.4-1.4,0.2-2.1c-0.1-0.4-0.3-0.8-0.6-1.2c-0.7-1-1.9-1.6-3.1-1.8c-0.5-0.1-1.1,0-1.5-0.3
			c1.4-1,3.4-0.9,4.9,0c1.2,0.8,1.9,2.1,2,3.5c0.1,1.1-0.2,2.2-0.8,3.1c-0.6,0.9-1.4,1.6-2.3,2.2c-0.5,0.3-0.9,1.1-1.5,1.2
			c-0.6,0.1-1.7,1-2.3,0.9c-1.9-0.4-4.9-2.2-5.5-4.1c-0.6-1.9,1.6-5.1,2.8-6.7"/>
		<path id="XMLID_6_" class="st24" d="M130.7,153.6c0.2-0.8,0.6-1.5,1.2-2c0.3-0.3,0.7-0.5,1.2-0.6c0.4,0,0.9,0.1,1.1,0.5
			c0.2,0.4,0.1,0.9-0.1,1.3c-0.2,0.6-0.6,1.2-0.8,1.8c-0.3,0.6-0.4,1.3-0.3,1.9c0.1,0.8,0.7,1.4,1.3,1.8c1.1,0.7,2.5,0.9,3.7,0.6
			c1.2-0.4,2.3-1.3,2.8-2.5c0.3-0.7,0.4-1.4,0.2-2.1c-0.1-0.4-0.3-0.8-0.6-1.2c-0.7-1-1.9-1.6-3.1-1.8c-0.5-0.1-1.1,0-1.5-0.3
			c1.4-1,3.4-0.9,4.9,0c1.2,0.8,1.9,2.1,2,3.5c0.1,1.1-0.2,2.2-0.8,3.1c-0.6,0.9-1.4,1.6-2.3,2.2c-0.5,0.3-0.9,1.1-1.5,1.2
			c-0.6,0.1-1.7,1-2.3,0.9c-1.9-0.4-4.9-2.2-5.5-4.1c-0.6-1.9,1.6-5.1,2.8-6.7"/>
	</g>
	<g>
		<defs>
			<circle id="XMLID_102_" cx="32" cy="106.8" r="10.4"/>
		</defs>
		
			<linearGradient id="XMLID_181_" gradientUnits="userSpaceOnUse" x1="-888.3226" y1="-1833.9309" x2="-901.6211" y2="-1819.098" gradientTransform="matrix(0.6129 0.7902 -0.7902 0.6129 -862.0312 1933.5068)">
			<stop  offset="0" style="stop-color:#FFEE58"/>
			<stop  offset="1" style="stop-color:#FF9D05"/>
		</linearGradient>
		<use xlink:href="#XMLID_102_"  style="overflow:visible;fill:url(#XMLID_181_);"/>
		<clipPath id="XMLID_182_">
			<use xlink:href="#XMLID_102_"  style="overflow:visible;"/>
		</clipPath>
		<path id="XMLID_5_" class="st25" d="M26.7,89.8c-1,1.1-0.2,2.8,0.9,3.9c5.8,6,15.3,6.1,22.9,9.9c-9.9,0.7-18.2-7.2-27.8-9.8
			c3.3,4.7,8.2,8.1,13.5,10.5c5.2,2.4,10.8,3.8,16.3,5.6c1.4,0.4,2.8,0.9,3.7,2c-0.7,1-2.1,1.2-3.2,1s-2.2-1-3.2-1.6
			c-7.3-4.5-16.3-5.6-23.1-10.8c-2.4-1.8-4.5-4.1-7.4-5c-2.9-0.9-6.7,0.7-6.8,3.6c-0.1,2.2,1.8,3.8,3.5,5.1
			c10,7.4,21.7,12.4,33.9,14.5c0.7,0.1,1.5,0.1,1.8-0.5c-2.3,1.5-5.4,0.9-8.1,0.1c-11.4-3.2-22.4-8.1-31.7-15.3"/>
		<path id="XMLID_4_" class="st25" d="M20.4,99.9c-1-0.7-2-1.5-3.2-1.4c-0.1,1,0.9,1.8,1.8,2.3c4.3,2.5,8.6,5,13,7.4
			c1.8,1,10.4,6.4,12,4.4c-1.4-1.1-4-1.6-5.7-2.4c-2.1-0.9-4.2-1.9-6.2-3C28,105,24.1,102.5,20.4,99.9z"/>
		<path id="XMLID_3_" class="st26" d="M3.6,104.9c1.4-2.7,4.4-4.1,7.3-5C16,98.2,21.6,97.1,27,98c5.4,0.9,10.6,4,13.1,8.9
			c2.5,4.9,2,10.8,0.9,16.3c-0.3,1.8-0.5,4.1,1,5.1c1.1,0.7,2.5,0.3,3.6-0.1c7.2-2.9,12.1-10.5,12.4-18.3c0.3-7.8-3.6-15.4-9.7-20.3
			c-6.1-4.8-14.2-6.8-21.9-6.2c-7.8,0.6-15.2,3.8-21.4,8.5"/>
	</g>
</g>
</svg>
