<?xml version="1.0" encoding="utf-8"?>
<!-- Generator: Adobe Illustrator 19.0.0, SVG Export Plug-In . SVG Version: 6.00 Build 0)  -->
<svg version="1.1" id="Layer_1" xmlns="http://www.w3.org/2000/svg" xmlns:xlink="http://www.w3.org/1999/xlink" x="0px" y="0px"
	 viewBox="0 0 177.6 303.3" style="enable-background:new 0 0 177.6 303.3;" xml:space="preserve">
<style type="text/css">
	.st0{display:none;opacity:0.3;fill:#ACB7C6;}
	.st1{opacity:0.2;clip-path:url(#XMLID_136_);fill:#BE3852;}
	.st2{clip-path:url(#XMLID_136_);fill:#FFFFFF;}
	.st3{display:none;}
	.st4{display:inline;fill:#3E2C46;}
	.st5{font-family:'Assistant-Bold';}
	.st6{font-size:17.2025px;}
	.st7{display:inline;fill:#FFC638;}
	.st8{font-family:'Assistant-ExtraLight';}
	.st9{font-size:16.5694px;}
	.st10{fill:#FFFFFF;}
	.st11{fill:url(#XMLID_137_);}
	.st12{opacity:0.2;clip-path:url(#XMLID_139_);fill:#FF9B38;}
	.st13{fill:#3E2C46;}
	.st14{fill:url(#XMLID_140_);}
	.st15{fill:url(#XMLID_141_);}
	.st16{opacity:0.4;fill:#3E2C46;}
	.st17{opacity:0.2;clip-path:url(#XMLID_143_);fill:#CB4D79;}
	.st18{opacity:0.2;clip-path:url(#XMLID_145_);fill:#CB4D79;}
	.st19{opacity:0.2;clip-path:url(#XMLID_147_);fill:#373852;}
	.st20{opacity:0.2;clip-path:url(#XMLID_149_);fill:#373852;}
</style>
<g>
	<rect id="XMLID_2_" x="5.1" y="265.5" class="st0" width="167.4" height="43.8"/>
	<g>
		<defs>
			<rect id="XMLID_13_" width="177.6" height="303.3"/>
		</defs>
		<linearGradient id="XMLID_135_" gradientUnits="userSpaceOnUse" x1="209.4152" y1="34.3355" x2="-85.7561" y2="321.4984">
			<stop  offset="0" style="stop-color:#FDCB40"/>
			<stop  offset="1" style="stop-color:#BA16BF"/>
		</linearGradient>
		<use xlink:href="#XMLID_13_"  style="overflow:visible;fill:url(#XMLID_135_);"/>
		<clipPath id="XMLID_136_">
			<use xlink:href="#XMLID_13_"  style="overflow:visible;"/>
		</clipPath>
		<path id="XMLID_94_" class="st1" d="M-88,227.1c-2.4-25.1,14.8-46.2,31.7-60c13.4-11,28.2-20.6,44.2-21.6
			c16-1.1,33.3,8.3,39.9,26.6c3.4,9.5,3.7,20.2,3.4,30.6c-0.7,28.4-4.8,58.6,5.5,84c10.4,25.5,33.1,39.5,55.5,46
			c33.8,9.8,70,6.1,102.1-10.4c26.9-13.8,52.7-40.3,56.8-76.3c3.7-32.7-13.8-67.2-39-76.8c-15.3-5.9-32.1-3.2-47.2,3.4
			c-15.1,6.6-29,17-42.9,27c-5.6,4-11.4,8-17.7,9.2c-17.9,3.5-33.6-15.7-41.8-35.9C52.3,148,48.5,119.8,38.6,95
			c-6-14.9-14.1-28.4-19.9-43.4c-5.8-15-9.2-32.6-5-48.4C17-9.5,24.7-19.6,33.4-27.3C47-39.4,65.1-46.5,80.5-38.5
			c12.6,6.6,21.4,23.3,21.2,40.5c-0.4,29.2-23,49.7-31.5,76.9c-5.6,18-4.6,39,2.8,56c7.9,18.3,27.2,31.6,41.4,20.7
			c2-1.6,3.8-3.6,4.9-6.3c2.1-5.6,0-12.4-3.1-17.1c-3.2-4.8-7.4-8.3-10.5-13.1c-10.9-16.9-5.2-42.2,3.5-60.9
			c10.6-22.8,24.8-43,41.6-58.9c11.9-11.3,26.1-20.7,41-19.7c4.5,0.3,9.8,2.4,11.2,7.7c1.5,5.4-1.7,11-4.9,15.1
			c-18.4,24.1-43,41.6-55.7,70.9c-5.3,12.2-7.9,28.3-1.3,39.4c8,13.5,24.3,12.3,37.2,7.7c44.4-15.8,82.4-57.5,100.7-110.6
			c0.7-2,1.3-4.1,0.9-6.2c-0.3-1.6-1.3-2.9-2.2-4.1c-19.7-25.2-46.6-40.3-74.3-46.7c-27.7-6.4-56.2-4.6-84.1,0.2
			C39.7-33.2-37.2,5.4-102.5,64.4"/>
		<path id="XMLID_93_" class="st2" d="M-19.9,279.4c0.3-4,0.6-8.1,1.3-12.1C-16,249.8-7.2,232.4,8,223.5s37.4-6.7,47.8,7.7
			c5.2,7.3,6.9,16.5,11.5,24.2c4.4,7.5,11.6,13.3,19.8,16.1c6.5,2.2,13.5,2.6,20.3,3.8c9.8,1.7,19.6,5.4,26.9,12.3
			c7.2,6.9,11.5,17.4,9,27.1c-1.9,7.5-7.5,13.6-14.1,17.7c-6.6,4-14.2,6.1-21.8,7.7c-22.9,4.8-46.6,5.5-69.7,2.2
			c-12.1-1.8-24.2-4.7-34.9-10.7c-10.7-6-19.9-15.3-23.9-26.8"/>
	</g>
	<g id="XMLID_1_" class="st3">
		<text id="XMLID_92_" transform="matrix(1 0 0 1 8.6368 292.2652)" class="st4 st5 st6">SPACE</text>
		<text id="XMLID_91_" transform="matrix(1 0 0 1 9.5304 277.3179)" class="st7 st8 st9">Outer </text>
	</g>
	<circle id="XMLID_90_" class="st10" cx="158.7" cy="284.6" r="0.4"/>
	<g>
		
			<radialGradient id="XMLID_137_" cx="-1092.2239" cy="-2107.5403" r="37.9442" gradientTransform="matrix(0.5982 0.8013 -0.8013 0.5982 -912.218 2359.5505)" gradientUnits="userSpaceOnUse">
			<stop  offset="0.636" style="stop-color:#FF394D;stop-opacity:0"/>
			<stop  offset="1" style="stop-color:#FFFF00"/>
		</radialGradient>
		<circle id="XMLID_15_" class="st11" cx="123.2" cy="223.6" r="37.9"/>
		<g>
			<defs>
				<circle id="XMLID_14_" cx="123.2" cy="223.6" r="27.1"/>
			</defs>
			
				<linearGradient id="XMLID_138_" gradientUnits="userSpaceOnUse" x1="-21.4329" y1="-626.8887" x2="-44.3392" y2="-685.0356" gradientTransform="matrix(0.9526 0.3041 -0.3041 0.9526 -45.0113 857.7964)">
				<stop  offset="0" style="stop-color:#2E1A41"/>
				<stop  offset="1" style="stop-color:#AB3E9D"/>
			</linearGradient>
			<use xlink:href="#XMLID_14_"  style="overflow:visible;fill:url(#XMLID_138_);"/>
			<clipPath id="XMLID_139_">
				<use xlink:href="#XMLID_14_"  style="overflow:visible;"/>
			</clipPath>
			<path id="XMLID_89_" class="st12" d="M110.2,178.8c-2.7,2.8-0.5,7.4,2.1,10.2c14.9,16.1,39.9,16.8,59.4,26.9
				c-26,1.3-47.3-19.7-72.3-27c8.3,12.6,21.1,21.6,34.7,28c13.6,6.4,28.2,10.6,42.5,15.4c3.5,1.2,7.3,2.6,9.5,5.5
				c-1.8,2.5-5.5,3.1-8.5,2.3c-3-0.8-5.6-2.6-8.2-4.3c-18.8-12-42.5-15.5-60-29.4c-6.1-4.9-11.6-11.1-19.1-13.5
				c-7.5-2.4-17.7,1.4-18.1,9.2c-0.3,5.7,4.5,10.2,8.9,13.6c25.7,19.8,56.2,33.5,88,39.8c1.7,0.3,4,0.4,4.8-1.1
				c-6.2,3.9-14.2,2.1-21.1,0c-29.6-9-58.3-22.2-82.4-41.8"/>
			<path id="XMLID_88_" class="st12" d="M176.5,238.2c-30.1-6.3-58.9-19.1-83.7-37.4c-4.7-3.5-9.4-7.2-15-8.7
				c-0.7-0.2-1.5-0.3-2.2-0.1c-2.1,0.8-1.2,4,0.1,5.9c3.8,5.3,8.5,10,13.3,14.3c25,22.2,57,36.3,90.3,39.8"/>
			<path id="XMLID_87_" class="st12" d="M85.3,203c-3.2-2.2-6.7-4.5-10.9-4.2c-0.6,3.6,2.8,5.9,5.8,7.5c14.5,7.7,29,15.4,44,22.3
				c6.2,2.9,35.2,19.5,41.1,12.3c-4.7-3.6-13.8-4.7-19.6-6.9c-7.2-2.6-14.2-5.6-21.1-8.8C110.8,218.9,97.6,211.5,85.3,203z"/>
		</g>
	</g>
	<g>
		<g>
			<path id="XMLID_86_" class="st13" d="M49,163.5c0,0-0.2-7.8-5.1-10.3c-4.9-2.5-11.7,11.5-11.7,11.5l9.4,3.8L49,163.5z"/>
			<path id="XMLID_85_" class="st13" d="M57.5,176.3c0,0,7.1,3.2,7.5,8.8c0.4,5.5-15.1,6.3-15.1,6.3l0.2-10.1L57.5,176.3z"/>
		</g>
		
			<linearGradient id="XMLID_140_" gradientUnits="userSpaceOnUse" x1="-1300.7448" y1="-2185.2109" x2="-1300.7448" y2="-2197.7375" gradientTransform="matrix(0.5515 0.8342 -0.8342 0.5515 -1080.7811 2478.9546)">
			<stop  offset="0" style="stop-color:#FFD03D"/>
			<stop  offset="1" style="stop-color:#FF164D"/>
		</linearGradient>
		<path id="XMLID_84_" class="st14" d="M36,176.6c0,0-10.7-4.8-13.5,13.6c18,5.1,17.7-7.3,17.7-7.3C37.2,178.7,36,176.6,36,176.6z"
			/>
		<path id="XMLID_83_" class="st10" d="M36.3,177.8c0,0-7.4-3.3-9.4,9.4c12.4,3.6,12.2-5.1,12.2-5.1
			C37.1,179.3,36.3,177.8,36.3,177.8z"/>
		<path id="XMLID_82_" class="st13" d="M79.2,152.7c-2.9-4.4-33.1,11.2-40.1,15.8c-7,4.6,2.6,19.7,9.9,14.9
			C56.2,178.6,81.9,156.8,79.2,152.7z"/>
		<path id="XMLID_81_" class="st13" d="M74.2,156c-1.4-2.1-31.3,15.4-37.5,19.6c-3.8,2.5,0.8,10,4.8,7.3C48,178.6,75.6,158,74.2,156
			z"/>
		<linearGradient id="XMLID_141_" gradientUnits="userSpaceOnUse" x1="96.1834" y1="140.1509" x2="35.021" y2="182.2553">
			<stop  offset="0" style="stop-color:#FF2F36"/>
			<stop  offset="1" style="stop-color:#721473"/>
		</linearGradient>
		<path id="XMLID_80_" class="st15" d="M83.3,150c-3.3-5-35.3,11.1-42.7,16c-7.3,4.9,3.6,22.1,11.3,17.1
			C59.5,178,86.4,154.7,83.3,150z"/>
		<circle id="XMLID_79_" class="st10" cx="56.2" cy="167.9" r="6.9"/>
		<circle id="XMLID_78_" class="st13" cx="56.2" cy="167.9" r="5.1"/>
		<circle id="XMLID_77_" class="st16" cx="48.1" cy="173.3" r="1.1"/>
		<circle id="XMLID_76_" class="st16" cx="64.4" cy="162.5" r="1.1"/>
		<circle id="XMLID_75_" class="st16" cx="67.7" cy="160.4" r="1.1"/>
		<circle id="XMLID_72_" class="st16" cx="44.4" cy="175.7" r="1.1"/>
	</g>
	<g>
		<defs>
			<circle id="XMLID_17_" cx="156" cy="174.2" r="4.7"/>
		</defs>
		<linearGradient id="XMLID_142_" gradientUnits="userSpaceOnUse" x1="151.0602" y1="170.8015" x2="162.5682" y2="178.8571">
			<stop  offset="0" style="stop-color:#FF2F36"/>
			<stop  offset="1" style="stop-color:#721473"/>
		</linearGradient>
		<use xlink:href="#XMLID_17_"  style="overflow:visible;fill:url(#XMLID_142_);"/>
		<clipPath id="XMLID_143_">
			<use xlink:href="#XMLID_17_"  style="overflow:visible;"/>
		</clipPath>
		<path id="XMLID_71_" class="st17" d="M147.4,174.5c-0.4-0.9-0.5-2-0.2-3c0.1-0.6,0.4-1.1,0.8-1.5c0.4-0.4,1.1-0.5,1.6-0.3
			c0.5,0.3,0.8,0.9,0.9,1.5c0.2,0.8,0.3,1.7,0.5,2.5c0.2,0.8,0.5,1.7,1.1,2.3c0.7,0.7,1.8,1,2.8,1c1.7,0,3.3-0.9,4.4-2.2
			c1-1.3,1.4-3.1,1.1-4.7c-0.2-0.9-0.6-1.8-1.3-2.4c-0.4-0.4-1-0.7-1.5-0.8c-1.5-0.5-3.2-0.4-4.6,0.4c-0.6,0.3-1.2,0.8-1.8,0.9
			c0.8-2.1,3-3.5,5.2-3.6c1.8,0,3.6,0.8,4.7,2.2c0.9,1.1,1.3,2.5,1.4,3.9c0.1,1.4-0.3,2.8-0.9,4c-0.3,0.6-0.2,1.9-0.7,2.4
			c-0.5,0.6-1.1,2.3-1.8,2.6c-2.3,1.1-6.9,1.3-8.9-0.2c-2-1.5-2-6.6-2-9.2"/>
	</g>
	<g>
		<defs>
			<circle id="XMLID_74_" cx="156" cy="21.2" r="4.7"/>
		</defs>
		
			<linearGradient id="XMLID_144_" gradientUnits="userSpaceOnUse" x1="3.3193" y1="831.3031" x2="14.8273" y2="839.3588" gradientTransform="matrix(0.9414 -0.3373 0.3373 0.9414 -133.3355 -761.8847)">
			<stop  offset="0" style="stop-color:#31FFED"/>
			<stop  offset="1" style="stop-color:#FF1329"/>
		</linearGradient>
		<use xlink:href="#XMLID_74_"  style="overflow:visible;fill:url(#XMLID_144_);"/>
		<clipPath id="XMLID_145_">
			<use xlink:href="#XMLID_74_"  style="overflow:visible;"/>
		</clipPath>
		<path id="XMLID_70_" class="st18" d="M148,24.3c-0.7-0.8-1.1-1.7-1.2-2.7c-0.1-0.6,0-1.2,0.3-1.7c0.3-0.5,0.9-0.9,1.4-0.8
			c0.6,0.1,1,0.6,1.4,1.1c0.5,0.7,0.8,1.5,1.3,2.2c0.5,0.7,1,1.4,1.8,1.8c0.9,0.4,2,0.3,3,0c1.6-0.6,2.8-1.9,3.4-3.5
			c0.5-1.6,0.3-3.4-0.6-4.8c-0.5-0.8-1.2-1.5-2.1-1.8c-0.5-0.2-1.1-0.3-1.7-0.3c-1.6,0-3.1,0.7-4.2,1.9c-0.5,0.5-0.8,1.1-1.4,1.4
			c0.1-2.2,1.6-4.3,3.7-5.1c1.7-0.6,3.7-0.5,5.2,0.5c1.2,0.7,2.1,1.9,2.6,3.2c0.5,1.3,0.7,2.7,0.5,4.1c-0.1,0.7,0.5,1.8,0.2,2.5
			c-0.3,0.7-0.3,2.5-0.8,3.1c-1.8,1.8-6.1,3.5-8.5,2.8c-2.4-0.8-4.2-5.5-5-7.9"/>
	</g>
	<g>
		<defs>
			<circle id="XMLID_69_" cx="104.1" cy="112" r="11.9"/>
		</defs>
		<linearGradient id="XMLID_146_" gradientUnits="userSpaceOnUse" x1="114.638" y1="99.0866" x2="95.0762" y2="123.1197">
			<stop  offset="0" style="stop-color:#FF2F36"/>
			<stop  offset="1" style="stop-color:#721473"/>
		</linearGradient>
		<use xlink:href="#XMLID_69_"  style="overflow:visible;fill:url(#XMLID_146_);"/>
		<clipPath id="XMLID_147_">
			<use xlink:href="#XMLID_69_"  style="overflow:visible;"/>
		</clipPath>
		<path id="XMLID_68_" class="st19" d="M93.1,102.3c-0.5,4.8,0.6,9.9,3.5,13.7c2.9,3.9,7.7,6.4,12.6,6c2.3-0.2,4.4-1,6.6-1.7
			c1.5-0.5,3-1,4.6-0.9c0.2,0,0.4,0.1,0.6,0.2c0.3,0.3,0.2,0.8,0,1.1c-1.1,2.2-3,3.9-5.2,5.1c-2.2,1.2-4.6,1.8-7,2.1
			c-4.4,0.6-9.1,0.4-12.9-1.9c-4.1-2.5-6.6-7.4-6.2-12.2c0.1-1.4,0.5-2.9,0.9-4.2c0.5-1.7,1.2-3.4,2-5"/>
		<path id="XMLID_67_" class="st19" d="M91,95c4.4,6.4,10.7,11.3,17.6,14.9c7.5,3.9,16,6.5,24.3,5c-2.8-0.9-5.8-1.3-8.7-1.8
			c-10.3-1.7-20.9-5.1-27.7-13c-0.9-1.1-1.8-2.3-2-3.7c-0.1-0.5-0.1-1,0.3-1.3c0.7-0.7,1.8,0.2,2.4,1.1c2.7,3.9,6.3,7.3,10.5,9.5
			c4.2,2.2,9.2,3.1,13.9,2.3c-5.2-4.9-12.8-6.3-18.1-10.9c-0.9-0.8-1.7-1.7-2.2-2.8c-0.5-1.1-0.5-2.4,0.2-3.4c-3,0.1-6,0.9-8.5,2.4"
			/>
		<path id="XMLID_66_" class="st19" d="M79.6,113.9c4.4,6.4,10.7,11.3,17.6,14.9c7.5,3.9,16,6.5,24.3,5c-2.8-0.9-5.8-1.3-8.7-1.8
			c-10.3-1.7-20.9-5.1-27.7-13c-0.9-1.1-1.8-2.3-2-3.7c-0.1-0.5-0.1-1,0.3-1.3c0.7-0.7,1.8,0.2,2.4,1.1c2.7,3.9,6.3,7.3,10.5,9.5
			c4.2,2.2,9.2,3.1,13.9,2.3c-5.2-4.9-12.8-6.3-18.1-10.9c-0.9-0.8-1.7-1.7-2.2-2.8c-0.5-1.1-0.5-2.4,0.2-3.4c-3,0.1-6,0.9-8.5,2.4"
			/>
		<path id="XMLID_65_" class="st19" d="M87.7,105.2c1.4,4.2,4.6,7.7,8.3,10.2c3.7,2.5,7.8,4.3,11.9,6c3.1,1.3,6.3,2.6,9.6,2.9
			c1.8,0.2,3.7,0.1,5.2-0.9c-6.5-0.9-12.6-3.6-18.7-6.1c-3.6-1.4-7.2-2.8-10.5-4.9c-3.3-2.1-6.2-4.9-7.5-8.6
			c-0.1-0.4-0.3-0.9,0.1-1.2c0.3-0.3,0.9-0.1,1.3,0.1c2.4,1.3,4.5,3.2,6.6,5c5.5,4.6,11.7,8.4,18.2,11.3c5.4,2.4,11.4,4.1,17.1,2.7
			c-3.5-0.7-7-1.6-10.3-2.9c-4.5-1.7-8.7-4-12.9-6.2c-6.3-3.4-12.9-7-16.7-13.1c2.6,3.2,12.7,10.9,14.7,10.1c0.6-1.9-9-7.9-11.7-9.6
			"/>
	</g>
	<g>
		<defs>
			<circle id="XMLID_73_" cx="71" cy="51.5" r="31.3"/>
		</defs>
		
			<linearGradient id="XMLID_148_" gradientUnits="userSpaceOnUse" x1="-211.453" y1="1194.6573" x2="-263.0447" y2="1258.0415" gradientTransform="matrix(0.875 -0.4841 0.4841 0.875 -314.5726 -1139.4158)">
			<stop  offset="0" style="stop-color:#DC9C4F"/>
			<stop  offset="1" style="stop-color:#0067B5"/>
		</linearGradient>
		<use xlink:href="#XMLID_73_"  style="overflow:visible;fill:url(#XMLID_148_);"/>
		<clipPath id="XMLID_149_">
			<use xlink:href="#XMLID_73_"  style="overflow:visible;"/>
		</clipPath>
		<path id="XMLID_64_" class="st20" d="M33.2,43.3c5.1,11.7,14,22,25.7,27.2c11.6,5.2,26,4.9,36.6-2.2c5-3.3,9-7.9,13-12.4
			c2.8-3.1,5.7-6.3,9.5-7.8c0.5-0.2,1-0.4,1.5-0.2c1,0.3,1.4,1.6,1.4,2.7c0.3,6.5-1.9,12.9-5.4,18.3c-3.5,5.4-8.3,9.9-13.5,13.8
			c-9.3,7.1-20.5,12.5-32.2,12C57.2,94.1,45.1,86,39.9,74.5c-1.6-3.5-2.6-7.2-3.3-11c-0.9-4.6-1.5-9.3-1.8-14"/>
		<path id="XMLID_63_" class="st20" d="M18.9,28.9c18.3,9.2,39.2,12.4,59.7,11.9c22.2-0.5,45.3-5.4,62.5-19.5
			c-7.6,1.5-14.9,4.3-22.3,6.9C92.9,37.5,64,43.2,38.2,33.6c-3.5-1.3-7-3-9.4-5.9c-0.8-1-1.5-2.2-1.1-3.4c0.8-2.5,4.5-1.8,6.9-0.6
			c11.3,5.6,23.8,8.8,36.4,8.4c12.6-0.4,25.1-4.6,34.9-12.5c-18.1-4.6-37.5,1.9-55.7-2.1c-3.1-0.7-6.1-1.7-8.6-3.6
			c-2.4-2-4.2-5-3.9-8.1C30.8,9.7,25,15.5,21,22.3"/>
		<path id="XMLID_62_" class="st20" d="M16.8,87.1C35.1,96.4,56,99.5,76.4,99c22.2-0.5,45.3-5.4,62.5-19.5
			c-7.6,1.5-14.9,4.3-22.3,6.9c-25.9,9.2-54.9,14.9-80.7,5.3c-3.5-1.3-7-3-9.4-5.9c-0.8-1-1.5-2.2-1.1-3.4c0.8-2.5,4.5-1.8,6.9-0.6
			c11.3,5.6,23.8,8.8,36.4,8.4c12.6-0.4,25.1-4.6,34.9-12.5c-18.1-4.6-37.5,1.9-55.7-2.1c-3.1-0.7-6.1-1.7-8.6-3.6
			c-2.5-2-4.2-5-3.9-8.1c-6.8,4-12.6,9.7-16.6,16.5"/>
		<path id="XMLID_61_" class="st20" d="M24.5,56.8c8.7,8,20.4,11.9,32.1,13.1c11.7,1.2,23.5-0.1,35.2-1.5c8.8-1,17.7-2.1,25.8-5.5
			c4.4-1.9,8.6-4.6,10.9-8.8c-16.1,6.3-33.7,7.8-50.9,9.9c-10.1,1.3-20.3,2.8-30.5,2.2C37,65.6,26.6,62.6,18.9,56
			c-0.9-0.7-1.8-1.8-1.4-2.9c0.4-1.2,1.9-1.5,3.2-1.5c7.3,0,14.4,1.7,21.5,3.1c18.6,3.6,37.7,4.6,56.5,2.9
			c15.4-1.4,31.6-5,42.9-15.6c-9,3-18.2,5.1-27.6,6.4c-12.5,1.7-25.1,1.9-37.7,2.1c-18.9,0.3-38.7,0.4-55.2-8.8
			c10.1,4,43.2,8.9,46.9,4.5c-1-5.2-30.8-6.6-39.3-7.1"/>
	</g>
	<g>
		<circle id="XMLID_60_" class="st10" cx="138.1" cy="270" r="1.8"/>
		<circle id="XMLID_59_" class="st10" cx="169.2" cy="181.7" r="1.8"/>
		<circle id="XMLID_58_" class="st10" cx="167.5" cy="143.4" r="1.8"/>
		<circle id="XMLID_57_" class="st10" cx="119.5" cy="16.5" r="1.8"/>
		<circle id="XMLID_56_" class="st10" cx="75.3" cy="88.5" r="1.8"/>
		<circle id="XMLID_55_" class="st10" cx="47.8" cy="134.7" r="1.8"/>
		<circle id="XMLID_54_" class="st10" cx="8.6" cy="54.8" r="1.8"/>
		<circle id="XMLID_53_" class="st10" cx="74.5" cy="229" r="1.8"/>
		<circle id="XMLID_52_" class="st10" cx="169.6" cy="202.1" r="0.4"/>
		<circle id="XMLID_51_" class="st10" cx="114.4" cy="170.5" r="0.4"/>
		<circle id="XMLID_50_" class="st10" cx="134.5" cy="167.9" r="0.4"/>
		<circle id="XMLID_49_" class="st10" cx="159.9" cy="88.1" r="0.4"/>
		<circle id="XMLID_48_" class="st10" cx="88.8" cy="87.3" r="0.4"/>
		<circle id="XMLID_47_" class="st10" cx="162.3" cy="195.7" r="0.4"/>
		<circle id="XMLID_46_" class="st10" cx="87.9" cy="175.7" r="0.4"/>
		<circle id="XMLID_45_" class="st10" cx="123.2" cy="153.2" r="0.4"/>
		<circle id="XMLID_44_" class="st10" cx="13.5" cy="196.1" r="0.4"/>
		<circle id="XMLID_43_" class="st10" cx="14.2" cy="145.2" r="0.4"/>
		<circle id="XMLID_42_" class="st10" cx="25.5" cy="99.5" r="0.4"/>
		<circle id="XMLID_41_" class="st10" cx="55.5" cy="143.4" r="0.4"/>
		<circle id="XMLID_40_" class="st10" cx="162.8" cy="102.3" r="0.4"/>
		<circle id="XMLID_39_" class="st10" cx="18.6" cy="16.5" r="0.4"/>
		<circle id="XMLID_38_" class="st10" cx="108.9" cy="11.3" r="0.4"/>
		<circle id="XMLID_37_" class="st10" cx="119.8" cy="76.3" r="0.4"/>
		<circle id="XMLID_36_" class="st10" cx="158.7" cy="264.7" r="0.4"/>
		<circle id="XMLID_35_" class="st10" cx="170" cy="239.9" r="0.4"/>
		<circle id="XMLID_34_" class="st10" cx="127.6" cy="171.5" r="0.8"/>
		<circle id="XMLID_33_" class="st10" cx="78.7" cy="183.4" r="0.8"/>
		<circle id="XMLID_32_" class="st10" cx="74.5" cy="254.3" r="0.8"/>
		<circle id="XMLID_31_" class="st10" cx="19.5" cy="154.1" r="0.8"/>
		<circle id="XMLID_30_" class="st10" cx="14.6" cy="77.1" r="0.8"/>
		<circle id="XMLID_29_" class="st10" cx="24.6" cy="204.7" r="0.8"/>
		<circle id="XMLID_28_" class="st10" cx="161.5" cy="274.8" r="0.8"/>
		<circle id="XMLID_27_" class="st10" cx="131.2" cy="160.8" r="0.8"/>
		<circle id="XMLID_26_" class="st10" cx="162" cy="136.5" r="0.8"/>
		<circle id="XMLID_25_" class="st10" cx="145.2" cy="88.1" r="0.8"/>
		<circle id="XMLID_24_" class="st10" cx="22.5" cy="126.7" r="0.8"/>
		<circle id="XMLID_23_" class="st10" cx="130.4" cy="61.7" r="0.8"/>
		<circle id="XMLID_22_" class="st10" cx="87.6" cy="94.2" r="0.8"/>
		<circle id="XMLID_21_" class="st10" cx="98.4" cy="133.9" r="0.8"/>
		<circle id="XMLID_20_" class="st10" cx="32.1" cy="113.7" r="0.8"/>
		<circle id="XMLID_19_" class="st10" cx="160.7" cy="75.1" r="0.8"/>
		<circle id="XMLID_18_" class="st10" cx="26.8" cy="167.5" r="0.8"/>
		<circle id="XMLID_16_" class="st10" cx="31.2" cy="42" r="0.8"/>
		<circle id="XMLID_12_" class="st10" cx="8" cy="154.1" r="0.8"/>
		<circle id="XMLID_11_" class="st10" cx="13.5" cy="88.9" r="0.8"/>
		<circle id="XMLID_10_" class="st10" cx="57.4" cy="112" r="0.8"/>
		<circle id="XMLID_9_" class="st10" cx="108.9" cy="21.2" r="0.8"/>
		<circle id="XMLID_8_" class="st10" cx="49.5" cy="92.6" r="0.8"/>
		<path id="XMLID_7_" class="st10" d="M71,220.9L71,220.9c0-1.9-1.6-3.4-3.6-3.4l0,0c2,0,3.6-1.5,3.6-3.4l0,0c0,1.9,1.6,3.4,3.6,3.4
			l0,0C72.6,217.4,71,219,71,220.9z"/>
		<path id="XMLID_6_" class="st10" d="M138.1,139.1L138.1,139.1c0-2-1.6-3.6-3.6-3.6l0,0c2,0,3.6-1.6,3.6-3.6l0,0
			c0,2,1.6,3.6,3.6,3.6l0,0C139.6,135.5,138.1,137.1,138.1,139.1z"/>
		<path id="XMLID_5_" class="st10" d="M18.6,112.8L18.6,112.8c0-2-1.6-3.6-3.6-3.6l0,0c2,0,3.6-1.6,3.6-3.6l0,0c0,2,1.6,3.6,3.6,3.6
			l0,0C20.2,109.3,18.6,110.9,18.6,112.8z"/>
		<path id="XMLID_4_" class="st10" d="M27.7,24.7L27.7,24.7c0-2-1.6-3.6-3.6-3.6l0,0c2,0,3.6-1.6,3.6-3.6l0,0c0,2,1.6,3.6,3.6,3.6
			l0,0C29.3,21.2,27.7,22.8,27.7,24.7z"/>
		<path id="XMLID_3_" class="st10" d="M141.6,42L141.6,42c0-2-1.6-3.6-3.6-3.6l0,0c2,0,3.6-1.6,3.6-3.6l0,0c0,2,1.6,3.6,3.6,3.6l0,0
			C143.2,38.4,141.6,40,141.6,42z"/>
	</g>
</g>
</svg>
