<?xml version="1.0" encoding="utf-8"?>
<!-- Generator: Adobe Illustrator 19.0.0, SVG Export Plug-In . SVG Version: 6.00 Build 0)  -->
<svg version="1.1" id="Layer_1" xmlns="http://www.w3.org/2000/svg" xmlns:xlink="http://www.w3.org/1999/xlink" x="0px" y="0px"
	 viewBox="0 0 161.2 275.3" style="enable-background:new 0 0 161.2 275.3;" xml:space="preserve">
<style type="text/css">
	.st0{display:none;opacity:0.3;fill:#ACB7C6;}
	.st1{opacity:0.2;clip-path:url(#XMLID_114_);fill:#373852;}
	.st2{clip-path:url(#XMLID_114_);fill:#FFFFFF;}
	.st3{display:none;}
	.st4{display:inline;fill:#3E2C46;}
	.st5{font-family:'Assistant-Bold';}
	.st6{font-size:15.6149px;}
	.st7{display:inline;fill:#FF3DBB;}
	.st8{font-family:'Assistant-ExtraLight';}
	.st9{font-size:15.0402px;}
	.st10{fill:url(#XMLID_115_);}
	.st11{opacity:0.2;clip-path:url(#XMLID_117_);fill:#CB4D79;}
	.st12{opacity:0.2;clip-path:url(#XMLID_119_);fill:#CB4D79;}
	.st13{opacity:0.2;clip-path:url(#XMLID_121_);fill:#CB4D79;}
	.st14{fill:#FFFFFF;}
	.st15{opacity:0.2;clip-path:url(#XMLID_123_);fill:#784D79;}
</style>
<g>
	<g>
		<rect id="XMLID_6_" x="4.7" y="241.1" class="st0" width="151.9" height="39.7"/>
		<g>
			<defs>
				<rect id="XMLID_1_" width="161.2" height="275.3"/>
			</defs>
			<linearGradient id="XMLID_113_" gradientUnits="userSpaceOnUse" x1="190.0883" y1="31.1667" x2="-77.8417" y2="291.8273">
				<stop  offset="0" style="stop-color:#BF126A"/>
				<stop  offset="1" style="stop-color:#1515B8"/>
			</linearGradient>
			<use xlink:href="#XMLID_1_"  style="overflow:visible;fill:url(#XMLID_113_);"/>
			<clipPath id="XMLID_114_">
				<use xlink:href="#XMLID_1_"  style="overflow:visible;"/>
			</clipPath>
			<path id="XMLID_85_" class="st1" d="M-81.8,172.6c1.9-21.7,12.3-41.6,28.2-54.3c8.4-6.7,18.7-11.5,29.6-10.4
				c11.6,1.1,22.5,8.6,31,17.8c8.5,9.2,15.1,20,22.4,30.3c23.7,33.4,55.2,61,90.5,79.1c14.3,7.3,29.3,13.2,44.7,14.9
				c36.8,4.2,72.3-17.3,87.6-50.9c7.9-17.4,10.8-38.1,5.7-57.8c-3-11.7-9.5-23.5-19.8-29.1c-15.7-8.4-33.6,0.8-44.1,13.8
				c-10.5,12.9-17,29.5-28.6,41.3c-20.8,21.1-55.6,22.9-84.4,10.2c-28.8-12.6-52.4-37.4-71-64.3c-12.3-17.8-23-37.4-26.4-58.4
				c-1.5-9.2-1.4-18.9,2.4-26.8C-10.4,20-2.2,14.3,6.5,15.7c11.1,1.7,19.3,13.9,21.7,25.6s0.8,23.4,1.3,35.2
				c0.8,19.7,8.2,40,21.7,54.9c13.5,14.9,33.2,23.8,51.5,21.5c18.3-2.4,34.1-16.8,37.1-35.9c1.6-10.1-0.2-20.9-3.7-30.9
				c-6.3-18.2-18.2-34.7-33.2-46.2c-12.2-9.3-26.2-15.3-38.7-24.2s-24-21.9-25.7-37.1c-1.6-13.9,5.9-27.1,17.3-33s25.8-4.8,38,1.6
				c5.4,2.8,10.6,6.7,14,12c7.2,11.3,5,25.4,4.5,38.3c-0.6,17.4,3.4,36.7,15.9,49.4c12.6,12.8,33.1,18.3,39,35.3
				c1.8,5,1.9,10.3,3.1,15.4c1.2,5.1,4,10.5,8.7,12.5c7,3,13.8-3.2,16.8-9.9c9.8-21.2,0.8-48.7-13.1-69.5s-32.7-38-46.3-59.1
				c-7.8-12-14.5-25.9-26.6-32.7C96.9-68.3,82-65.1,69-60.7C0.9-37.6-68.6-8-97.3,60.6"/>
			<path id="XMLID_84_" class="st2" d="M-39.3,139.7c1.3,13.2,3.1,26.8,9.7,38.4c6.6,11.6,19.1,21,33.2,20.5
				c7.5-0.3,14.6-3.2,21.9-5.3c7.2-2.1,15.3-3.3,22-0.1c7.2,3.4,11,11.1,12.4,18.7c1.4,7.6,0.9,15.4,2.3,23.1
				c1.8,10.1,7.1,19.9,16.2,25.2c16.1,9.2,37,1.8,56,2.9c7.5,0.4,14.9,2.2,21.6,5.3c4.7,2.2,9.3,5.1,11.7,9.5
				c3.8,7,1.2,15.8-3.1,22.7c-6.8,11-17.6,19.3-29.2,25.6c-41.1,22.3-95.4,19.2-131.9-7.5C-7,311-16,301.7-22.7,290.9
				c-11.5-18.4-15.7-40.5-15-62.2c0.7-21.7,6-43.1,12.7-64.1"/>
		</g>
		<g id="XMLID_7_" class="st3">
			<text id="XMLID_83_" transform="matrix(1 0 0 1 7.8395 264.3989)" class="st4 st5 st6">SPACE</text>
			<text id="XMLID_82_" transform="matrix(1 0 0 1 8.6505 250.8315)" class="st7 st8 st9">Outer </text>
		</g>
		<g>
			
				<radialGradient id="XMLID_115_" cx="-139.0864" cy="1214.8264" r="29.2898" gradientTransform="matrix(0.928 -0.3725 0.3725 0.928 -201.9484 -1028.3997)" gradientUnits="userSpaceOnUse">
				<stop  offset="0.7259" style="stop-color:#FFFFFF;stop-opacity:0"/>
				<stop  offset="1" style="stop-color:#FFFF66"/>
			</radialGradient>
			<circle id="XMLID_3_" class="st10" cx="121.5" cy="150.8" r="29.3"/>
			<g>
				<defs>
					<circle id="XMLID_2_" cx="121.5" cy="150.8" r="24.4"/>
				</defs>
				
					<linearGradient id="XMLID_116_" gradientUnits="userSpaceOnUse" x1="-128.4445" y1="1193.3735" x2="-148.3192" y2="1233.4385" gradientTransform="matrix(0.928 -0.3725 0.3725 0.928 -201.9484 -1028.3997)">
					<stop  offset="0" style="stop-color:#67E1FF"/>
					<stop  offset="1" style="stop-color:#FF9D5C"/>
				</linearGradient>
				<use xlink:href="#XMLID_2_"  style="overflow:visible;fill:url(#XMLID_116_);"/>
				<clipPath id="XMLID_117_">
					<use xlink:href="#XMLID_2_"  style="overflow:visible;"/>
				</clipPath>
				<path id="XMLID_81_" class="st11" d="M119.1,183.4c7.6-6.4,13.3-15.4,14.6-25.2c1.3-9.9-2.2-20.5-9.8-26.8
					c-3.6-3-7.9-4.9-12.1-6.9c-2.9-1.4-6-2.8-8-5.4c-0.3-0.3-0.5-0.7-0.5-1.1c0-0.8,0.9-1.4,1.7-1.6c4.8-1.7,10-1.5,14.9,0
					c4.8,1.4,9.3,4,13.3,7c7.4,5.4,13.9,12.5,16.2,21.3c2.4,9.6-1,20.3-8.4,26.8c-2.2,2-4.8,3.5-7.4,4.9c-3.2,1.7-6.6,3.2-10.1,4.5"
					/>
				<path id="XMLID_80_" class="st11" d="M92.3,136.4c2.4,3,6.8,3.4,10.6,3c9.1-1,17.7-5.6,23.5-12.6c1.9-2.2,3.5-5.2,2.4-7.9
					c-2.2,6.2-7.2,11.1-13.1,13.8s-12.6,3.5-19.1,2.9c-1.5-0.1-3.1-0.3-4.6-0.1c-1.5,0.2-3.1,0.9-3.9,2.2c-1.1,1.8-0.7,4.1-0.1,6.1
					c0.5,2,1,4,2.2,5.7c0.8,1.1,1.8,2,3,2.7c4.6,2.9,10.8,2.3,15.7,0c4.9-2.3,8.9-6.2,12.9-10c3.9-3.8,8-7.6,13-9.8
					c3.8-1.7,8-2.3,12.2-2.2c1.9,0.1,3.8,0.3,5.4-0.7c0.3-1.5-1.1-3-2.6-3.3c-1.5-0.4-3.1,0-4.6,0.4c-3.4,0.9-6.7,2-9.8,3.6
					c-4.4,2.3-8.2,5.7-11.9,9.1c-3.7,3.3-7.5,6.7-12,8.8c-4.5,2.2-9.9,3-14.5,1.1c-2.7-1.1-5.1-3.1-8-3.5"/>
				<path id="XMLID_79_" class="st11" d="M83,161.9c7.2-4,15.6-5.8,23.8-5.2c6.2,0.5,12.4,2.3,18.6,1.8c6.2-0.5,12-3.4,16.5-7.7
					c4.5-4.3,7.6-9.9,9.2-15.8c0.1-0.5,0.5-1.1,1-0.9c0.7,1.9,0.5,4.1-0.3,6c-0.7,1.9-1.9,3.6-3.1,5.3c-3.1,4.4-6.4,8.8-11.2,11.4
					c-3,1.6-6.3,2.4-9.6,3c-3.2,0.7-6.6,1.3-9.8,0.9c-2.9-0.4-5.7-1.5-8.6-1.8c-3.7-0.4-7.4,0.6-10.9,1.9c-2.9,1.1-5.9,2.7-7.8,5.2
					c-2,2.5-2.7,6.2-1,8.9c0.2,0.4,0.6,0.8,1,1c1.1,0.6,2.4-0.3,3.3-1c6.2-5,13-10.1,21-10.7c2.7-0.2,5.4,0.2,8.1,0.3
					c6.5,0.4,13-0.3,19.1-2.6c6-2.3,11.5-6.3,15.1-11.7c0.6,1.9,0,3.9-1.1,5.5c-1.1,1.6-2.7,2.8-4.3,4c-2,1.4-4.1,2.8-6.4,3.7
					c-2.3,0.8-4.7,1.1-7.1,1.2c-6.7,0.4-13.5,0.1-20.2,0.8c-3.1,0.3-6.3,0.9-9,2.4c-2.6,1.4-4.8,3.7-6.1,6.3
					c-0.1,0.3-0.2,0.5-0.2,0.8c0.2,0.8,1.5,0.4,2.2-0.2c3.3-2.8,7.5-4.4,11.9-4.5c4.3-0.1,8.6,1.4,12,4.2c1.1,0.9,2.2,2.3,1.6,3.6
					c-0.2,0.5-0.8,0.9-1.3,1.3c-4.6,3-10.3,3.9-15.8,4.1c-2,0.1-4.1,0-6.1-0.6c-2.3-0.7-4.2-2.1-6.1-3.6
					c-5.5-4.4-10.7-9.8-11.8-16.7"/>
				<path id="XMLID_77_" class="st11" d="M145.2,124.1c0.8,1.7,0.4,3.8-0.5,5.5c-0.9,1.6-2.4,2.9-4,4c-3.7,2.5-7.9,4-11.8,6.2
					c-3.9,2.2-7.6,5.3-8.9,9.5c-0.4,1.4-0.6,3,0.2,4.2c0.4,0.6,1,1.1,1.7,1.4c1.6,0.8,3.4,1,5.1,0.7c1.7-0.3,3.4-0.9,5-1.7
					c4.9-2.3,9.2-5.7,12.6-9.9c2.5-3.1,4.6-6.9,4.4-10.9c-0.2-2.8-1.4-5.4-2.2-8.1"/>
				<path id="XMLID_76_" class="st11" d="M123,146.9c-0.7,0.9-1.2,2.1-0.6,3c0.3,0.4,0.7,0.6,1.2,0.7c0.9,0.2,2,0.1,3,0
					c3-0.6,5.9-1.8,8.3-3.6c1.1-0.8,2.2-1.8,3-2.9c0.5-0.7,0.9-1.4,1-2.2c0.1-0.8,0-1.6-0.6-2.1c-0.4-0.5-1.1-0.7-1.8-0.9
					c-2.3-0.5-5.4,1.4-7.4,2.6C126.7,143,124.5,144.8,123,146.9z"/>
			</g>
		</g>
		<g>
			<defs>
				<circle id="XMLID_4_" cx="85.5" cy="127.6" r="6.1"/>
			</defs>
			
				<linearGradient id="XMLID_118_" gradientUnits="userSpaceOnUse" x1="-625.112" y1="-1924.1211" x2="-616.8793" y2="-1934.6514" gradientTransform="matrix(0.7301 0.6834 -0.6834 0.7301 -779.2673 1960.597)">
				<stop  offset="0" style="stop-color:#7CE8FF"/>
				<stop  offset="1" style="stop-color:#0FA7D8"/>
			</linearGradient>
			<use xlink:href="#XMLID_4_"  style="overflow:visible;fill:url(#XMLID_118_);"/>
			<clipPath id="XMLID_119_">
				<use xlink:href="#XMLID_4_"  style="overflow:visible;"/>
			</clipPath>
			<path id="XMLID_75_" class="st12" d="M89.9,142.1c-1.4,1.2-3.2,2-5,2.2c-1.1,0.1-2.2,0-3.1-0.5c-0.9-0.5-1.6-1.6-1.4-2.6
				c0.1-1.1,1-1.9,2-2.5c1.3-0.9,2.7-1.5,4.1-2.3c1.3-0.8,2.6-1.9,3.2-3.3c0.8-1.7,0.6-3.7,0-5.4c-1.1-2.9-3.5-5.2-6.4-6.2
				c-2.9-1-6.2-0.6-8.8,1c-1.4,0.9-2.7,2.2-3.3,3.8c-0.4,1-0.6,2.1-0.5,3.1c0,2.9,1.3,5.7,3.4,7.7c0.9,0.8,2,1.5,2.6,2.6
				c-4.1-0.1-7.9-3-9.3-6.8c-1.1-3.1-0.8-6.7,1-9.5c1.3-2.2,3.4-3.8,5.8-4.7c2.4-0.9,5-1.2,7.5-0.9c1.3,0.1,3.3-0.8,4.5-0.3
				c1.3,0.6,4.6,0.5,5.6,1.6c3.2,3.3,6.4,11.1,4.9,15.5c-1.4,4.4-10.2,7.5-14.6,9"/>
		</g>
		<g>
			<defs>
				<circle id="XMLID_5_" cx="101.7" cy="198.4" r="9.1"/>
			</defs>
			
				<linearGradient id="XMLID_120_" gradientUnits="userSpaceOnUse" x1="-4747.3496" y1="2118.8865" x2="-4734.9956" y2="2103.085" gradientTransform="matrix(-0.6496 -0.7603 0.7603 -0.6496 -4583.6924 -2034.9686)">
				<stop  offset="0" style="stop-color:#FF9D05"/>
				<stop  offset="1" style="stop-color:#FFEE58"/>
			</linearGradient>
			<use xlink:href="#XMLID_5_"  style="overflow:visible;fill:url(#XMLID_120_);"/>
			<clipPath id="XMLID_121_">
				<use xlink:href="#XMLID_5_"  style="overflow:visible;"/>
			</clipPath>
			<path id="XMLID_74_" class="st13" d="M102,217.6c-2,1.1-4.3,1.5-6.5,1.2c-1.3-0.2-2.5-0.6-3.4-1.5c-0.9-0.9-1.4-2.3-0.9-3.5
				c0.5-1.2,1.8-1.9,3-2.3c1.8-0.6,3.6-0.9,5.4-1.5c1.8-0.6,3.5-1.4,4.7-2.9c1.4-1.7,1.8-4.1,1.5-6.3c-0.4-3.6-2.5-7-5.6-9
				c-3.1-2-7-2.5-10.5-1.4c-1.9,0.6-3.7,1.8-4.9,3.4c-0.7,1-1.2,2.2-1.5,3.5c-0.8,3.4-0.1,7,1.8,9.9c0.8,1.2,1.9,2.4,2.3,3.8
				c-4.7-1.3-8.3-5.7-8.8-10.5c-0.5-3.9,1-8,3.8-10.7c2.2-2.1,5.1-3.4,8.1-3.9c3-0.4,6.1,0,9,1.1c1.4,0.5,4.1,0,5.3,0.9
				c1.3,1,5.2,1.9,6.1,3.4c2.8,4.8,4.2,14.7,1.3,19.4s-14,5.8-19.5,6.3"/>
			<path id="XMLID_73_" class="st13" d="M110.4,183.6c-0.2,2-1.6,3.6-3.1,4.8c-3.9,3.4-8.8,5.5-13.8,6.8c-1.8,0.5-3.8,0.9-5.1,2.3
				c-0.5,0.5-0.8,1.2-0.8,1.8c0,0.7,0.6,1.4,1.2,1.4c0.8,0,1.4-0.8,1.9-1.4c1.3-1.7,3.2-3,5.2-3.7c2.3-0.7,4.8-0.6,7.2-1
				c3.7-0.7,7-2.7,9.3-5.6c0.7-0.9,1.3-1.9,2.2-2.6c0.9-0.7,2.2-1,3.2-0.4c0.5,0.4,0.9,1,1,1.6c0.4,1.5-0.2,3.2-1.3,4.4
				c-1,1.2-2.4,2-3.9,2.7c-2.9,1.3-6,2-9.2,2.5c-2.4,0.4-4.8,0.8-7.1,1.5c-2.3,0.7-4.5,1.9-6.1,3.7c-1.7,1.9-2.6,4.9-1.2,7.2
				c0.2,0.4,0.6,0.7,1,0.6c0.3-0.1,0.4-0.4,0.5-0.7c0.5-1.5,0.2-3.1,0.8-4.6c0.6-1.5,1.9-2.5,3.3-3.3c6.4-3.8,14.5-4.8,21.6-2.5
				c0.9,0.3,1.9,0.6,2.5,1.3c0.1,0.1,0.2,0.3,0.3,0.4c0.1,0.6-0.8,0.7-1.3,0.7c-2.2-0.3-4.3-0.8-6.5-0.6c-3.3,0.2-6.6,2-8.6,4.6
				c-0.9,1.1-1.6,2.5-1.2,3.9c0.4,1.8,2.4,2.7,4.3,3c2.5,0.3,5.1-0.3,7.5-1.3c2.6-1.1,5.1-2.6,7-4.7c1.9-2.1,3.3-4.7,3.7-7.5
				c0.7-4.9-1.7-9.8-5.2-13.2"/>
		</g>
		<g>
			<circle id="XMLID_72_" class="st14" cx="38.7" cy="157.3" r="1.6"/>
			<circle id="XMLID_71_" class="st14" cx="124.4" cy="246.2" r="1.6"/>
			<circle id="XMLID_70_" class="st14" cx="22.6" cy="11" r="1.6"/>
			<circle id="XMLID_69_" class="st14" cx="139.5" cy="195.6" r="1.6"/>
			<circle id="XMLID_68_" class="st14" cx="111.1" cy="78.7" r="1.6"/>
			<circle id="XMLID_67_" class="st14" cx="138.7" cy="36.1" r="1.6"/>
			<circle id="XMLID_66_" class="st14" cx="18.2" cy="178.5" r="1.6"/>
			<circle id="XMLID_65_" class="st14" cx="11.7" cy="152.6" r="0.3"/>
			<circle id="XMLID_64_" class="st14" cx="14.6" cy="70.7" r="0.3"/>
			<circle id="XMLID_63_" class="st14" cx="81.6" cy="12.6" r="0.3"/>
			<circle id="XMLID_62_" class="st14" cx="100.7" cy="82.1" r="0.3"/>
			<circle id="XMLID_61_" class="st14" cx="101" cy="254" r="0.3"/>
			<circle id="XMLID_60_" class="st14" cx="74.7" cy="185.6" r="0.3"/>
			<circle id="XMLID_59_" class="st14" cx="24.5" cy="131.4" r="0.3"/>
			<circle id="XMLID_58_" class="st14" cx="138.7" cy="70" r="0.3"/>
			<circle id="XMLID_57_" class="st14" cx="126" cy="10" r="0.3"/>
			<circle id="XMLID_56_" class="st14" cx="18.2" cy="37.8" r="0.3"/>
			<circle id="XMLID_55_" class="st14" cx="11.7" cy="85.5" r="0.3"/>
			<circle id="XMLID_54_" class="st14" cx="38.7" cy="14.1" r="0.3"/>
			<circle id="XMLID_53_" class="st14" cx="110.1" cy="90.7" r="0.3"/>
			<circle id="XMLID_52_" class="st14" cx="12.1" cy="184.3" r="0.3"/>
			<circle id="XMLID_51_" class="st14" cx="101.7" cy="244.8" r="0.3"/>
			<circle id="XMLID_50_" class="st14" cx="104.5" cy="87.6" r="0.3"/>
			<circle id="XMLID_49_" class="st14" cx="145" cy="188" r="0.3"/>
			<circle id="XMLID_48_" class="st14" cx="80.3" cy="185" r="0.3"/>
			<circle id="XMLID_47_" class="st14" cx="154.2" cy="121" r="0.3"/>
			<circle id="XMLID_46_" class="st14" cx="130.1" cy="223.6" r="0.3"/>
			<circle id="XMLID_45_" class="st14" cx="150.1" cy="241.9" r="0.3"/>
			<circle id="XMLID_44_" class="st14" cx="7.8" cy="140.1" r="0.3"/>
			<circle id="XMLID_43_" class="st14" cx="151.1" cy="85.2" r="0.3"/>
			<circle id="XMLID_42_" class="st14" cx="131.7" cy="18.5" r="0.3"/>
			<circle id="XMLID_41_" class="st14" cx="23.4" cy="137.2" r="0.8"/>
			<circle id="XMLID_40_" class="st14" cx="150.4" cy="42.5" r="0.8"/>
			<circle id="XMLID_39_" class="st14" cx="92.5" cy="248.2" r="0.8"/>
			<circle id="XMLID_38_" class="st14" cx="104.1" cy="97.8" r="0.8"/>
			<circle id="XMLID_37_" class="st14" cx="139.5" cy="220.6" r="0.8"/>
			<circle id="XMLID_36_" class="st14" cx="125.1" cy="209.1" r="0.8"/>
			<circle id="XMLID_35_" class="st14" cx="148" cy="105" r="0.8"/>
			<circle id="XMLID_34_" class="st14" cx="74.4" cy="136.5" r="0.8"/>
			<circle id="XMLID_33_" class="st14" cx="75.1" cy="82.6" r="0.8"/>
			<circle id="XMLID_32_" class="st14" cx="100.7" cy="71.8" r="0.8"/>
			<circle id="XMLID_31_" class="st14" cx="62.2" cy="90.7" r="0.8"/>
			<circle id="XMLID_30_" class="st14" cx="75.9" cy="167.1" r="0.8"/>
			<circle id="XMLID_29_" class="st14" cx="11" cy="132.2" r="0.8"/>
			<circle id="XMLID_28_" class="st14" cx="145.4" cy="13.3" r="0.8"/>
			<circle id="XMLID_27_" class="st14" cx="41.1" cy="20.8" r="0.8"/>
			<circle id="XMLID_26_" class="st14" cx="10.2" cy="30.1" r="0.8"/>
			<circle id="XMLID_25_" class="st14" cx="22.6" cy="86.9" r="0.8"/>
			<circle id="XMLID_24_" class="st14" cx="63" cy="28.4" r="0.8"/>
			<circle id="XMLID_23_" class="st14" cx="96.7" cy="88" r="0.8"/>
			<path id="XMLID_22_" class="st14" d="M35.5,127.3L35.5,127.3c0-1.8-1.4-3.2-3.2-3.2l0,0c1.8,0,3.2-1.4,3.2-3.2l0,0
				c0,1.8,1.4,3.2,3.2,3.2l0,0C36.9,124.1,35.5,125.6,35.5,127.3z"/>
			<path id="XMLID_21_" class="st14" d="M93.5,62.6L93.5,62.6c0-1.8-1.4-3.2-3.2-3.2l0,0c1.8,0,3.2-1.4,3.2-3.2l0,0
				c0,1.8,1.4,3.2,3.2,3.2l0,0C94.9,59.4,93.5,60.8,93.5,62.6z"/>
			<path id="XMLID_20_" class="st14" d="M78.4,220.6L78.4,220.6c0-1.8-1.4-3.2-3.2-3.2l0,0c1.8,0,3.2-1.4,3.2-3.2l0,0
				c0,1.8,1.4,3.2,3.2,3.2l0,0C79.8,217.3,78.4,218.8,78.4,220.6z"/>
			<path id="XMLID_19_" class="st14" d="M140.2,30.1L140.2,30.1c0-1.8-1.4-3.2-3.2-3.2l0,0c1.8,0,3.2-1.4,3.2-3.2l0,0
				c0,1.8,1.4,3.2,3.2,3.2l0,0C141.7,26.9,140.2,28.3,140.2,30.1z"/>
		</g>
	</g>
	<g>
		<defs>
			<circle id="XMLID_78_" cx="54.4" cy="53.8" r="17"/>
		</defs>
		
			<linearGradient id="XMLID_122_" gradientUnits="userSpaceOnUse" x1="-295.243" y1="-1360.6719" x2="-326.5287" y2="-1311.9244" gradientTransform="matrix(0.8776 0.4795 -0.4795 0.8776 -321.7101 1380.0929)">
			<stop  offset="0" style="stop-color:#FF3D86"/>
			<stop  offset="1" style="stop-color:#7C38D6"/>
		</linearGradient>
		<use xlink:href="#XMLID_78_"  style="overflow:visible;fill:url(#XMLID_122_);"/>
		<clipPath id="XMLID_123_">
			<use xlink:href="#XMLID_78_"  style="overflow:visible;"/>
		</clipPath>
		<path id="XMLID_18_" class="st15" d="M39.9,26.4c2.4-2.8,5.7-4.8,9.3-5.6c2-0.5,4.2-0.6,6.2,0.3c1.9,0.8,3.5,2.7,3.5,4.8
			c0,2.2-1.6,4-3.3,5.4c-2.4,2-5,3.6-7.4,5.5c-2.4,1.9-4.6,4.3-5.5,7.2c-1.1,3.5-0.3,7.3,1.3,10.6c2.8,5.4,8.1,9.4,14,10.6
			c5.9,1.2,12.4-0.3,17.1-4.1c2.6-2.1,4.7-4.9,5.6-8.2c0.5-2,0.6-4.2,0.3-6.3c-0.8-5.7-3.9-11-8.6-14.3c-2-1.4-4.3-2.6-5.7-4.6
			c8-0.7,16.2,4,19.9,11.1c3,5.8,3.2,13,0.4,18.9c-2.1,4.6-5.9,8.3-10.3,10.7c-4.4,2.4-9.5,3.6-14.5,3.6c-2.6,0-6.3,2.4-8.8,1.7
			c-2.7-0.8-9.2,0.1-11.4-1.7c-7.1-5.8-15.2-20.3-13.5-29.3c1.7-9,18.2-17.2,26.5-21.2"/>
		<path id="XMLID_17_" class="st15" d="M60,35.3c-0.9-0.1-1.9,0-2.7,0.3c-0.9,0.4-1.6,1.1-1.8,2c-0.4,1.6,0.9,3.1,2.2,4.1
			c3.5,2.8,7.9,4.4,12.4,4.5c1,0,2.2,0,2.9-0.7c0.8-0.7,1.1-1.9,0.9-2.9c-0.2-1-0.8-2-1.5-2.7c-3.4-3.8-8.7-4.9-13.7-5.7"/>
		<path id="XMLID_16_" class="st15" d="M56.9,51c0.5,0.9,1.4,1.5,2.2,2c0.9,0.5,1.9,0.9,2.9,1c1,0.1,2.2-0.3,2.8-1.1
			c0.6-0.7,0.7-1.8,0.4-2.7c-0.3-0.9-0.9-1.6-1.7-2.2C61.4,46.6,54.7,47,56.9,51z"/>
		<path id="XMLID_15_" class="st15" d="M47.1,44.3c0.3,1.3,0.9,2.7,2.1,3.3c0.8,0.4,1.8,0.3,2.7,0c0.5-0.2,0.9-0.4,1.2-0.7
			c0.3-0.3,0.4-0.8,0.5-1.2c0.2-1.5-0.3-3.2-1.5-4.2C49.5,39.5,46.4,41.2,47.1,44.3z"/>
		<path id="XMLID_14_" class="st15" d="M49.8,55c0.6,0.6,1.3,1.1,2.1,1.3c0.8,0.2,1.7,0,2.3-0.6c0.5-0.6,0.5-1.5,0.2-2.3
			c-0.4-1.2-1.4-2.2-2.6-2.5c-0.9-0.3-3.1-0.3-3.7,0.6C47.4,52.6,49.1,54.4,49.8,55z"/>
		<path id="XMLID_13_" class="st15" d="M66.8,57.9c-0.9,0.8-1.3,2.1-1.2,3.2c0.1,1.2,0.9,2.3,1.8,3c0.9,0.6,2.1,0.9,3.2,1
			c0.9,0.1,1.8,0.1,2.6-0.2c1.4-0.6,2.3-2,2.4-3.5C76,59.5,75,57.3,73,57C71,56.8,68.4,56.5,66.8,57.9z"/>
		<path id="XMLID_12_" class="st15" d="M47.5,64.7c0.3,0.8,0.9,1.6,1.5,2.2c0.7,0.7,1.6,1.2,2.5,1.4c4.2,0.7,5.6-4.8,2.8-7.3
			C51.8,58.6,46.1,60.9,47.5,64.7z"/>
		<path id="XMLID_11_" class="st15" d="M32.2,54.9c1.5-0.2,3.1-0.2,4.7,0.2c1.1,0.3,2.2,0.7,3,1.5c0.7,0.7,1.1,1.6,1.4,2.5
			c0.5,1.5,0.7,3.1,0.2,4.5c-0.5,1.4-1.9,2.7-3.4,2.6c-0.9,0-1.8-0.5-2.6-1c-1.3-0.8-2.6-1.6-3.5-2.9c-0.9-1.3-1.2-3-0.4-4.3"/>
		<path id="XMLID_10_" class="st15" d="M36.6,43.6c1.1-0.4,2.4,0,3.5,0.5c1.3,0.6,2.6,1.3,3.6,2.4c0.4,0.5,0.8,1,0.9,1.6
			c0.1,0.6-0.1,1.3-0.6,1.7c-0.3,0.2-0.7,0.2-1,0.3c-0.9,0.1-1.8,0.1-2.6-0.1c-0.9-0.3-1.7-0.8-2.4-1.4c-0.6-0.4-1.2-0.9-1.9-1.3
			c-0.3-0.2-0.6-0.5-0.8-0.8c-0.2-0.3-0.1-0.8,0.2-1"/>
		<path id="XMLID_9_" class="st15" d="M60.4,57.2c-0.8-0.3-1.7,0.4-1.8,1.2c-0.2,0.8,0.3,1.7,0.9,2.2c0.4,0.3,0.9,0.5,1.3,0.5
			c0.5,0,1-0.3,1.2-0.7c0.2-0.3,0.2-0.7,0.2-1c-0.1-0.9-0.7-1.9-1.6-2.1"/>
		<path id="XMLID_8_" class="st15" d="M61.7,67.4c-1.2,0.3-2,1.3-2.7,2.3c-0.1,0.2-0.2,0.4-0.3,0.6c-0.1,0.3,0,0.6,0.2,0.9
			c0.6,1.5,2.2,2.6,3.8,2.7c2,0.1,4.8-1.8,4.4-4.1C66.7,67.9,63.3,67.1,61.7,67.4z"/>
	</g>
</g>
</svg>
