<?xml version="1.0" encoding="utf-8"?>
<!-- Generator: Adobe Illustrator 19.0.0, SVG Export Plug-In . SVG Version: 6.00 Build 0)  -->
<svg version="1.1" id="Layer_1" xmlns="http://www.w3.org/2000/svg" xmlns:xlink="http://www.w3.org/1999/xlink" x="0px" y="0px"
	 viewBox="0 0 174.2 297.5" style="enable-background:new 0 0 174.2 297.5;" xml:space="preserve">
<style type="text/css">
	.st0{display:none;opacity:0.3;fill:#ACB7C6;}
	.st1{opacity:0.2;clip-path:url(#XMLID_134_);fill:#373852;}
	.st2{clip-path:url(#XMLID_134_);fill:#FFFFFF;}
	.st3{display:none;}
	.st4{display:inline;fill:#3E2C46;}
	.st5{font-family:'Assistant-Bold';}
	.st6{font-size:16.8731px;}
	.st7{display:inline;fill:#7CE8FF;}
	.st8{font-family:'Assistant-ExtraLight';}
	.st9{font-size:16.2522px;}
	.st10{opacity:0.3;fill:#FFFFFF;}
	.st11{fill:#FF9D05;}
	.st12{fill:#FFDC58;}
	.st13{opacity:0.3;clip-path:url(#XMLID_136_);fill:#CB4D79;}
	.st14{opacity:0.3;clip-path:url(#XMLID_136_);fill:#744D79;}
	.st15{opacity:0.2;clip-path:url(#XMLID_138_);fill:#373852;}
	.st16{opacity:0.2;clip-path:url(#XMLID_140_);fill:#373852;}
	.st17{opacity:0.2;clip-path:url(#XMLID_142_);fill:#373852;}
	.st18{opacity:0.2;clip-path:url(#XMLID_144_);fill:#373852;}
	.st19{opacity:0.2;clip-path:url(#XMLID_146_);fill:#373852;}
	.st20{opacity:0.2;clip-path:url(#XMLID_148_);fill:#373852;}
	.st21{opacity:0.2;clip-path:url(#XMLID_150_);fill:#373852;}
	.st22{fill:#FFFFFF;}
</style>
<g>
	<rect id="XMLID_2_" x="5" y="260.5" class="st0" width="164.2" height="42.9"/>
	<g>
		<defs>
			<rect id="XMLID_6_" width="174.2" height="297.5"/>
		</defs>
		<linearGradient id="XMLID_133_" gradientUnits="userSpaceOnUse" x1="206.0315" y1="29.8425" x2="-50.6065" y2="286.4805">
			<stop  offset="0" style="stop-color:#31B4ED"/>
			<stop  offset="1" style="stop-color:#FF1329"/>
		</linearGradient>
		<use xlink:href="#XMLID_6_"  style="overflow:visible;fill:url(#XMLID_133_);"/>
		<clipPath id="XMLID_134_">
			<use xlink:href="#XMLID_6_"  style="overflow:visible;"/>
		</clipPath>
		<path id="XMLID_105_" class="st1" d="M-63.2,120.8c14.8-19.3,35.8-31.1,57.1-32.2c8.1-0.4,16.5,0.7,23.6,5.4
			c7.2,4.7,13,13.5,13.6,23.7c0.6,8.6-2.5,16.9-6.1,24.2c-7.9,15.8-19,28.7-27.9,43.6c-9.4,15.9-16.4,34.5-18,54.2
			c-1.6,19.7,2.5,40.5,12.9,55.5c9.3,13.3,22.6,21.2,36.2,26.2c55.4,20.6,120.8-4.2,154.8-62.8c7.2-12.4,13.1-26.3,14.7-41.4
			c1.6-15.1-1.5-31.6-10.2-42.3c-10.9-13.5-28.2-15.4-43.3-11.4c-28.7,7.6-52.2,32.4-78.1,49.7c-11,7.3-25.6,12.9-34.9,2.6
			c-7.4-8.2-7.6-22.7-5.4-34.7c5-27.4,18.9-50.7,29.3-75.7C65.6,80.4,72.5,50,63,24.5C57.7,10.7,48.2,0.1,38.4-9
			c-3.2-2.9-6.8-7.2-5.5-11.8c0.5-2,1.9-3.4,3.3-4.6C45.5-33.7,57.5-36,69-35.3c20.7,1.3,43.3,15,48.3,40.1
			c3.2,15.8-1.4,32.6-8.4,46.3c-7.1,13.7-16.5,25.1-24.7,37.7c-9,13.7-16.5,28.9-22.2,45.1c-4.1,11.3-7.1,25.3-1.5,35.5
			c4.1,7.5,12,10.6,19.2,9.6c7.2-1,13.8-5.6,19.6-11c16.9-15.7,28.8-38.5,37.5-62.5s14.5-49.4,21.6-74.2c4.3-15.3,9.5-31,19.3-41.5
			c13.5-14.5,34.6-15.9,49.9-4.6s24.6,33.8,24.3,56.1c-0.2,18.2-7,36.9-19.4,46.4c-13,10-29.4,8.7-44.6,9.5
			c-15.3,0.9-32.5,6.2-39.6,23.2c-2.9,7.1-3.4,16.5,0.9,22.4c3.9,5.4,10.5,6.1,16.3,5.9c26.3-1,51.3-14.4,75.4-27.5
			c3.7-2,7.4-4,10.5-7.3c4.1-4.3,6.6-10.4,8.6-16.7c11.5-36.3,4.6-80.7-17-108.9c-8.7-11.4-19.5-20.1-30.7-27.2
			c-37.2-23.3-80.7-29-121.5-19.4s-79,34-111.2,66.9C-37,25.6-52.3,45.1-61.9,68.9c-1.6,4.1-2.9,9.8,0,12.7"/>
		<path id="XMLID_104_" class="st2" d="M-60.8,290.9c7.9-16.2,30.2-23.3,46-14.7c4.3,2.3,8.1,5.6,12.4,7.8c12,6.2,26.7,4,39.6-0.3
			c5.9-2,12.8-6.2,11.8-12.3c-0.8-4.5-5.6-7.1-8.1-10.9c-5.1-7.7,0.6-18.4,8.4-23.3c3.4-2.2,7.4-3.7,11.4-3.5c4,0.2,8.1,2.6,9.5,6.4
			c2.4,6.3-3,13.1-2.3,19.9c0.7,7.6,9.1,12.5,16.7,12.2c9.3-0.3,17.6-6.4,23.3-13.7c5.7-7.3,9.5-16,14-24.1
			c11.8-21.3,30.8-40.3,54.8-44.4c7.8-1.3,16.4-0.8,22.6,4.1c6.6,5.2,9.1,14.1,9.1,22.5c0.2,14.9-6,29.5-15.4,41.1
			c-9.3,11.6-6.1,35.8-19.2,42.9C131.8,323.4,67,313.3,19.3,317.8"/>
	</g>
	<g id="XMLID_1_" class="st3">
		<text id="XMLID_103_" transform="matrix(1 0 0 1 117.6062 285.7037)" class="st4 st5 st6">SPACE</text>
		<text id="XMLID_102_" transform="matrix(1 0 0 1 117.6629 271.0436)" class="st7 st8 st9">Outer</text>
	</g>
	<g>
		<path id="XMLID_101_" class="st10" d="M131.5,113l-1.5-0.6c1.9-4.8-18.7-19.3-51.4-32.5c-15-6-29.5-10.6-40.9-12.8
			c-12.6-2.5-17.9-1.3-18.7,0.5L17.6,67c1.7-4.2,12.1-3.2,20.5-1.5c11.5,2.2,26.1,6.8,41.2,12.9c15.1,6.1,28.8,12.9,38.6,19.3
			C125,102.3,133.2,108.7,131.5,113z"/>
		<path id="XMLID_100_" class="st11" d="M118.7,107.8l-2.2-0.9c0,0,0.3-2.3-10.1-8.6c-7.5-4.6-18-9.7-29.5-14.3
			c-11.5-4.6-22.5-8.2-31.1-10.1c-11.9-2.7-13.3-0.8-13.3-0.8l-2.2-0.9c2.6-6.5,32.2,3.5,47.5,9.6c11.6,4.7,22.2,9.8,29.8,14.4
			C119,103.1,119.4,106.2,118.7,107.8z"/>
		<path id="XMLID_99_" class="st12" d="M140,116.4l-0.7-0.3c2.8-6.9-24.5-24.7-59.6-38.8c-17.4-7-34.2-12.2-47.5-14.7
			c-12.9-2.4-21-1.9-22.4,1.3L9,63.6c1.5-3.7,9.7-4.3,23.3-1.8c13.3,2.5,30.2,7.7,47.7,14.7C116.7,91.3,143,108.8,140,116.4z"/>
		<g>
			<defs>
				<circle id="XMLID_7_" cx="74.5" cy="90" r="30.1"/>
			</defs>
			
				<linearGradient id="XMLID_135_" gradientUnits="userSpaceOnUse" x1="-40.2572" y1="-843.6932" x2="-77.1578" y2="-806.7926" gradientTransform="matrix(0.9275 0.3738 -0.3738 0.9275 -179.5461 877.371)">
				<stop  offset="0" style="stop-color:#FF2F36"/>
				<stop  offset="1" style="stop-color:#721473"/>
			</linearGradient>
			<use xlink:href="#XMLID_7_"  style="overflow:visible;fill:url(#XMLID_135_);"/>
			<clipPath id="XMLID_136_">
				<use xlink:href="#XMLID_7_"  style="overflow:visible;"/>
			</clipPath>
			<path id="XMLID_98_" class="st13" d="M87.2,35.6C75.7,46,67.4,60.3,65.9,75.6c-1.5,15.4,4.5,31.7,16.7,41.1
				c5.7,4.4,12.5,7.2,19.2,10.1c4.6,2,9.4,4.1,12.7,7.9c0.4,0.5,0.8,1,0.9,1.7c0.1,1.3-1.3,2.2-2.5,2.6c-7.3,2.9-15.5,2.8-23.1,0.9
				c-7.6-1.9-14.6-5.7-21.1-10.1c-11.7-7.9-22.3-18.6-26.3-32.2C38.2,82.9,42.8,66,54,55.5c3.4-3.2,7.3-5.7,11.3-8.1
				c4.9-2.9,10.1-5.4,15.4-7.5"/>
			<path id="XMLID_97_" class="st14" d="M68.7,42.3c7.7,18.2,18.1,34.2,45.3,42.2c6.4,1.9,13.4,2.5,15,2.1
				c-2.1-2.1-11.6-3.3-14.4-4.1c-21-6.2-38.7-23-46.1-43.9"/>
			<path id="XMLID_96_" class="st14" d="M64,47.1c7.7,18.2,18.1,34.2,45.3,42.2c6.4,1.9,13.4,2.5,15,2.1c-2.1-2.1-11.6-3.3-14.4-4.1
				c-21-6.2-38.7-23-46.1-43.9"/>
			<path id="XMLID_95_" class="st14" d="M59.3,52c7.7,18.2,18.1,34.2,45.3,42.2c6.4,1.9,13.4,2.5,15,2.1c-2.1-2.1-11.6-3.3-14.4-4.1
				c-21-6.2-38.7-23-46.1-43.9"/>
			<path id="XMLID_94_" class="st14" d="M54.6,56.8C62.4,75,72.8,91,100,99c6.4,1.9,13.4,2.5,15,2.1c-2.1-2.1-11.6-3.3-14.4-4.1
				c-21-6.2-38.7-23-46.1-43.9"/>
			<path id="XMLID_93_" class="st14" d="M49.9,61.6c7.7,18.2,18.1,34.2,45.3,42.2c6.4,1.9,13.4,2.5,15,2.1
				c-2.1-2.1-11.6-3.3-14.4-4.1c-21-6.2-38.7-23-46.1-43.9"/>
			<path id="XMLID_92_" class="st14" d="M45.2,66.4c7.7,18.2,18.1,34.2,45.3,42.2c6.4,1.9,13.4,2.5,15,2.1
				c-2.1-2.1-11.6-3.3-14.4-4.1c-21-6.2-38.7-23-46.1-43.9"/>
			<path id="XMLID_91_" class="st14" d="M40.5,71.3c7.7,18.2,18.1,34.2,45.3,42.2c6.4,1.9,13.4,2.5,15,2.1
				c-2.1-2.1-11.6-3.3-14.4-4.1c-21-6.2-38.7-23-46.1-43.9"/>
			<path id="XMLID_90_" class="st14" d="M35.8,76.1c7.7,18.2,18.1,34.2,45.3,42.2c6.4,1.9,13.4,2.5,15,2.1
				c-2.1-2.1-11.6-3.3-14.4-4.1c-21-6.2-38.7-23-46.1-43.9"/>
			<path id="XMLID_89_" class="st14" d="M31.1,80.9c7.7,18.2,18.1,34.2,45.3,42.2c6.4,1.9,13.4,2.5,15,2.1
				c-2.1-2.1-11.6-3.3-14.4-4.1c-21-6.2-38.7-23-46.1-43.9"/>
		</g>
		<path id="XMLID_88_" class="st12" d="M130.3,119.7c-3.6,0-8.2-0.5-13.6-1.5c-13.3-2.5-30.2-7.7-47.7-14.7C32.4,88.7,6,71.2,9,63.6
			l0.7,0.3C7,70.8,34.3,88.6,69.4,102.7c17.4,7,34.2,12.2,47.5,14.7c12.9,2.4,21,1.9,22.4-1.3l0.7,0.3
			C139.1,118.6,135.8,119.7,130.3,119.7z"/>
		<path id="XMLID_87_" class="st10" d="M123.3,115.9c-3.8,0-8.2-0.7-12.3-1.4c-11.5-2.2-26.1-6.8-41.2-12.9
			c-15.1-6.1-28.8-12.9-38.6-19.3C24.1,77.7,15.8,71.3,17.6,67l1.5,0.6C18.3,69.5,21.3,74,32.1,81c9.7,6.3,23.4,13.1,38.3,19.1
			c15,6,29.5,10.6,40.9,12.8c12.6,2.5,17.9,1.3,18.7-0.5l1.5,0.6C130.6,115.2,127.3,115.9,123.3,115.9z"/>
		<path id="XMLID_86_" class="st11" d="M113.3,110c-2.4,0-5.7-0.4-10.6-1.5c-8.7-2-19.9-5.6-31.5-10.3c-15.3-6.2-43.5-19.5-40.9-26
			l2.2,0.9c0,0-0.3,2.3,10.1,8.6c7.5,4.6,18,9.7,29.5,14.3c11.5,4.6,22.5,8.2,31.1,10.1c11.9,2.7,13.3,0.8,13.3,0.8l2.2,0.9
			C118.3,108.9,117.2,110,113.3,110z"/>
	</g>
	<g>
		<defs>
			<path id="XMLID_8_" d="M16.6,189.5c2.4,5.2,8.4,7.5,13.8,9.4c1.5,0.5,3,1,4.5,1c1.4,0,2.8-0.4,4.1-0.9c2.4-0.8,4.8-1.8,7.1-2.9
				c2-0.9,4.1-2,5.6-3.7c2.6-2.9,3.3-7,3.8-10.8c0.2-1.6,0.4-3.2-0.2-4.7c-0.7-1.6-2.2-2.7-3.4-4c-2.9-2.9-4.4-7-7.5-9.7
				c-5.3-4.6-14.6-3.2-18.3,2.7c-0.9,1.4-1.4,3-2.4,4.3c-2.5,3.3-4.9,2.7-6.7,7.2C15.6,181.3,14.8,185.6,16.6,189.5z"/>
		</defs>
		<linearGradient id="XMLID_137_" gradientUnits="userSpaceOnUse" x1="11.1593" y1="220.1792" x2="57.5343" y2="149.6613">
			<stop  offset="0" style="stop-color:#3E2C46"/>
			<stop  offset="1" style="stop-color:#5D4682"/>
		</linearGradient>
		<use xlink:href="#XMLID_8_"  style="overflow:visible;fill:url(#XMLID_137_);"/>
		<clipPath id="XMLID_138_">
			<use xlink:href="#XMLID_8_"  style="overflow:visible;"/>
		</clipPath>
		<path id="XMLID_85_" class="st15" d="M19.6,166.1c0.8,2,0.8,4.2,0.4,6.3c-0.4,2.1-1.2,4.1-1.9,6.2c-0.2,0.5-0.4,1.1-0.2,1.7
			c0.2,0.7,0.8,1.1,1.4,1.4c0.9,0.6,1.9,1.1,2.8,1.7c0.7,0.4,1.4,0.8,2.1,1c1.5,0.3,3-0.3,4.4-0.9c1.4-0.5,3.1-1,4.4-0.3
			c2.4,1.1,2.5,4.8,4.8,6c0.6,0.3,1.3,0.4,2,0.5c2.3,0.1,4.7-0.7,7-0.7c0.3,0,0.5,0,0.7,0.2c0.2,0.2,0.3,0.5,0.4,0.8
			c0.9,3.1,1.6,6.2,2.2,9.3c0.1,0.8,0.3,1.7-0.1,2.4c-0.4,0.7-1.1,1.1-1.8,1.5c-3.9,1.8-8.3,2.4-12.6,2.6c-3.5,0.2-7,0.3-10.4-0.4
			c-3.4-0.7-6.7-2.4-8.9-5.1c-1.7-2.1-2.6-4.7-3.3-7.3c-1.7-7.2-1.1-14.9,1.7-21.7"/>
		<path id="XMLID_84_" class="st15" d="M22.8,164.6c1,2.6,0.6,5.4,0.4,8.2c0,0.5,0,1,0.1,1.5c0.4,1,1.7,1.4,2.8,1.6
			c1.4,0.3,2.7,0.6,4.1,0.9c0.5,0.1,1,0.2,1.4-0.1c0.3-0.2,0.5-0.6,0.7-0.9c0.5-1,0.9-2,1.4-3c0.1-0.3,0.3-0.6,0.2-0.9
			c0-0.5-0.5-0.9-0.9-1.3c-1.7-1.5-2.2-3.9-3.3-5.9c-0.3-0.5-0.6-1-1.2-1.3c-1.3-0.7-2.8,0.4-4.3,0.5"/>
		<path id="XMLID_83_" class="st15" d="M38.8,173.1c1.7,0.8,3.5,1.4,5.3,1.8c0.2-1.3,0.5-2.6,0.7-3.9c0.2-1.3,0.5-2.8-0.3-3.9
			c-0.9-1.2-2.6-1.6-4-2.1c-1.3-0.5-2.7-0.9-3.7,0.3C34.8,167.7,36.3,171.9,38.8,173.1z"/>
		<path id="XMLID_82_" class="st15" d="M40.2,179.2c0.3,0,0.7,0,0.9-0.2c0.1-0.1,0.2-0.2,0.2-0.3c0.4-0.9-0.1-2-1-2.3
			c-0.8-0.4-2.5-0.2-2.6,1C37.7,178.2,39.4,179.1,40.2,179.2z"/>
		<path id="XMLID_81_" class="st15" d="M50.8,172.2c-0.9,1.4-2,2.6-2.9,4c-0.6,0.9-1.1,1.9-1.5,2.8c-0.1,0.2-0.2,0.5-0.2,0.7
			c0,0.5,0.3,0.9,0.6,1.3c0.8,1.1,1.3,2.4,2,3.7c0.6,1.3,1.4,2.5,2.5,3.3c1.1,0.8,2.7,1.2,3.9,0.5c0.5-0.3,1-0.8,1.4-1.2
			c0.5-0.6,1.1-1.3,1.4-2c0.4-0.9,0.5-1.9,0.5-2.9c0.2-2.4,0.2-4.7,0.3-7.1c0-1.5,0-3.1-0.7-4.4c-0.7-1.3-3.1-3.5-4.7-3.3
			c-0.9,0.1-1.1,0.8-1.3,1.5C51.8,170.2,51.5,171.2,50.8,172.2z"/>
		<path id="XMLID_80_" class="st15" d="M38.7,184.3c-0.5,0.3-1,0.9-0.8,1.4c0.1,0.4,0.6,0.6,0.9,0.7c1.4,0.4,2.8,0.8,4.2,0.9
			c0.5,0.1,1.1,0.1,1.5-0.2c0.4-0.3,0.5-0.7,0.7-1.1c0.3-1,0.4-2,0.4-3c0-0.2,0-0.3-0.1-0.4c-0.1-0.1-0.2-0.2-0.4-0.2
			C42.4,181.5,40.8,182.7,38.7,184.3z"/>
		<path id="XMLID_79_" class="st15" d="M47.8,199.1c-2.8-2.5-7.1-2-10.5-3.6c-2.8-1.3-4.8-4.1-7.6-5.6c-0.9-0.5-2-0.8-3-0.8
			c-1,0.1-2,0.5-3,0.8c-1.6,0.6-3.3,1-5,1.2c-1.7,0.2-3.6,0.2-4.9-0.8c-0.5-0.3-1-0.8-1.5-0.6c0.2,2.3,1,4.6,2.5,6.3
			c1.6,1.9,3.7,3.3,6.1,4.2c2.3,0.9,4.8,1.3,7.3,1.5c5.9,0.6,12.1,0.4,17.7-1.7"/>
	</g>
	<g>
		<defs>
			<path id="XMLID_10_" d="M29.2,215.1c-1.1,1.6-1.7,3.6-1.3,5.5c0.6,2.7,3.2,4.5,5.5,6c1.2,0.8,2.5,1.6,3.9,2
				c1.4,0.4,3,0.4,4.2-0.4c0.9-0.6,1.5-1.5,2.3-2.3c1.2-1.2,2.6-1.9,4-2.9c1.3-1,2.5-2.3,2.7-4c0.1-1.5-0.6-2.9-0.9-4.3
				c-0.1-0.6-0.1-1.3-0.3-1.9c-0.8-3-4.2-4.3-7.2-5.1c-0.6-0.2-1.1-0.3-1.7-0.2c-1,0.3-1.5,1.4-2.2,2.2c-1.5,1.7-3,0.8-4.7,1.3
				C31.8,211.5,30.1,213.8,29.2,215.1z"/>
		</defs>
		<linearGradient id="XMLID_139_" gradientUnits="userSpaceOnUse" x1="29.9597" y1="232.543" x2="76.3347" y2="162.0249">
			<stop  offset="0" style="stop-color:#3E2C46"/>
			<stop  offset="1" style="stop-color:#5D4682"/>
		</linearGradient>
		<use xlink:href="#XMLID_10_"  style="overflow:visible;fill:url(#XMLID_139_);"/>
		<clipPath id="XMLID_140_">
			<use xlink:href="#XMLID_10_"  style="overflow:visible;"/>
		</clipPath>
		<path id="XMLID_78_" class="st16" d="M32.9,205.9c-0.7,2.3-1.4,4.6-2.1,6.8c-0.3,1.1-0.7,2.2-0.5,3.4c0.3,2.1,2.2,3.5,3.8,4.7
			c0.3,0.2,0.7,0.5,1.1,0.5c0.9,0.1,1.6-0.9,1.9-1.8c0.2-0.9,0.3-1.9,0.9-2.6c0.6-0.7,1.8-0.9,2.5-0.4c0.8,0.5,1.1,1.6,0.8,2.4
			c-0.4,1-1.7,2.1-1,3c0.1,0.2,0.3,0.3,0.6,0.4c1.7,0.6,3.6-0.9,4-2.6c0.5-1.7-0.1-3.6-0.6-5.3c2-2.3,4-4.6,6.1-6.8
			c1.4,3.7,2.7,7.5,3.8,11.3c0.3,1.1,0.7,2.3,0.5,3.4c-0.3,2.2-2.4,3.6-4.3,4.7c-4.9,2.8-10.2,4.9-15.7,6.3c-1.7,0.4-3.5,0.8-5.1,0
			c-1-0.5-1.7-1.4-2.3-2.3c-1.1-1.5-2.3-3.1-2.8-4.9c-1-3.1-0.2-6.5,1.1-9.5c1.3-3,3.1-5.8,4.3-8.8"/>
		<path id="XMLID_74_" class="st16" d="M38,213.1c-0.1,0.1-0.2,0.2-0.2,0.4c0,0.2,0.1,0.3,0.3,0.4c0.7,0.6,1.8,1.2,2.5,0.7
			c0.3-0.2,0.5-0.6,0.7-0.9c0.9-1.8,2.2-3.1,3.4-4.7c0.8-1,1.4-1.2-0.1-1.7C41.6,206.3,39.6,211.5,38,213.1z"/>
	</g>
	<g>
		<defs>
			<path id="XMLID_76_" d="M108,39.7c-1.8,0.9-3.3,2.3-3.9,4.2c-0.8,2.7,0.5,5.5,1.8,7.9c0.7,1.3,1.4,2.6,2.4,3.7
				c1,1.1,2.4,1.8,3.9,1.8c1.1,0,2.1-0.5,3.1-0.8c1.6-0.4,3.3-0.3,4.9-0.5c1.6-0.2,3.3-0.8,4.3-2.1c0.9-1.2,0.9-2.8,1.4-4.2
				c0.2-0.6,0.5-1.2,0.7-1.8c0.8-3-1.5-5.8-3.7-8c-0.4-0.4-0.8-0.9-1.4-1c-1-0.3-2,0.5-3,0.8c-2.1,0.7-3-0.8-4.8-1.2
				C112.1,37.9,109.5,39,108,39.7z"/>
		</defs>
		
			<linearGradient id="XMLID_141_" gradientUnits="userSpaceOnUse" x1="-237.1514" y1="-1260.301" x2="-190.7775" y2="-1330.8171" gradientTransform="matrix(0.8664 0.4994 -0.4994 0.8664 -323.9311 1265.5669)">
			<stop  offset="0" style="stop-color:#3E2C46"/>
			<stop  offset="1" style="stop-color:#5D4682"/>
		</linearGradient>
		<use xlink:href="#XMLID_76_"  style="overflow:visible;fill:url(#XMLID_141_);"/>
		<clipPath id="XMLID_142_">
			<use xlink:href="#XMLID_76_"  style="overflow:visible;"/>
		</clipPath>
		<path id="XMLID_73_" class="st17" d="M115.9,33.6c-1.7,1.6-3.5,3.3-5.2,4.9c-0.8,0.8-1.7,1.6-2.1,2.7c-0.8,1.9,0.1,4.1,1,6
			c0.2,0.4,0.4,0.8,0.7,1c0.8,0.6,1.8,0,2.5-0.6c0.7-0.7,1.2-1.5,2.1-1.8c0.9-0.3,1.9,0.1,2.4,1c0.4,0.8,0.2,1.9-0.5,2.5
			c-0.9,0.7-2.5,1-2.3,2.1c0,0.2,0.2,0.4,0.3,0.6c1.2,1.4,3.5,1,4.8-0.3c1.3-1.3,1.7-3.1,2.1-4.9c2.9-1,5.8-1.9,8.7-2.9
			c-0.7,3.9-1.5,7.9-2.3,11.7c-0.3,1.1-0.5,2.3-1.3,3.2c-1.4,1.7-3.9,1.9-6.1,1.9c-5.7-0.1-11.3-0.9-16.8-2.4
			c-1.7-0.5-3.5-1.1-4.4-2.5c-0.6-0.9-0.8-2-0.9-3.1c-0.2-1.9-0.4-3.8,0-5.7c0.7-3.2,3.1-5.7,5.7-7.7c2.6-1.9,5.5-3.4,8.1-5.5"/>
		<path id="XMLID_72_" class="st17" d="M116.7,42.4c-0.2,0-0.3,0.1-0.4,0.2c-0.1,0.1,0,0.3,0,0.5c0.3,0.9,0.9,1.9,1.9,1.9
			c0.4,0,0.7-0.2,1-0.5c1.7-1.1,3.5-1.6,5.3-2.4c1.2-0.5,1.8-0.4,0.8-1.5C123.2,38.2,118.8,41.8,116.7,42.4z"/>
	</g>
	<g>
		<defs>
			<path id="XMLID_9_" d="M7.9,210c-0.1,0.3-0.3,0.7-0.2,1c0,0.4,0.3,0.7,0.5,1c0.8,1.1,1.8,2,2.9,2.9c1,0.8,2.1,1.7,3.4,1.6
				c1.5-0.1,2.8-1.4,3.2-2.9s0.1-3.1-0.4-4.5c-0.1-0.5-0.3-0.9-0.6-1.3c-0.7-1.1-2.1-1.5-3.3-1.8C10.3,205.2,9,207.3,7.9,210z"/>
		</defs>
		<linearGradient id="XMLID_143_" gradientUnits="userSpaceOnUse" x1="8.4273" y1="218.3826" x2="54.8023" y2="147.8646">
			<stop  offset="0" style="stop-color:#3E2C46"/>
			<stop  offset="1" style="stop-color:#5D4682"/>
		</linearGradient>
		<use xlink:href="#XMLID_9_"  style="overflow:visible;fill:url(#XMLID_143_);"/>
		<clipPath id="XMLID_144_">
			<use xlink:href="#XMLID_9_"  style="overflow:visible;"/>
		</clipPath>
		<path id="XMLID_71_" class="st18" d="M11.1,199.2c-1,1.7-1.7,3.5-2,5.4c-0.2,0.9-0.3,1.9,0,2.9c0.3,1,1,1.9,1.6,2.7
			c0.7,0.8,1.4,1.7,2.5,1.9c2,0.4,3.6-2,5.6-2.3c0.3,0,0.6,0,0.8,0.1c0.2,0.1,0.4,0.4,0.5,0.6c0.7,1.3,1.1,2.8,1,4.4
			c0,0.5-0.1,1-0.4,1.3c-0.3,0.4-0.7,0.6-1.2,0.8c-1.4,0.6-2.9,1.1-4.3,1.4c-0.9,0.2-1.9,0.4-2.9,0.1c-0.9-0.2-1.7-0.9-2.3-1.5
			c-2.6-2.8-3.2-7.2-1.6-10.7"/>
	</g>
	<g>
		<defs>
			<path id="XMLID_77_" d="M133.8,46.5c-0.1,0.3-0.3,0.7-0.2,1c0,0.4,0.3,0.7,0.5,1c0.8,1.1,1.8,2,2.9,2.9c1,0.8,2.1,1.7,3.4,1.6
				c1.5-0.1,2.8-1.4,3.2-2.9c0.4-1.5,0.1-3.1-0.4-4.5c-0.1-0.5-0.3-0.9-0.6-1.3c-0.7-1.1-2.1-1.5-3.3-1.8
				C136.2,41.8,134.9,43.9,133.8,46.5z"/>
		</defs>
		<linearGradient id="XMLID_145_" gradientUnits="userSpaceOnUse" x1="134.2843" y1="54.9286" x2="180.6596" y2="-15.5897">
			<stop  offset="0" style="stop-color:#3E2C46"/>
			<stop  offset="1" style="stop-color:#5D4682"/>
		</linearGradient>
		<use xlink:href="#XMLID_77_"  style="overflow:visible;fill:url(#XMLID_145_);"/>
		<clipPath id="XMLID_146_">
			<use xlink:href="#XMLID_77_"  style="overflow:visible;"/>
		</clipPath>
		<path id="XMLID_70_" class="st19" d="M137,35.7c-1,1.7-1.7,3.5-2,5.4c-0.2,0.9-0.3,1.9,0,2.9c0.3,1,1,1.9,1.6,2.7
			c0.7,0.8,1.4,1.7,2.5,1.9c2,0.4,3.6-2,5.6-2.3c0.3,0,0.6,0,0.8,0.1c0.2,0.1,0.4,0.4,0.5,0.6c0.7,1.3,1.1,2.9,1,4.4
			c0,0.5-0.1,1-0.4,1.3c-0.3,0.4-0.7,0.6-1.2,0.8c-1.4,0.6-2.9,1.1-4.3,1.4c-0.9,0.2-1.9,0.4-2.9,0.1c-0.9-0.2-1.7-0.9-2.3-1.5
			c-2.6-2.8-3.2-7.2-1.6-10.7"/>
	</g>
	<g>
		<defs>
			<path id="XMLID_12_" d="M59.3,192.9c-0.6,0.9-1.1,1.9-1.3,3c-0.2,1.5,0.3,3.1,1.4,4.2c1,1.1,2.5,1.9,4,2.1
				c0.6,0.1,1.3,0.1,1.9-0.1c0.6-0.2,1.1-0.7,1.5-1.2c1.7-2,2.5-4.7,3.3-7.3c0.2-0.8,0.4-1.5,0.7-2.3c0.1-0.3,0.1-0.5,0.1-0.8
				c0-0.4-0.3-0.8-0.6-1C66.3,186,61.7,189.5,59.3,192.9z"/>
		</defs>
		<linearGradient id="XMLID_147_" gradientUnits="userSpaceOnUse" x1="57.9954" y1="195.2217" x2="70.7636" y2="195.2217">
			<stop  offset="0" style="stop-color:#3E2C46"/>
			<stop  offset="1" style="stop-color:#5D4682"/>
		</linearGradient>
		<use xlink:href="#XMLID_12_"  style="overflow:visible;fill:url(#XMLID_147_);"/>
		<clipPath id="XMLID_148_">
			<use xlink:href="#XMLID_12_"  style="overflow:visible;"/>
		</clipPath>
		<path id="XMLID_69_" class="st20" d="M63.4,184.9c-1.2,0.9-2.1,2.2-2.4,3.6c-0.3,1.4-0.1,3,0.9,4.1c0.5,0.5,1.1,1,1.2,1.7
			c-1.1,0.9-2.6,1.1-3.9,0.7c-0.7-0.9-0.6-2-0.5-3.1c0.2-1.8,1.4-4.3,2.7-5.6c-1.5,1.6-2.6,3.5-3.2,5.6c-0.5,1.8-0.5,3.7,0.4,5.3
			c0.9,1.6,3,2.5,4.6,1.7c0.9-0.4,1.5-1.2,2.4-1.6c0.4-0.2,0.8-0.3,0.9-0.7c0.1-0.2,0-0.4,0-0.6c-0.2-0.8-0.7-1.6-1.4-2.1
			c-0.3-0.2-0.6-0.4-0.6-0.7c0-0.4,0.4-0.7,0.8-0.9c1.6-0.8,3.4-1.4,5.2-1.8c0.3-0.1,0.7-0.1,1,0c0.3,0.1,0.5,0.3,0.7,0.6
			c0.9,1.2,1.2,2.9,1.1,4.4c-0.2,1.6-0.7,3-1.4,4.5c-0.6,1.2-1.2,2.4-2.3,3.1c-1.1,0.8-2.6,1-3.9,1.1c-3.1,0.1-6.2-0.6-9.3-1.3
			c-0.2,0-0.4-0.1-0.5-0.2c-0.1-0.2-0.1-0.4-0.1-0.6c0.2-4,1.4-8,3.4-11.5"/>
	</g>
	<g>
		<defs>
			<path id="XMLID_75_" d="M142.4,62.1c-1.1,0.2-2.2,0.5-3,1.1c-1.2,0.9-2,2.4-2.1,3.9c-0.1,1.5,0.4,3.1,1.2,4.3
				c0.4,0.5,0.8,1,1.4,1.3c0.6,0.3,1.2,0.3,1.9,0.3c2.7-0.2,5.1-1.5,7.5-2.7c0.7-0.4,1.4-0.7,2.1-1.1c0.2-0.1,0.5-0.3,0.6-0.5
				c0.3-0.3,0.3-0.8,0.3-1.2C152.2,62.3,146.5,61.4,142.4,62.1z"/>
		</defs>
		
			<linearGradient id="XMLID_149_" gradientUnits="userSpaceOnUse" x1="-655.4042" y1="-1833.2286" x2="-642.6364" y2="-1833.2286" gradientTransform="matrix(0.6945 0.7195 -0.7195 0.6945 -724.0044 1807.4905)">
			<stop  offset="0" style="stop-color:#3E2C46"/>
			<stop  offset="1" style="stop-color:#5D4682"/>
		</linearGradient>
		<use xlink:href="#XMLID_75_"  style="overflow:visible;fill:url(#XMLID_149_);"/>
		<clipPath id="XMLID_150_">
			<use xlink:href="#XMLID_75_"  style="overflow:visible;"/>
		</clipPath>
		<path id="XMLID_68_" class="st21" d="M151,59.5c-1.5-0.2-3,0-4.3,0.7c-1.3,0.7-2.2,2.1-2.3,3.5c-0.1,0.7,0.1,1.5-0.4,2
			c-1.4-0.2-2.6-1.1-3.2-2.4c0.1-1.1,1.1-1.9,1.9-2.5c1.4-1.1,4.1-2,5.9-2c-2.2,0-4.3,0.6-6.2,1.6c-1.6,0.9-3,2.2-3.5,4
			c-0.5,1.7,0.3,3.9,2,4.5c0.9,0.3,1.9,0.2,2.8,0.6c0.4,0.2,0.8,0.4,1.1,0.2c0.2-0.1,0.3-0.3,0.4-0.4c0.4-0.8,0.6-1.6,0.5-2.5
			c0-0.3-0.1-0.7,0.1-0.9c0.3-0.3,0.8-0.2,1.2-0.1c1.7,0.6,3.4,1.5,4.9,2.5c0.3,0.2,0.5,0.4,0.7,0.7c0.1,0.3,0.1,0.6,0.1,0.9
			c-0.2,1.5-1.2,2.9-2.4,3.9c-1.2,1-2.7,1.6-4.2,2.1c-1.2,0.4-2.6,0.8-3.8,0.5c-1.4-0.3-2.5-1.1-3.5-2.1c-2.2-2.2-3.9-4.9-5.5-7.6
			c-0.1-0.2-0.2-0.3-0.2-0.5c0-0.2,0.2-0.4,0.4-0.5c3-2.7,6.7-4.6,10.7-5.6"/>
	</g>
	<g>
		<circle id="XMLID_67_" class="st22" cx="90" cy="233.6" r="1.8"/>
		<circle id="XMLID_66_" class="st22" cx="19.3" cy="20.8" r="1.8"/>
		<circle id="XMLID_65_" class="st22" cx="134.5" cy="139" r="1.8"/>
		<circle id="XMLID_64_" class="st22" cx="146.5" cy="11.1" r="1.8"/>
		<circle id="XMLID_63_" class="st22" cx="69" cy="6" r="1.8"/>
		<circle id="XMLID_62_" class="st22" cx="12.1" cy="261.1" r="1.8"/>
		<circle id="XMLID_61_" class="st22" cx="105.9" cy="208.3" r="0.4"/>
		<circle id="XMLID_60_" class="st22" cx="164.9" cy="180.2" r="0.4"/>
		<circle id="XMLID_59_" class="st22" cx="32.6" cy="42.4" r="0.4"/>
		<circle id="XMLID_58_" class="st22" cx="19.7" cy="245" r="0.4"/>
		<circle id="XMLID_57_" class="st22" cx="98.1" cy="130.4" r="0.4"/>
		<circle id="XMLID_56_" class="st22" cx="97.7" cy="207.4" r="0.4"/>
		<circle id="XMLID_55_" class="st22" cx="11.9" cy="271.4" r="0.4"/>
		<circle id="XMLID_54_" class="st22" cx="164.2" cy="134.4" r="0.4"/>
		<circle id="XMLID_53_" class="st22" cx="169.4" cy="42.7" r="0.4"/>
		<circle id="XMLID_52_" class="st22" cx="148.3" cy="24.4" r="0.4"/>
		<circle id="XMLID_51_" class="st22" cx="97" cy="17.5" r="0.4"/>
		<circle id="XMLID_50_" class="st22" cx="161.5" cy="154.5" r="0.4"/>
		<circle id="XMLID_49_" class="st22" cx="123.4" cy="17.9" r="0.4"/>
		<circle id="XMLID_48_" class="st22" cx="84.1" cy="42.7" r="0.4"/>
		<circle id="XMLID_47_" class="st22" cx="97.4" cy="28.7" r="0.4"/>
		<circle id="XMLID_46_" class="st22" cx="32.2" cy="136.4" r="0.4"/>
		<circle id="XMLID_45_" class="st22" cx="84.1" cy="20.8" r="0.4"/>
		<circle id="XMLID_44_" class="st22" cx="15.6" cy="112.3" r="0.4"/>
		<circle id="XMLID_43_" class="st22" cx="123.1" cy="77.3" r="0.4"/>
		<circle id="XMLID_42_" class="st22" cx="22.6" cy="129.4" r="0.4"/>
		<circle id="XMLID_41_" class="st22" cx="15.2" cy="137.2" r="0.4"/>
		<circle id="XMLID_40_" class="st22" cx="6.9" cy="184.5" r="0.4"/>
		<circle id="XMLID_39_" class="st22" cx="137.3" cy="175.4" r="0.4"/>
		<circle id="XMLID_38_" class="st22" cx="123.1" cy="189.8" r="0.4"/>
		<circle id="XMLID_37_" class="st22" cx="109.4" cy="151.5" r="0.4"/>
		<circle id="XMLID_36_" class="st22" cx="80.6" cy="151.5" r="0.4"/>
		<circle id="XMLID_35_" class="st22" cx="123.4" cy="164.3" r="0.4"/>
		<circle id="XMLID_34_" class="st22" cx="112.8" cy="216.4" r="0.4"/>
		<circle id="XMLID_33_" class="st22" cx="51.7" cy="31.1" r="0.4"/>
		<circle id="XMLID_32_" class="st22" cx="90.8" cy="201.2" r="0.8"/>
		<circle id="XMLID_31_" class="st22" cx="90" cy="157.3" r="0.8"/>
		<circle id="XMLID_30_" class="st22" cx="39.2" cy="47.8" r="0.8"/>
		<circle id="XMLID_29_" class="st22" cx="44.9" cy="38.2" r="0.8"/>
		<circle id="XMLID_28_" class="st22" cx="24.6" cy="258.8" r="0.8"/>
		<circle id="XMLID_27_" class="st22" cx="12.8" cy="172.7" r="0.8"/>
		<circle id="XMLID_26_" class="st22" cx="115.3" cy="81.5" r="0.8"/>
		<circle id="XMLID_25_" class="st22" cx="141.9" cy="189.8" r="0.8"/>
		<circle id="XMLID_24_" class="st22" cx="95.7" cy="257.9" r="0.8"/>
		<circle id="XMLID_23_" class="st22" cx="161.1" cy="76.4" r="0.8"/>
		<circle id="XMLID_22_" class="st22" cx="131.9" cy="159.8" r="0.8"/>
		<circle id="XMLID_21_" class="st22" cx="123.1" cy="67.5" r="0.8"/>
		<circle id="XMLID_20_" class="st22" cx="142.7" cy="27.9" r="0.8"/>
		<circle id="XMLID_19_" class="st22" cx="91.6" cy="22.5" r="0.8"/>
		<circle id="XMLID_18_" class="st22" cx="141.1" cy="154.5" r="0.8"/>
		<circle id="XMLID_17_" class="st22" cx="38.4" cy="5.2" r="0.8"/>
		<circle id="XMLID_16_" class="st22" cx="53.3" cy="45.9" r="0.8"/>
		<circle id="XMLID_15_" class="st22" cx="52.5" cy="127.9" r="0.8"/>
		<circle id="XMLID_14_" class="st22" cx="7.7" cy="127.1" r="0.8"/>
		<path id="XMLID_13_" class="st22" d="M80.6,214.3L80.6,214.3c0-1.9-1.6-3.5-3.5-3.5l0,0c1.9,0,3.5-1.6,3.5-3.5l0,0
			c0,1.9,1.6,3.5,3.5,3.5l0,0C82.1,210.8,80.6,212.4,80.6,214.3z"/>
		<path id="XMLID_11_" class="st22" d="M154.3,88.5L154.3,88.5c0-1.9-1.6-3.5-3.5-3.5l0,0c1.9,0,3.5-1.6,3.5-3.5l0,0
			c0,1.9,1.6,3.5,3.5,3.5l0,0C155.9,85,154.3,86.6,154.3,88.5z"/>
		<path id="XMLID_5_" class="st22" d="M12.8,45.9L12.8,45.9c0-1.9-1.6-3.5-3.5-3.5l0,0c1.9,0,3.5-1.6,3.5-3.5l0,0
			c0,1.9,1.6,3.5,3.5,3.5l0,0C14.3,42.4,12.8,43.9,12.8,45.9z"/>
		<path id="XMLID_4_" class="st22" d="M35.7,31.4L35.7,31.4c0-1.9-1.6-3.5-3.5-3.5l0,0c1.9,0,3.5-1.6,3.5-3.5l0,0
			c0,1.9,1.6,3.5,3.5,3.5l0,0C37.2,27.9,35.7,29.4,35.7,31.4z"/>
		<path id="XMLID_3_" class="st22" d="M24.6,274.5L24.6,274.5c0-1.9-1.6-3.5-3.5-3.5l0,0c1.9,0,3.5-1.6,3.5-3.5l0,0
			c0,1.9,1.6,3.5,3.5,3.5l0,0C26.2,271,24.6,272.6,24.6,274.5z"/>
	</g>
</g>
</svg>
