<?xml version="1.0" encoding="utf-8"?>
<!-- Generator: Adobe Illustrator 19.0.0, SVG Export Plug-In . SVG Version: 6.00 Build 0)  -->
<svg version="1.1" xmlns="http://www.w3.org/2000/svg" xmlns:xlink="http://www.w3.org/1999/xlink" x="0px" y="0px"
	 viewBox="0 0 500 500" style="enable-background:new 0 0 500 500;" xml:space="preserve" preserveAspectRatio="none">
<style type="text/css">
	.st0{fill:url(#SVGID_1_);}
	.st1{fill:url(#SVGID_2_);}
	.st2{display:none;fill:url(#SVGID_3_);}
	.st3{fill:#FFFFFF;}
	.st4{fill:url(#SVGID_4_);}
	.st5{fill:#1C2D4F;}
	.st6{fill:#1F3157;}
	.st7{fill:url(#SVGID_5_);}
	.st8{fill:url(#SVGID_6_);}
	.st9{fill:url(#SVGID_7_);}
	.st10{fill:url(#SVGID_8_);}
	.st11{fill:url(#SVGID_9_);}
	.st12{fill:url(#SVGID_10_);}
	.st13{display:none;}
	.st14{display:inline;}
	.st15{fill:#172440;}
	.st16{display:inline;opacity:0.5;fill:url(#SVGID_11_);}
	.st17{display:inline;opacity:0.7;fill:url(#SVGID_12_);}
	.st18{fill:#637294;}
	.st19{fill:#49546E;}
	.st20{fill:url(#SVGID_13_);}
	.st21{fill:url(#SVGID_14_);}
	.st22{fill:url(#SVGID_15_);}
	.st23{fill:#97A2BD;}
	.st24{fill:#3C82CF;}
	.st25{fill:#31A988;}
	.st26{fill:#FF9C24;}
	.st27{fill:#24D0FF;}
	.st28{fill:#1FD96C;}
	.st29{fill:#FFD324;}
	.st30{opacity:0.4;fill:#FFFFFF;}
</style>
<g id="BACKGROUND">
	<radialGradient id="SVGID_1_" cx="105.3329" cy="99.3337" r="179.8611" gradientUnits="userSpaceOnUse">
		<stop  offset="0" style="stop-color:#40677D"/>
		<stop  offset="6.834584e-002" style="stop-color:#3E637B"/>
		<stop  offset="0.6648" style="stop-color:#2B456A"/>
		<stop  offset="1" style="stop-color:#243964"/>
	</radialGradient>
	<rect x="0" y="0" class="st0" width="500" height="500"/>
	<linearGradient id="SVGID_2_" gradientUnits="userSpaceOnUse" x1="338.3616" y1="463.2719" x2="199.6953" y2="202.6048">
		<stop  offset="0" style="stop-color:#367685"/>
		<stop  offset="0.2544" style="stop-color:#30637B;stop-opacity:0.7456"/>
		<stop  offset="0.7317" style="stop-color:#27456A;stop-opacity:0.2683"/>
		<stop  offset="1" style="stop-color:#243964;stop-opacity:0"/>
	</linearGradient>
	<rect x="0" y="94.3" class="st1" width="500" height="405.7"/>
	<radialGradient id="SVGID_3_" cx="101.2505" cy="101.2256" r="68.5632" gradientUnits="userSpaceOnUse">
		<stop  offset="0" style="stop-color:#FFFFF0"/>
		<stop  offset="0.478" style="stop-color:#FCFCDE"/>
		<stop  offset="1" style="stop-color:#F9F7C5"/>
	</radialGradient>
	<circle class="st2" cx="101.3" cy="101.2" r="38.9"/>
</g>
<g id="OBJECTS">
	<g>
		<circle class="st3" cx="19" cy="312.3" r="0.5"/>
		<circle class="st3" cx="20.4" cy="369.3" r="0.5"/>
		<circle class="st3" cx="35.8" cy="362.6" r="0.5"/>
		<circle class="st3" cx="50.7" cy="355.5" r="0.6"/>
		<circle class="st3" cx="64" cy="369.8" r="0.6"/>
		<circle class="st3" cx="87.3" cy="343" r="0.5"/>
		<circle class="st3" cx="101.6" cy="346.3" r="0.5"/>
		<circle class="st3" cx="116.5" cy="347" r="0.6"/>
		<circle class="st3" cx="136.1" cy="325.1" r="0.6"/>
		<circle class="st3" cx="148.6" cy="334.2" r="0.6"/>
		<circle class="st3" cx="157.5" cy="372.4" r="0.5"/>
		<circle class="st3" cx="170.6" cy="381.4" r="0.5"/>
		<circle class="st3" cx="191.6" cy="341" r="0.6"/>
		<circle class="st3" cx="204.6" cy="350" r="0.6"/>
		<circle class="st3" cx="218.7" cy="352.4" r="0.6"/>
		<circle class="st3" cx="230.4" cy="370.8" r="0.5"/>
		<circle class="st3" cx="247.6" cy="356.6" r="0.6"/>
		<circle class="st3" cx="262.3" cy="354" r="0.6"/>
		<circle class="st3" cx="276.7" cy="356.7" r="0.5"/>
		<circle class="st3" cx="288.3" cy="378" r="0.6"/>
		<circle class="st3" cx="304.3" cy="365.7" r="0.5"/>
		<circle class="st3" cx="316.8" cy="379.2" r="0.5"/>
		<circle class="st3" cx="331.9" cy="376.4" r="0.5"/>
		<circle class="st3" cx="349.4" cy="349.6" r="0.4"/>
		<circle class="st3" cx="364.2" cy="349" r="0.6"/>
		<circle class="st3" cx="375.8" cy="376" r="0.6"/>
		<circle class="st3" cx="390.6" cy="375.7" r="0.5"/>
		<circle class="st3" cx="402.9" cy="390.7" r="0.6"/>
		<circle class="st3" cx="419.3" cy="379.3" r="0.5"/>
		<circle class="st3" cx="431.3" cy="401.1" r="0.5"/>
		<circle class="st3" cx="448.4" cy="385.8" r="0.5"/>
		<circle class="st3" cx="462.8" cy="388.4" r="0.5"/>
		<circle class="st3" cx="30.4" cy="260.2" r="0.5"/>
		<circle class="st3" cx="46.5" cy="257.9" r="0.5"/>
		<circle class="st3" cx="57.2" cy="272.5" r="0.6"/>
		<circle class="st3" cx="130.5" cy="252.2" r="0.5"/>
		<circle class="st3" cx="85.3" cy="280.3" r="0.5"/>
		<circle class="st3" cx="97.1" cy="291.3" r="0.5"/>
		<circle class="st3" cx="140.2" cy="273.1" r="0.6"/>
		<circle class="st3" cx="122" cy="306.6" r="0.6"/>
		<circle class="st3" cx="331.3" cy="86.9" r="0.6"/>
		<circle class="st3" cx="344.6" cy="92.4" r="0.6"/>
		<circle class="st3" cx="361.6" cy="88.8" r="0.6"/>
		<circle class="st3" cx="172" cy="363.2" r="0.6"/>
		<circle class="st3" cx="196.4" cy="315.8" r="0.5"/>
		<circle class="st3" cx="210.9" cy="317.9" r="0.5"/>
		<circle class="st3" cx="221.5" cy="332.7" r="0.5"/>
		<circle class="st3" cx="239.5" cy="322.3" r="0.5"/>
		<circle class="st3" cx="248.6" cy="345.1" r="0.5"/>
		<circle class="st3" cx="267.8" cy="331" r="0.5"/>
		<circle class="st3" cx="280.2" cy="341.6" r="0.5"/>
		<circle class="st3" cx="298.2" cy="331.5" r="0.5"/>
		<circle class="st3" cx="306" cy="357.6" r="0.6"/>
		<circle class="st3" cx="318.5" cy="366.4" r="0.6"/>
		<circle class="st3" cx="334.6" cy="362.1" r="0.5"/>
		<circle class="st3" cx="351.4" cy="342.7" r="0.5"/>
		<circle class="st3" cx="368.5" cy="334.6" r="0.4"/>
		<circle class="st3" cx="372.3" cy="383.8" r="0.6"/>
		<circle class="st3" cx="394.6" cy="362.4" r="0.6"/>
		<circle class="st3" cx="407.2" cy="371.5" r="0.4"/>
		<circle class="st3" cx="29.4" cy="107.4" r="0.6"/>
		<circle class="st3" cx="16.5" cy="91.2" r="0.6"/>
		<circle class="st3" cx="9" cy="76.1" r="0.6"/>
		<circle class="st3" cx="14.4" cy="60.6" r="0.5"/>
		<circle class="st3" cx="30.9" cy="52.3" r="0.6"/>
		<circle class="st3" cx="30.4" cy="33.2" r="0.5"/>
		<circle class="st3" cx="42.8" cy="20" r="0.5"/>
		<circle class="st3" cx="451.8" cy="290.2" r="0.6"/>
		<circle class="st3" cx="462.9" cy="275.3" r="0.6"/>
		<circle class="st3" cx="477.5" cy="276.9" r="0.5"/>
		<circle class="st3" cx="103.8" cy="22.2" r="0.6"/>
		<circle class="st3" cx="119.4" cy="11.7" r="0.4"/>
		<circle class="st3" cx="131.1" cy="34.9" r="0.6"/>
		<circle class="st3" cx="147.8" cy="23.7" r="0.6"/>
		<circle class="st3" cx="161.5" cy="28" r="0.6"/>
		<circle class="st3" cx="176.3" cy="25" r="0.5"/>
		<circle class="st3" cx="189" cy="45" r="0.6"/>
		<circle class="st3" cx="205.4" cy="29.7" r="0.5"/>
		<circle class="st3" cx="223.4" cy="54.2" r="0.5"/>
		<circle class="st3" cx="237.8" cy="44" r="0.6"/>
		<circle class="st3" cx="251.9" cy="47.1" r="0.6"/>
		<circle class="st3" cx="262.5" cy="33.1" r="0.6"/>
		<circle class="st3" cx="277.5" cy="38.5" r="0.6"/>
		<circle class="st3" cx="292.4" cy="37.4" r="0.6"/>
		<circle class="st3" cx="308.2" cy="23.1" r="0.6"/>
		<circle class="st3" cx="320.1" cy="49.6" r="0.5"/>
		<circle class="st3" cx="336.5" cy="32.7" r="0.6"/>
		<circle class="st3" cx="347.1" cy="54" r="0.6"/>
		<circle class="st3" cx="361.8" cy="55.9" r="0.5"/>
		<circle class="st3" cx="375.2" cy="61.1" r="0.5"/>
		<circle class="st3" cx="397.1" cy="37.3" r="0.5"/>
		<circle class="st3" cx="410.1" cy="45.8" r="0.5"/>
		<circle class="st3" cx="421.1" cy="58.8" r="0.6"/>
		<circle class="st3" cx="467.6" cy="12.6" r="0.6"/>
		<circle class="st3" cx="467.4" cy="33.1" r="0.5"/>
		<circle class="st3" cx="441.7" cy="96" r="0.5"/>
		<circle class="st3" cx="468.5" cy="97.8" r="0.5"/>
		<circle class="st3" cx="452.8" cy="117.7" r="0.6"/>
		<circle class="st3" cx="467.5" cy="129.2" r="0.5"/>
		<circle class="st3" cx="471.2" cy="143.5" r="0.4"/>
		<circle class="st3" cx="461.1" cy="158.5" r="0.5"/>
		<circle class="st3" cx="423.7" cy="144.5" r="0.6"/>
		<circle class="st3" cx="420" cy="158.8" r="0.6"/>
		<circle class="st3" cx="413.4" cy="172.6" r="0.6"/>
		<circle class="st3" cx="456.5" cy="214.9" r="0.5"/>
		<circle class="st3" cx="453.5" cy="229.2" r="0.5"/>
		<circle class="st3" cx="430.8" cy="232.4" r="0.6"/>
		<circle class="st3" cx="424.9" cy="246.1" r="0.6"/>
		<circle class="st3" cx="416.8" cy="254.9" r="0.5"/>
		<circle class="st3" cx="405.9" cy="265" r="0.6"/>
		<circle class="st3" cx="405.1" cy="290.3" r="0.5"/>
		<circle class="st3" cx="384.1" cy="278" r="0.6"/>
		<circle class="st3" cx="374" cy="296.2" r="0.6"/>
		<circle class="st3" cx="359.4" cy="298.7" r="0.5"/>
		<circle class="st3" cx="343.7" cy="305.1" r="0.5"/>
		<circle class="st3" cx="329.7" cy="282.1" r="0.6"/>
		<circle class="st3" cx="315.4" cy="283.3" r="0.5"/>
		<circle class="st3" cx="298.5" cy="300.8" r="0.6"/>
		<circle class="st3" cx="283.7" cy="294.9" r="0.6"/>
		<circle class="st3" cx="270.8" cy="287.1" r="0.5"/>
		<circle class="st3" cx="254" cy="296.6" r="0.6"/>
		<circle class="st3" cx="239.8" cy="294.5" r="0.6"/>
		<circle class="st3" cx="226.8" cy="283.2" r="0.5"/>
		<circle class="st3" cx="216.4" cy="268.9" r="0.6"/>
		<circle class="st3" cx="207.2" cy="252.7" r="0.4"/>
		<circle class="st3" cx="194.6" cy="247.5" r="0.5"/>
		<circle class="st3" cx="175.4" cy="255.7" r="0.4"/>
		<circle class="st3" cx="164.2" cy="243.7" r="0.4"/>
		<circle class="st3" cx="143.4" cy="215.2" r="0.6"/>
		<circle class="st3" cx="134.6" cy="195.3" r="0.5"/>
		<circle class="st3" cx="119.9" cy="194.5" r="0.5"/>
		<circle class="st3" cx="103" cy="241.4" r="0.5"/>
		<circle class="st3" cx="93.8" cy="224.2" r="0.6"/>
		<circle class="st3" cx="81.1" cy="216.1" r="0.4"/>
		<circle class="st3" cx="57.8" cy="240.4" r="0.4"/>
		<circle class="st3" cx="52.8" cy="208.1" r="0.6"/>
		<circle class="st3" cx="41.2" cy="197.2" r="0.5"/>
		<circle class="st3" cx="396.6" cy="212.9" r="0.5"/>
		<circle class="st3" cx="390.9" cy="198.9" r="0.5"/>
		<circle class="st3" cx="375.2" cy="188.2" r="0.5"/>
		<circle class="st3" cx="371.6" cy="174.1" r="0.6"/>
		<circle class="st3" cx="364.4" cy="166" r="0.6"/>
		<circle class="st3" cx="374.1" cy="129.2" r="0.6"/>
		<circle class="st3" cx="357.6" cy="125.9" r="0.4"/>
		<circle class="st3" cx="345.8" cy="117.2" r="0.6"/>
		<circle class="st3" cx="313.1" cy="144.6" r="0.5"/>
		<circle class="st3" cx="301.5" cy="134.8" r="0.6"/>
		<circle class="st3" cx="285.1" cy="135.3" r="0.6"/>
		<circle class="st3" cx="305.9" cy="72.1" r="0.6"/>
		<circle class="st3" cx="284.7" cy="82.2" r="0.6"/>
		<circle class="st3" cx="275.3" cy="68.2" r="0.6"/>
		<circle class="st3" cx="241.3" cy="97.8" r="0.5"/>
		<circle class="st3" cx="228.7" cy="96.8" r="0.6"/>
		<circle class="st3" cx="217.4" cy="80.7" r="0.6"/>
		<circle class="st3" cx="327.2" cy="221.3" r="0.6"/>
		<circle class="st3" cx="459.7" cy="37.6" r="0.6"/>
		<circle class="st3" cx="443.8" cy="36.4" r="0.4"/>
		<circle class="st3" cx="423.5" cy="41.7" r="0.5"/>
		<circle class="st3" cx="416.1" cy="25.7" r="0.4"/>
		<circle class="st3" cx="409.1" cy="9.4" r="0.5"/>
		<circle class="st3" cx="247.2" cy="184.8" r="0.5"/>
		<circle class="st3" cx="242.9" cy="164.1" r="0.4"/>
		<circle class="st3" cx="218.9" cy="175.4" r="0.6"/>
		<circle class="st3" cx="214.3" cy="155.2" r="0.6"/>
		<circle class="st3" cx="199.6" cy="150.7" r="0.4"/>
		<circle class="st3" cx="189.6" cy="139.6" r="0.5"/>
		<circle class="st3" cx="175.9" cy="135.1" r="0.5"/>
		<circle class="st3" cx="491.1" cy="331.9" r="0.6"/>
		<circle class="st3" cx="476.6" cy="321.7" r="0.6"/>
		<circle class="st3" cx="461.6" cy="346" r="0.5"/>
		<circle class="st3" cx="447.5" cy="329.4" r="0.5"/>
		<circle class="st3" cx="433.3" cy="336" r="0.5"/>
		<circle class="st3" cx="418.6" cy="326.4" r="0.5"/>
		<circle class="st3" cx="404.3" cy="341.5" r="0.5"/>
		<circle class="st3" cx="398.5" cy="201.7" r="0.6"/>
		<circle class="st3" cx="394.8" cy="220.6" r="0.5"/>
		<circle class="st3" cx="374.2" cy="217.6" r="0.5"/>
		<circle class="st3" cx="373.8" cy="240.8" r="0.4"/>
		<circle class="st3" cx="341.3" cy="232.8" r="0.6"/>
		<circle class="st3" cx="337.6" cy="247.5" r="0.5"/>
		<circle class="st3" cx="476.2" cy="66.7" r="0.5"/>
		<circle class="st3" cx="464.6" cy="75.7" r="0.4"/>
		<circle class="st3" cx="480.9" cy="29.6" r="0.6"/>
		<circle class="st3" cx="465.1" cy="32.5" r="0.5"/>
		<circle class="st3" cx="433.9" cy="106.7" r="0.5"/>
		<circle class="st3" cx="412.8" cy="101.4" r="0.4"/>
		<circle class="st3" cx="409.4" cy="117.4" r="0.6"/>
		<circle class="st3" cx="397.3" cy="126.4" r="0.6"/>
	</g>
	<linearGradient id="SVGID_4_" gradientUnits="userSpaceOnUse" x1="272.5548" y1="132.7066" x2="490.0856" y2="158.332">
		<stop  offset="0" style="stop-color:#40677D"/>
		<stop  offset="6.834584e-002" style="stop-color:#3E637B"/>
		<stop  offset="0.6648" style="stop-color:#2B456A"/>
		<stop  offset="1" style="stop-color:#243964"/>
	</linearGradient>
	<path class="st4" d="M500,95c0,0-16.4-17.5-46.5-10.7c-30.1,6.8-38.5,33-36.6,52.7c-4-0.9-4.2,3-2.3,7.4
		c-22.2,0.2-34.5,5.8-36.8,18.6c-2.3,12.9,6.6,14.8,6.6,14.8s-4,2.3-1.3,6.5c-19.2,2.7-20.9,9.5-16.9,18
		c-23.3,5.7-47.8,9.1-47.8,9.1s28.7-2.1,37.6,0c8.9,2.1,16.7,3,16.7,3s14.2-2.7,21.4-2.5c7.2,0.2,16.7-0.6,16.7-0.6
		s-6.6-3.5-3.6-6.6c5.3-5.4,12.7-5.3,21.6-3.6c10.6-1.3,13.8,2.7,17.4,4.7c3.6,2,19.4-0.4,22.8,2.4c3.4,2.8,1.1,3.8,1.1,3.8
		s9.3,4.7,29.8,1.3V95z"/>
	<g>
		<polygon class="st5" points="334,426 357,414.4 379,417.3 405.3,414.4 420.8,417.3 457.3,407.5 466.8,412.8 488.3,412.5 
			500,421.3 500,444.5 334,444.5 		"/>
		<polygon class="st5" points="186.9,428 157.6,411 144.3,408.3 122.8,397.3 62.8,431.5 		"/>
		<polygon class="st6" points="110.3,437.3 120.3,423.3 167.7,413.7 182.2,415.3 231.1,404.7 243,406.7 269.3,401 349,420.7 
			382.3,415.3 399.7,421.3 449.7,431.3 449.7,446.7 110.3,446.7 		"/>
		<linearGradient id="SVGID_5_" gradientUnits="userSpaceOnUse" x1="418.0849" y1="347.8531" x2="429.4179" y2="453.8532">
			<stop  offset="0" style="stop-color:#40677D"/>
			<stop  offset="6.834584e-002" style="stop-color:#3E637B"/>
			<stop  offset="0.6648" style="stop-color:#2B456A"/>
			<stop  offset="1" style="stop-color:#243964"/>
		</linearGradient>
		<polygon class="st7" points="500,426 475,415.3 416,424.3 404.8,426 394.8,423 354.8,432 354.8,443.5 499.9,443.5 		"/>
		<linearGradient id="SVGID_6_" gradientUnits="userSpaceOnUse" x1="83.2248" y1="328.1545" x2="93.8918" y2="436.1544">
			<stop  offset="0" style="stop-color:#40677D"/>
			<stop  offset="6.834584e-002" style="stop-color:#3E637B"/>
			<stop  offset="0.6648" style="stop-color:#2B456A"/>
			<stop  offset="1" style="stop-color:#243964"/>
		</linearGradient>
		<path class="st8" d="M0,411l10.7-5.3l26-14.7c0,0,16,10.7,18.3,10s29.5,5,34.5,7s27,8.3,27,8.3s27,5.8,31.8,5.8s26.3,2.5,26.3,2.5
			L188,431v12.5H0V411z"/>
		<linearGradient id="SVGID_7_" gradientUnits="userSpaceOnUse" x1="236.1684" y1="313.7354" x2="251.5013" y2="486.4013">
			<stop  offset="0" style="stop-color:#40677D"/>
			<stop  offset="0.2346" style="stop-color:#36566E"/>
			<stop  offset="0.7246" style="stop-color:#253854"/>
			<stop  offset="1" style="stop-color:#1E2C4A"/>
		</linearGradient>
		<path class="st9" d="M0,439c166.4-13.1,333.6-13.1,500,0c0,20.3,0,40.7,0,61c-166.7,0-333.3,0-500,0C0,479.7,0,459.3,0,439z"/>
	</g>
	
		<linearGradient id="SVGID_8_" gradientUnits="userSpaceOnUse" x1="431.7466" y1="163.9959" x2="380.4956" y2="257.3867" gradientTransform="matrix(-1 0 0 1 826.8516 0)">
		<stop  offset="0" style="stop-color:#40677D"/>
		<stop  offset="6.834584e-002" style="stop-color:#3E637B"/>
		<stop  offset="0.6648" style="stop-color:#2B456A"/>
		<stop  offset="1" style="stop-color:#243964"/>
	</linearGradient>
	<path class="st10" d="M340.4,255c0,0,49.9-2.7,57.8-5.6c8-3,4.6-7.3,7.6-6.3c-3.6-8.3,3-11.6,9-9.6c-0.7-6.6,8.3-10.5,15.9-7.6
		c7.6,2.9,8.2,7.2,8.2,7.2s0.2-7.8,7.1-8.2c-14.3-14.3-15-34-5.7-49c9.3-15.1,35.8-14.8,47.7-2.7c0,0,2.7-8.4,12-8.9v95.2
		c0,0-5.3-5.4-14.8-1.2c-19.5-5.1-22.2-2.4-26.2-2c-3.9,0.4-7.9-0.9-7.9-0.9s4.9-1.8,1.1-4c-3.8-2.2-17.7-2.7-17.2,3.5
		c0.4,6.2,7.1,7.2,7.1,7.2s-8.6-1-12.9,1c-4.3,2-18.9,6.3-23.3,2c-4.4-4.2-3.1-8.2-3.1-8.2L340.4,255z"/>
	<linearGradient id="SVGID_9_" gradientUnits="userSpaceOnUse" x1="118.729" y1="143.9786" x2="60.7187" y2="249.6864">
		<stop  offset="0" style="stop-color:#40677D"/>
		<stop  offset="6.834584e-002" style="stop-color:#3E637B"/>
		<stop  offset="0.6648" style="stop-color:#2B456A"/>
		<stop  offset="1" style="stop-color:#243964"/>
	</linearGradient>
	<path class="st11" d="M180.7,247c0,0-56.5-3-65.5-6.4c-9-3.4-5.3-8.3-8.6-7.1c4.1-9.4-3.4-13.1-10.1-10.9c0.8-7.5-9.4-11.8-18-8.5
		c-8.6,3.3-9.3,8.2-9.3,8.2s-0.2-8.8-8-9.3c16.2-16.2,17-38.4,6.5-55.5c-10.5-17.1-40.5-16.7-54-3c0,0-3-9.5-13.5-10.1v107.8
		c0,0,6-6.1,16.8-1.4c22-5.8,25.2-2.8,29.6-2.3c4.4,0.5,8.9-1,8.9-1s-5.5-2-1.3-4.5c4.3-2.5,20-3,19.5,4c-0.5,7-8,8.1-8,8.1
		s9.8-1.1,14.6,1.2c4.9,2.3,21.4,7.1,26.4,2.3c5-4.8,3.5-9.3,3.5-9.3L180.7,247z"/>
	<linearGradient id="SVGID_10_" gradientUnits="userSpaceOnUse" x1="93.5065" y1="181.8441" x2="35.496" y2="276.8098">
		<stop  offset="0" style="stop-color:#40677D"/>
		<stop  offset="6.834584e-002" style="stop-color:#3E637B"/>
		<stop  offset="0.6648" style="stop-color:#2B456A"/>
		<stop  offset="1" style="stop-color:#243964"/>
	</linearGradient>
	<path class="st12" d="M0,205.5c0,0,10.3-10.9,29.1-6.7c18.9,4.2,24.1,20.6,22.9,33c2.5-0.6,2.6,1.9,1.4,4.6
		c13.9,0.1,21.6,3.6,23,11.7c1.4,8.1-4.1,9.2-4.1,9.2s2.5,1.4,0.8,4c12,1.7,13,5.9,10.5,11.3c14.6,3.6,29.9,5.7,29.9,5.7
		s-17.9-1.3-23.5,0c-5.6,1.3-10.4,1.9-10.4,1.9s-8.9-1.7-13.4-1.5c-4.5,0.1-10.5-0.4-10.5-0.4s4.1-2.2,2.3-4.1
		c-3.3-3.4-8-3.3-13.5-2.2c-6.6-0.8-8.6,1.7-10.9,2.9c-2.3,1.3-12.1-0.3-14.3,1.5c-2.1,1.8-0.7,2.4-0.7,2.4s-5.8,3-18.6,0.8V205.5z"
		/>
	<g class="st13">
		<g class="st14">
			<path class="st15" d="M258.2,371.6c-0.1-0.7-0.5-1-1-1.1c0,0,0-0.1,0-0.1c0-0.2,0-0.4,0-0.6c0-0.2,0.1-0.5,0.2-0.7
				c0.2-0.5,0.5-1.1,0.8-1.8c0.4-0.6,0.7-1.3,1.1-2c0.2-0.4,0.3-0.7,0.4-1.1c0-0.1,0.1-0.2,0.1-0.3c0-0.1,0.1-0.2,0.1-0.3
				c0-0.1,0-0.2,0.1-0.3c0-0.1,0-0.2,0.1-0.3c0.1-0.4,0.1-0.7,0-1.1c0-0.2-0.1-0.3-0.1-0.5c0-0.2-0.1-0.3-0.2-0.5
				c-0.1-0.3-0.3-0.5-0.5-0.7c-0.2-0.2-0.4-0.3-0.5-0.4c0,0,0,0-0.1,0c-0.1-0.2-0.3-0.3-0.4-0.4c-0.7-0.5-3.4-1.2-4.7-1.7
				c-1.3-0.5-5.6-3.4-8.2-5.2c-2.5-1.8-2.9-2.4-3.8-3c-0.9-0.5-2.5-1.1-3.2-1.7c-0.7-0.5-0.7-0.9-0.7-1c0-0.1,0.9-0.4,1-0.9
				c0.1-0.6-1.3-0.7-2.2-0.7c-0.5-0.5-0.5-1-1.3-1.2c-0.4-0.1-1.4,0.2-2.2,0.4c-0.8,0.2-1.1,0.2-1.3,0.5c-0.2,0.3-2,0.9-2.7,1.1
				c-0.7,0.2-1.5,0.3-1.5,0.7c0,0.5,0.2,1.4,0.8,1.7c0.6,0.3,0.9,0.1,1.1,0.4c0.3,0.3,0.7,0.7,1.2,0.8c0.4,0.1,0.5,0.5,1.3,0.8
				c0.8,0.3,1,0.1,1.3,0.9c0.4,0.8,0.7,2.1,0.6,3.6c-0.1,1.4-0.7,3.1-0.5,4c0.2,1,1.3,1.1,1.2,1.9c-0.1,0.8-0.7,2.2-0.7,2.6
				c0,0.4,0.2,1.1-0.2,1.9c-0.4,0.8-0.7,1.3-1.2,1.9c-0.5,0.6-1.2,0.6-1.1,0.9c0.1,0.3,0.8,0.5,1.1,0.6c0.3,0.1,0.3-0.5,0.7-0.6
				c0.4-0.1,0.7-0.2,0.9-0.9c0.2-0.7,0.8-2.2,1.2-3c0.5-0.8,1.3-2.1,1.5-2.4c0.2-0.3,0.6-0.5,1.4,0c0.9,0.6,2.4,3,5.3,4.1
				c2.8,1.1,3.6,0.3,4.9,1.4c1.3,1.1,2.1,1.4,1.9,2.5c-0.3,1.1-0.7,2.6-0.8,3.4c-0.2,0.8-0.9,2.2-1.6,3.2c-0.7,1-1.1,1-1.5,1.1
				c-0.4,0.1-0.7,0.3-0.1,0.7c0.6,0.4,1.3,0.8,1.5,0.5c0.2-0.3,0.6-0.3,0.9-0.5c0.3-0.2,0.1-0.6,0.6-1.4c0.5-0.8,2.2-3.4,2.6-3.8
				c0.4-0.4,0.5-0.6,0.6-1c0.1-0.5,2.1-3.3,3.3-4.6c1.2-1.3,3.8-4,4-5.1c0-0.1,0-0.2,0-0.3c0,0.3,0,0.6,0,1c0,0.1,0,0.2,0,0.3
				c0,0.1,0,0.2-0.1,0.3c0,0.1,0,0.2-0.1,0.3c0,0.1-0.1,0.2-0.1,0.3c-0.1,0.4-0.3,0.7-0.4,1.1c-0.3,0.7-0.7,1.4-1,2
				c-0.3,0.6-0.7,1.3-0.8,1.8c-0.1,0.3-0.2,0.6-0.2,0.8c0,0.2,0,0.5,0,0.6c0,0.1,0,0.2,0,0.2c-0.2,0.2-0.4,0.6,0,1.1
				c0.6,0.7,0.9,1.1,0.9,1.1S258.3,372.4,258.2,371.6z"/>
			<path class="st15" d="M276,396.9c-0.7-0.1-1.1,0.3-1.3,0.7c0,0-0.1,0-0.1,0c-0.2,0-0.3-0.1-0.6-0.2c-0.2-0.1-0.4-0.2-0.7-0.4
				c-0.5-0.3-1-0.7-1.5-1.2c-0.5-0.5-1.1-1-1.7-1.5c-0.3-0.2-0.6-0.5-1-0.7c-0.1,0-0.2-0.1-0.3-0.2c-0.1,0-0.2-0.1-0.2-0.1
				c-0.1,0-0.2-0.1-0.3-0.1c-0.1,0-0.2-0.1-0.3-0.1c-0.3-0.1-0.7-0.2-1.1-0.3c-0.2,0-0.3,0-0.5,0c-0.2,0-0.3,0-0.5,0.1
				c-0.3,0.1-0.6,0.2-0.8,0.3c-0.2,0.1-0.4,0.3-0.5,0.4c0,0,0,0-0.1,0.1c-0.2,0.1-0.3,0.2-0.5,0.3c-0.7,0.6-1.9,3.1-2.7,4.2
				c-0.8,1.2-4.6,4.7-6.9,6.8c-2.4,2.1-3,2.3-3.8,3.1c-0.7,0.8-1.7,2.1-2.4,2.7c-0.7,0.6-1,0.4-1.1,0.4c-0.1,0-0.1-1-0.7-1.2
				c-0.6-0.2-1,1.1-1.2,2c-0.7,0.4-1.1,0.3-1.5,0.9c-0.2,0.3-0.1,1.4-0.1,2.2c0,0.8,0,1.1,0.2,1.4c0.2,0.3,0.4,2.1,0.5,2.9
				c0.1,0.7-0.1,1.5,0.4,1.6c0.4,0.1,1.4,0.1,1.8-0.4c0.4-0.5,0.3-0.8,0.7-1c0.4-0.2,0.9-0.5,1-0.9c0.2-0.4,0.6-0.4,1.1-1.1
				c0.5-0.7,0.3-0.9,1.2-1.1c0.9-0.2,2.2-0.2,3.6,0.3c1.4,0.4,2.8,1.4,3.8,1.4c1,0,1.4-1,2.1-0.7c0.8,0.3,2,1.2,2.4,1.2
				c0.4,0.1,1.1,0.1,1.8,0.7c0.7,0.6,1.1,1,1.6,1.6c0.5,0.6,0.3,1.3,0.6,1.3c0.3,0,0.7-0.7,0.8-1c0.1-0.3-0.4-0.4-0.4-0.8
				c0-0.4,0-0.7-0.6-1.1c-0.6-0.4-2-1.3-2.6-1.9c-0.6-0.6-1.7-1.7-2-2c-0.3-0.2-0.4-0.7,0.4-1.4c0.7-0.7,3.4-1.7,5.2-4.2
				c1.7-2.5,1.1-3.4,2.5-4.4c1.4-1,1.9-1.8,2.9-1.2c1,0.5,2.4,1.2,3.1,1.6c0.8,0.4,1.9,1.4,2.7,2.3c0.8,0.9,0.7,1.3,0.7,1.7
				c0,0.4,0.1,0.8,0.6,0.3c0.5-0.5,1.1-1.1,0.9-1.3c-0.3-0.2-0.2-0.7-0.3-1c-0.1-0.3-0.5-0.3-1.2-0.9c-0.7-0.7-2.8-2.9-3.1-3.4
				c-0.3-0.5-0.5-0.6-0.9-0.9c-0.4-0.2-2.8-2.8-3.7-4.2c-1-1.5-3-4.7-4-5.1c-0.1,0-0.2-0.1-0.3-0.1c0.3,0,0.6,0.1,0.9,0.2
				c0.1,0,0.2,0.1,0.2,0.1c0.1,0,0.2,0.1,0.2,0.1c0.1,0,0.2,0.1,0.2,0.1c0.1,0,0.2,0.1,0.2,0.1c0.3,0.2,0.6,0.4,0.9,0.6
				c0.6,0.5,1.2,1,1.7,1.5c0.5,0.5,1.1,0.9,1.6,1.2c0.3,0.2,0.5,0.3,0.7,0.4c0.2,0.1,0.4,0.2,0.6,0.2c0.1,0,0.2,0,0.2,0
				c0.1,0.2,0.5,0.5,1.1,0.2c0.9-0.5,1.3-0.6,1.3-0.6S276.7,397,276,396.9z"/>
			<path class="st15" d="M237.9,301.6c0.6-0.2,1.1,0,1.4,0.4c0,0,0.1,0,0.1-0.1c0.1-0.1,0.3-0.2,0.5-0.3c0.2-0.1,0.4-0.3,0.6-0.5
				c0.4-0.4,0.7-1,1.1-1.6c0.4-0.6,0.8-1.3,1.2-1.9c0.2-0.3,0.5-0.6,0.7-0.9c0.1-0.1,0.1-0.1,0.2-0.2c0.1-0.1,0.1-0.1,0.2-0.2
				c0.1-0.1,0.1-0.1,0.2-0.2c0.1-0.1,0.1-0.1,0.2-0.2c0.3-0.2,0.6-0.4,0.9-0.6c0.2-0.1,0.3-0.1,0.5-0.2c0.2,0,0.3-0.1,0.5-0.1
				c0.3,0,0.6,0,0.9,0.1c0.3,0.1,0.5,0.1,0.6,0.2c0,0,0,0,0.1,0c0.2,0,0.4,0.1,0.5,0.2c0.8,0.4,2.7,2.4,3.8,3.3
				c1.1,0.9,5.7,3.3,8.5,4.6c2.8,1.3,3.6,1.4,4.5,1.9c0.9,0.5,2.2,1.6,3,2c0.8,0.4,1.1,0.1,1.2,0.1c0.1,0-0.1-1,0.3-1.3
				c0.5-0.3,1.3,0.8,1.7,1.6c0.7,0.2,1.1,0,1.7,0.5c0.3,0.3,0.5,1.3,0.7,2.1c0.2,0.8,0.3,1.1,0.2,1.4c-0.1,0.3,0.2,2.2,0.3,2.9
				c0.1,0.7,0.5,1.4,0.1,1.7c-0.4,0.3-1.3,0.5-1.8,0.1c-0.5-0.4-0.5-0.7-0.9-0.8c-0.4-0.1-1-0.3-1.3-0.6c-0.3-0.3-0.6-0.2-1.3-0.7
				c-0.7-0.5-0.5-0.8-1.4-0.7c-0.9,0.1-2.2,0.5-3.4,1.3c-1.2,0.8-2.3,2.1-3.2,2.4c-0.9,0.3-1.6-0.6-2.3-0.1
				c-0.7,0.5-1.6,1.6-1.9,1.8c-0.4,0.2-1,0.4-1.5,1.1c-0.5,0.7-0.8,1.2-1.1,1.9c-0.3,0.7,0.1,1.4-0.2,1.4c-0.3,0-0.8-0.5-1-0.7
				c-0.2-0.2,0.3-0.5,0.2-0.9c-0.1-0.4-0.2-0.7,0.3-1.2c0.5-0.5,1.6-1.7,2-2.5c0.5-0.8,1.2-2.1,1.4-2.4c0.2-0.3,0.2-0.7-0.7-1.2
				c-0.9-0.5-3.8-0.7-6.1-2.6c-2.3-1.9-2-3-3.6-3.6c-1.6-0.6-2.3-1.2-3.1-0.4c-0.8,0.8-1.9,1.8-2.6,2.4c-0.6,0.5-1.5,1.9-2,2.9
				c-0.5,1.1-0.3,1.5-0.2,1.9c0.1,0.4,0.1,0.8-0.5,0.4c-0.6-0.3-1.4-0.7-1.2-1.1c0.2-0.3,0-0.7,0-1c0-0.3,0.5-0.4,0.9-1.2
				c0.5-0.8,1.9-3.6,2.1-4.1c0.2-0.6,0.3-0.7,0.6-1.1c0.3-0.3,1.9-3.4,2.5-5.1c0.5-1.7,1.6-5.3,2.5-6c0.1-0.1,0.2-0.1,0.3-0.2
				c-0.3,0.1-0.6,0.3-0.8,0.5c-0.1,0.1-0.1,0.1-0.2,0.2c-0.1,0.1-0.1,0.1-0.2,0.2c-0.1,0.1-0.1,0.1-0.2,0.2
				c-0.1,0.1-0.1,0.1-0.2,0.2c-0.3,0.3-0.5,0.6-0.7,0.9c-0.5,0.6-0.9,1.3-1.2,1.9c-0.4,0.6-0.8,1.2-1.2,1.6
				c-0.2,0.2-0.4,0.4-0.6,0.6c-0.2,0.1-0.4,0.3-0.5,0.3c-0.1,0-0.1,0.1-0.2,0.1c-0.1,0.2-0.3,0.7-1,0.5c-0.9-0.2-1.4-0.2-1.4-0.2
				S237.2,301.9,237.9,301.6z"/>
		</g>
		<linearGradient id="SVGID_11_" gradientUnits="userSpaceOnUse" x1="249.999" y1="201.3336" x2="249.999" y2="397.0067">
			<stop  offset="0" style="stop-color:#F75BA8"/>
			<stop  offset="1" style="stop-color:#F75BA8;stop-opacity:0"/>
		</linearGradient>
		<polygon class="st16" points="213.9,210.7 286.1,210.7 322.4,443.5 177.6,443.5 		"/>
		<linearGradient id="SVGID_12_" gradientUnits="userSpaceOnUse" x1="249.9993" y1="201.3336" x2="249.9993" y2="397.0067">
			<stop  offset="0" style="stop-color:#F75BA8"/>
			<stop  offset="1" style="stop-color:#F75BA8;stop-opacity:0"/>
		</linearGradient>
		<polygon class="st17" points="232.8,210.7 267.2,210.7 298.1,443.5 201.9,443.5 		"/>
		<g class="st14">
			<path class="st18" d="M291.9,218c0,1.8-1.5,3.3-3.3,3.3h-77.2c-1.8,0-3.3-1.5-3.3-3.3v-9.8c0-1.8,1.5-3.3,3.3-3.3h77.2
				c1.8,0,3.3,1.5,3.3,3.3V218z"/>
			<g>
				<g>
					<rect x="212.6" y="204.9" class="st19" width="1.1" height="16.4"/>
				</g>
				<g>
					<rect x="220.8" y="204.9" class="st19" width="1.1" height="16.4"/>
				</g>
				<g>
					<rect x="229" y="204.9" class="st19" width="1.1" height="16.4"/>
				</g>
				<g>
					<rect x="237.2" y="204.9" class="st19" width="1.1" height="16.4"/>
				</g>
				<g>
					<rect x="245.4" y="204.9" class="st19" width="1.1" height="16.4"/>
				</g>
				<g>
					<rect x="253.6" y="204.9" class="st19" width="1.1" height="16.4"/>
				</g>
				<g>
					<rect x="261.7" y="204.9" class="st19" width="1.1" height="16.4"/>
				</g>
				<g>
					<rect x="269.9" y="204.9" class="st19" width="1.1" height="16.4"/>
				</g>
				<g>
					<rect x="278.1" y="204.9" class="st19" width="1.1" height="16.4"/>
				</g>
				<g>
					<rect x="286.3" y="204.9" class="st19" width="1.1" height="16.4"/>
				</g>
			</g>
			<rect x="208.7" y="182.2" class="st18" width="82.6" height="5.9"/>
			<linearGradient id="SVGID_13_" gradientUnits="userSpaceOnUse" x1="159.5" y1="210.6995" x2="340.5" y2="210.6995">
				<stop  offset="0" style="stop-color:#B5BDD1"/>
				<stop  offset="1" style="stop-color:#9BA8C7"/>
			</linearGradient>
			<path class="st20" d="M159.5,203.8c16.4,12,38.4,13.8,49.5,13.8s70.8,0,81.9,0c11.1,0,33.1-1.8,49.5-13.8H159.5z"/>
			<linearGradient id="SVGID_14_" gradientUnits="userSpaceOnUse" x1="205.7874" y1="174.7974" x2="259.8683" y2="209.0302">
				<stop  offset="0" style="stop-color:#D8DCE8"/>
				<stop  offset="1" style="stop-color:#BCC1D1"/>
			</linearGradient>
			<path class="st21" d="M290.1,184.7c-9.3,0-70.8,0-80.1,0c-16,0-38.4,5.5-50.4,19.1h181C328.5,190.1,306.1,184.7,290.1,184.7z"/>
			<linearGradient id="SVGID_15_" gradientUnits="userSpaceOnUse" x1="207.0259" y1="169.4556" x2="292.9746" y2="169.4556">
				<stop  offset="0" style="stop-color:#B5BDD1"/>
				<stop  offset="1" style="stop-color:#9BA8C7"/>
			</linearGradient>
			<path class="st22" d="M250,155.8c-24.6,0-38.6,13.1-43,27.3h43h43C288.6,168.9,274.6,155.8,250,155.8z"/>
			<path class="st18" d="M184.2,193.5c1.3,0,4.7,1.9,7.6,3.5c2.7,1.5,5,2.8,5.9,2.8h104.6c0.9,0,3.2-1.3,5.9-2.8
				c2.9-1.6,6.3-3.5,7.6-3.5h11.2c-0.4-0.2-0.7-0.4-1.1-0.5h-10.2c-1.5,0-4.7,1.8-7.9,3.6c-2.4,1.3-4.9,2.7-5.7,2.7H197.7
				c-0.8,0-3.3-1.4-5.7-2.7c-3.1-1.8-6.4-3.6-7.9-3.6H174c-0.4,0.2-0.7,0.4-1.1,0.5H184.2z"/>
			<g>
				<path class="st23" d="M224,194.6c0,1-0.9,1.9-1.9,1.9l0,0c-1,0-1.9-0.8-1.9-1.9v-3.2c0-1,0.8-1.9,1.9-1.9l0,0
					c1,0,1.9,0.8,1.9,1.9V194.6z"/>
				<path class="st23" d="M238,194.6c0,1-0.9,1.9-1.9,1.9l0,0c-1,0-1.9-0.8-1.9-1.9v-3.2c0-1,0.8-1.9,1.9-1.9l0,0
					c1,0,1.9,0.8,1.9,1.9V194.6z"/>
				<path class="st23" d="M251.9,194.6c0,1-0.9,1.9-1.9,1.9l0,0c-1,0-1.9-0.8-1.9-1.9v-3.2c0-1,0.8-1.9,1.9-1.9l0,0
					c1,0,1.9,0.8,1.9,1.9V194.6z"/>
				<path class="st23" d="M265.8,194.6c0,1-0.8,1.9-1.9,1.9l0,0c-1,0-1.9-0.8-1.9-1.9v-3.2c0-1,0.8-1.9,1.9-1.9l0,0
					c1,0,1.9,0.8,1.9,1.9V194.6z"/>
				<path class="st23" d="M279.8,194.6c0,1-0.8,1.9-1.9,1.9l0,0c-1,0-1.9-0.8-1.9-1.9v-3.2c0-1,0.8-1.9,1.9-1.9l0,0
					c1,0,1.9,0.8,1.9,1.9V194.6z"/>
			</g>
			<g>
				<path class="st24" d="M224,193.9c0,1-0.9,1.9-1.9,1.9l0,0c-1,0-1.9-0.8-1.9-1.9v-3.2c0-1,0.8-1.9,1.9-1.9l0,0
					c1,0,1.9,0.8,1.9,1.9V193.9z"/>
				<path class="st25" d="M238,193.9c0,1-0.9,1.9-1.9,1.9l0,0c-1,0-1.9-0.8-1.9-1.9v-3.2c0-1,0.8-1.9,1.9-1.9l0,0
					c1,0,1.9,0.8,1.9,1.9V193.9z"/>
				<path class="st26" d="M251.9,193.9c0,1-0.9,1.9-1.9,1.9l0,0c-1,0-1.9-0.8-1.9-1.9v-3.2c0-1,0.8-1.9,1.9-1.9l0,0
					c1,0,1.9,0.8,1.9,1.9V193.9z"/>
				<path class="st25" d="M265.8,193.9c0,1-0.8,1.9-1.9,1.9l0,0c-1,0-1.9-0.8-1.9-1.9v-3.2c0-1,0.8-1.9,1.9-1.9l0,0
					c1,0,1.9,0.8,1.9,1.9V193.9z"/>
				<path class="st24" d="M279.8,193.9c0,1-0.8,1.9-1.9,1.9l0,0c-1,0-1.9-0.8-1.9-1.9v-3.2c0-1,0.8-1.9,1.9-1.9l0,0
					c1,0,1.9,0.8,1.9,1.9V193.9z"/>
			</g>
			<g>
				<path class="st27" d="M224,191c0,1-0.9,1.9-1.9,1.9l0,0c-1,0-1.9-0.8-1.9-1.9v-0.4c0-1,0.8-1.9,1.9-1.9l0,0c1,0,1.9,0.8,1.9,1.9
					V191z"/>
				<path class="st28" d="M238,191c0,1-0.9,1.9-1.9,1.9l0,0c-1,0-1.9-0.8-1.9-1.9v-0.4c0-1,0.8-1.9,1.9-1.9l0,0c1,0,1.9,0.8,1.9,1.9
					V191z"/>
				<path class="st29" d="M251.9,191c0,1-0.9,1.9-1.9,1.9l0,0c-1,0-1.9-0.8-1.9-1.9v-0.4c0-1,0.8-1.9,1.9-1.9l0,0
					c1,0,1.9,0.8,1.9,1.9V191z"/>
				<path class="st28" d="M265.8,191c0,1-0.8,1.9-1.9,1.9l0,0c-1,0-1.9-0.8-1.9-1.9v-0.4c0-1,0.8-1.9,1.9-1.9l0,0
					c1,0,1.9,0.8,1.9,1.9V191z"/>
				<path class="st27" d="M279.8,191c0,1-0.8,1.9-1.9,1.9l0,0c-1,0-1.9-0.8-1.9-1.9v-0.4c0-1,0.8-1.9,1.9-1.9l0,0
					c1,0,1.9,0.8,1.9,1.9V191z"/>
			</g>
			<path class="st30" d="M225.3,170.5c-0.9,0-1.8-0.4-2.3-1.3c-0.8-1.3-0.4-3,0.8-3.8c3.5-2.3,7.5-4,11.9-5.2c1.5-0.4,3,0.5,3.3,1.9
				c0.4,1.5-0.5,3-1.9,3.3c-3.9,1-7.4,2.5-10.4,4.5C226.3,170.3,225.8,170.5,225.3,170.5z M220.1,175.9c0.2-0.2,0.4-0.4,0.6-0.7
				c1-1.1,0.9-2.9-0.2-3.9c-1.1-1-2.9-0.9-3.9,0.2c-0.2,0.3-0.5,0.5-0.7,0.8c-1,1.2-0.8,2.9,0.3,3.8c0.5,0.4,1.1,0.6,1.7,0.6
				C218.8,176.9,219.5,176.5,220.1,175.9z"/>
		</g>
	</g>
</g>
<g id="DESIGNED_BY_FREEPIK" class="st13">
	<g class="st14">
		<g id="XMLID_1_">
			<g id="XMLID_20_">
				<path id="XMLID_28_" class="st3" d="M260.1,465.5c-0.4,0.4-0.8,0.9-1.1,1.5l-0.5-0.2c-0.1-0.3-0.3-0.5-0.7-0.5
					c-0.3,0-0.6,0.3-0.5,0.7c0,0.3,0.3,0.6,0.7,0.5c0.1,0,0.1,0,0.2-0.1l0.5,0.2c-0.3,0.6-0.4,1.1-0.5,1.7l0.7,0.1
					c0.2-1.3,0.8-2.5,1.8-3.5L260.1,465.5z"/>
				<path id="XMLID_27_" class="st3" d="M265.6,463.2c-0.2,0-0.3,0-0.5,0l-0.1-0.6c0.2-0.1,0.3-0.4,0.3-0.6c0-0.4-0.4-0.7-0.8-0.6
					c-0.4,0-0.7,0.4-0.6,0.8c0,0.3,0.2,0.5,0.4,0.6l0.1,0.6c-0.7,0.1-1.4,0.3-2.1,0.6l0.3,0.7c0.9-0.4,1.9-0.7,3-0.7
					c0.5,0,1,0.1,1.5,0.2l0.2-0.7C266.7,463.2,266.1,463.2,265.6,463.2z"/>
				<path id="XMLID_26_" class="st3" d="M272.2,465.7c0.3,0,0.6-0.3,0.5-0.7c0-0.3-0.3-0.6-0.7-0.5c-0.3,0-0.5,0.3-0.5,0.6l-0.4,0.4
					c-0.4-0.4-0.9-0.8-1.4-1.1l-0.4,0.6c1.1,0.7,2,1.7,2.6,2.9l0.7-0.3c-0.3-0.6-0.6-1.1-0.9-1.5l0.4-0.4
					C272.1,465.7,272.1,465.7,272.2,465.7z"/>
				<path id="XMLID_25_" class="st3" d="M265,473.4c-0.4,0-0.8,0-1.2,0c-0.9,0-1.7-0.1-2.5-0.2c-0.4-0.1-0.8-0.2-1.3-0.3
					c1,1.9,3.1,3.1,5.4,3.1c2.9,0,5.3-1.9,5.9-4.5c-0.7,0.4-1.5,0.8-2.5,1.1C267.8,473,266.5,473.3,265,473.4z"/>
				<path id="XMLID_21_" class="st3" d="M265.6,464.7c-3.4,0-6.1,2.7-6.1,5.9c0,0.4,0,0.8,0.1,1.3c0.7,0.5,2.7,0.9,5.3,0.7
					c2.9-0.2,5.3-1,6.7-2.2c0-0.2,0-0.4,0-0.6C271.2,466.9,268.7,464.7,265.6,464.7z M263.4,471.2c-1,0-1.8-0.8-1.8-1.8
					c0-1,0.8-1.9,1.8-1.9s1.8,0.8,1.8,1.9C265.3,470.4,264.5,471.2,263.4,471.2z M268.2,470.3c-0.8,0-1.4-0.6-1.4-1.4
					s0.6-1.4,1.4-1.4s1.4,0.6,1.4,1.4S268.9,470.3,268.2,470.3z"/>
			</g>
			<path id="XMLID_18_" class="st3" d="M281.6,466.5c-0.3-0.1-0.8-0.3-1.4-0.2c-0.6,0.1-0.8,0.3-0.8,1v0.9h2.2v1.7h-2.2v5.5h-1.9
				v-5.5h-1.3v-1.7h1.3v-0.9c0-1.7,0.9-2.8,2.6-2.8c0.6,0,1.2,0.1,1.6,0.3V466.5z"/>
			<path id="XMLID_16_" class="st3" d="M286.3,469.9c-0.2,0-0.4,0-0.5,0c-0.9,0-1.5,0.5-1.5,1.6v3.9h-1.9v-7.2h1.9v0.8
				c0.5-0.7,1.1-1,2-1c0.4,0,0.8,0.1,1.1,0.3L286.3,469.9z"/>
			<path id="XMLID_13_" class="st3" d="M294,471.8c0,0.2,0,0.5,0,0.7h-5.1c0.2,1,0.9,1.5,1.8,1.5c0.6,0,1.3-0.3,1.8-0.7l1.1,1.2
				c-0.8,0.7-1.9,1.1-3.1,1.1c-2.2,0-3.7-1.5-3.7-3.8c0-2.3,1.5-3.8,3.6-3.8C292.5,468,294,469.5,294,471.8z M288.9,471.1h3.2
				c-0.2-0.9-0.7-1.4-1.6-1.4C289.6,469.7,289,470.2,288.9,471.1z"/>
			<path id="XMLID_10_" class="st3" d="M301.6,471.8c0,0.2,0,0.5,0,0.7h-5.1c0.2,1,0.9,1.5,1.8,1.5c0.6,0,1.3-0.3,1.8-0.7l1.1,1.2
				c-0.8,0.7-1.8,1.1-3.1,1.1c-2.2,0-3.7-1.5-3.7-3.8c0-2.3,1.5-3.8,3.6-3.8C300.2,468,301.6,469.5,301.6,471.8z M296.5,471.1h3.2
				c-0.2-0.9-0.7-1.4-1.6-1.4C297.2,469.7,296.7,470.2,296.5,471.1z"/>
			<path id="XMLID_7_" class="st3" d="M310,471.8c0,2.2-1.5,3.8-3.5,3.8c-1,0-1.6-0.4-2.1-0.9v3.7h-1.9v-10.1h1.9v0.8
				c0.5-0.6,1.2-1,2.1-1C308.5,468,310,469.6,310,471.8z M304.3,471.8c0,1.1,0.7,2,1.8,2c1.1,0,1.8-0.9,1.8-2c0-1.1-0.7-2-1.8-2
				C305,469.8,304.3,470.6,304.3,471.8z"/>
			<path id="XMLID_4_" class="st3" d="M313.1,465.8c0,0.7-0.5,1.2-1.2,1.2c-0.7,0-1.2-0.5-1.2-1.2c0-0.7,0.5-1.2,1.2-1.2
				C312.5,464.6,313.1,465.1,313.1,465.8z M312.8,475.4h-1.9v-7.2h1.9V475.4z"/>
			<path id="XMLID_2_" class="st3" d="M316,470.7l2.7-2.6h2.4l-3.5,3.4l3.5,3.8h-2.4l-2.7-2.9v2.9h-1.9v-10.7h1.9V470.7z"/>
		</g>
		<g>
			<path class="st3" d="M184.4,475.3v-1.1c-0.5,0.7-1.4,1.2-2.4,1.2c-1.8,0-3.1-1.4-3.1-3.7c0-2.3,1.3-3.7,3.1-3.7
				c1,0,1.8,0.5,2.4,1.2v-3.8h1.1v9.8H184.4z M184.4,473.4v-3.2c-0.4-0.6-1.2-1.1-2.1-1.1c-1.4,0-2.3,1.2-2.3,2.7
				c0,1.6,0.8,2.7,2.3,2.7C183.2,474.5,184,474,184.4,473.4z"/>
			<path class="st3" d="M186.9,471.7c0-2.1,1.5-3.7,3.5-3.7c2.1,0,3.4,1.7,3.4,3.8v0.3h-5.7c0.1,1.3,1,2.4,2.5,2.4
				c0.8,0,1.6-0.3,2.2-0.9l0.5,0.7c-0.7,0.7-1.7,1.1-2.8,1.1C188.4,475.5,186.9,474,186.9,471.7z M190.4,468.9
				c-1.5,0-2.3,1.3-2.3,2.4h4.6C192.7,470.3,192,468.9,190.4,468.9z"/>
			<path class="st3" d="M194.6,474.4l0.6-0.8c0.5,0.5,1.4,1,2.3,1c1.1,0,1.7-0.5,1.7-1.2c0-1.7-4.4-0.7-4.4-3.3c0-1.1,1-2,2.6-2
				c1.2,0,2.1,0.5,2.6,1l-0.5,0.8c-0.4-0.5-1.2-0.9-2.1-0.9c-1,0-1.6,0.5-1.6,1.1c0,1.6,4.4,0.5,4.4,3.3c0,1.2-1,2.1-2.8,2.1
				C196.3,475.5,195.3,475.1,194.6,474.4z"/>
			<path class="st3" d="M201.5,466.5c0-0.4,0.3-0.7,0.7-0.7c0.4,0,0.7,0.3,0.7,0.7c0,0.4-0.3,0.7-0.7,0.7
				C201.8,467.2,201.5,466.9,201.5,466.5z M201.7,475.3v-7.1h1.1v7.1H201.7z"/>
			<path class="st3" d="M204.6,477.1l0.6-0.8c0.6,0.7,1.3,1,2.3,1c1.2,0,2.3-0.6,2.3-2.1v-1c-0.5,0.7-1.4,1.3-2.4,1.3
				c-1.8,0-3.2-1.4-3.2-3.7c0-2.3,1.3-3.7,3.2-3.7c1,0,1.8,0.5,2.4,1.2v-1.1h1.1v6.9c0,2.3-1.6,3.1-3.4,3.1
				C206.2,478.2,205.4,477.9,204.6,477.1z M209.7,473.3v-3.1c-0.4-0.6-1.2-1.1-2.1-1.1c-1.4,0-2.3,1.1-2.3,2.7
				c0,1.6,0.8,2.7,2.3,2.7C208.5,474.4,209.3,473.9,209.7,473.3z"/>
			<path class="st3" d="M217.4,475.3v-4.6c0-1.2-0.6-1.6-1.6-1.6c-0.9,0-1.7,0.5-2.1,1.1v5.2h-1.1v-7.1h1.1v1
				c0.5-0.6,1.5-1.2,2.5-1.2c1.5,0,2.3,0.7,2.3,2.3v5H217.4z"/>
			<path class="st3" d="M219.9,471.7c0-2.1,1.5-3.7,3.5-3.7c2.1,0,3.4,1.7,3.4,3.8v0.3h-5.7c0.1,1.3,1,2.4,2.5,2.4
				c0.8,0,1.6-0.3,2.2-0.9l0.5,0.7c-0.7,0.7-1.7,1.1-2.8,1.1C221.4,475.5,219.9,474,219.9,471.7z M223.4,468.9
				c-1.5,0-2.3,1.3-2.3,2.4h4.6C225.7,470.3,225,468.9,223.4,468.9z"/>
			<path class="st3" d="M233.4,475.3v-1.1c-0.5,0.7-1.4,1.2-2.4,1.2c-1.8,0-3.2-1.4-3.2-3.7c0-2.3,1.3-3.7,3.2-3.7
				c1,0,1.8,0.5,2.4,1.2v-3.8h1.1v9.8H233.4z M233.4,473.4v-3.2c-0.4-0.6-1.2-1.1-2.1-1.1c-1.4,0-2.3,1.2-2.3,2.7
				c0,1.6,0.8,2.7,2.3,2.7C232.1,474.5,233,474,233.4,473.4z"/>
			<path class="st3" d="M239.7,475.3v-9.8h1.1v3.8c0.6-0.8,1.4-1.2,2.4-1.2c1.8,0,3.2,1.5,3.2,3.7c0,2.3-1.3,3.7-3.2,3.7
				c-1,0-1.9-0.5-2.4-1.2v1.1H239.7z M242.9,474.5c1.4,0,2.3-1.2,2.3-2.7c0-1.6-0.8-2.7-2.3-2.7c-0.9,0-1.7,0.5-2.1,1.1v3.2
				C241.2,474,242,474.5,242.9,474.5z"/>
			<path class="st3" d="M247.5,477.1c0.2,0.1,0.4,0.1,0.6,0.1c0.5,0,0.8-0.2,1.1-0.7l0.5-1.1l-3-7.1h1.2l2.4,5.8l2.3-5.8h1.2
				l-3.5,8.5c-0.4,1-1.1,1.4-2.1,1.4c-0.2,0-0.6,0-0.8-0.1L247.5,477.1z"/>
		</g>
	</g>
</g>
</svg>
