<?xml version="1.0" encoding="utf-8"?>
<!-- Generator: Adobe Illustrator 19.0.0, SVG Export Plug-In . SVG Version: 6.00 Build 0)  -->
<svg version="1.1" id="Layer_1" xmlns="http://www.w3.org/2000/svg" xmlns:xlink="http://www.w3.org/1999/xlink" x="0px" y="0px"
	 viewBox="0 0 107.5 107.5" style="enable-background:new 0 0 107.5 107.5;" xml:space="preserve">
<style type="text/css">
	.st0{fill:url(#SVGID_1_);}
	.st1{opacity:0.5;fill:url(#SVGID_2_);}
	.st2{fill:url(#SVGID_3_);}
	.st3{fill:url(#SVGID_4_);}
	.st4{fill:url(#SVGID_5_);}
	.st5{fill:url(#SVGID_6_);}
	.st6{fill:url(#SVGID_7_);}
	.st7{fill:url(#SVGID_8_);}
	.st8{fill:url(#SVGID_9_);}
	.st9{fill:url(#SVGID_10_);}
	.st10{fill:url(#SVGID_11_);}
	.st11{fill:url(#SVGID_12_);}
	.st12{fill:url(#SVGID_13_);}
	.st13{fill:url(#SVGID_14_);}
	.st14{fill:url(#SVGID_15_);}
	.st15{fill:url(#SVGID_16_);}
	.st16{fill:url(#SVGID_17_);}
	.st17{fill:url(#SVGID_18_);}
	.st18{fill:url(#SVGID_19_);}
	.st19{opacity:0.5;fill:url(#SVGID_20_);}
	.st20{opacity:0.5;fill:url(#SVGID_21_);}
	.st21{opacity:0.3;fill:url(#SVGID_22_);}
</style>
<g>
	<radialGradient id="SVGID_1_" cx="38.5182" cy="20.9167" r="92.2574" gradientUnits="userSpaceOnUse">
		<stop  offset="0" style="stop-color:#D1E1EE"/>
		<stop  offset="0.337" style="stop-color:#8EE1EE"/>
		<stop  offset="0.9444" style="stop-color:#732FA4"/>
	</radialGradient>
	<circle class="st0" cx="53.8" cy="53.8" r="43.6"/>
	<radialGradient id="SVGID_2_" cx="50.996" cy="53.2879" r="49.175" gradientUnits="userSpaceOnUse">
		<stop  offset="6.296300e-002" style="stop-color:#5E8DEC"/>
		<stop  offset="0.3261" style="stop-color:#6090EC;stop-opacity:0.7192"/>
		<stop  offset="0.5154" style="stop-color:#6599EC;stop-opacity:0.5171"/>
		<stop  offset="0.6817" style="stop-color:#6EA9ED;stop-opacity:0.3397"/>
		<stop  offset="0.8345" style="stop-color:#7BBFED;stop-opacity:0.1766"/>
		<stop  offset="0.9771" style="stop-color:#8BDCEE;stop-opacity:2.448386e-002"/>
		<stop  offset="1" style="stop-color:#8EE1EE;stop-opacity:0"/>
	</radialGradient>
	<circle class="st1" cx="53.8" cy="53.8" r="53.8"/>
	<g>
		<radialGradient id="SVGID_3_" cx="47.3666" cy="11.659" r="78.8809" gradientUnits="userSpaceOnUse">
			<stop  offset="0" style="stop-color:#D1E1EE"/>
			<stop  offset="0.337" style="stop-color:#8EE1EE"/>
			<stop  offset="0.9444" style="stop-color:#732FA4"/>
		</radialGradient>
		<path class="st2" d="M33.6,79.8c0.1-0.9-1.2-1.7-1.7-0.7c-2.1,4.4-0.3,8.3,1.9,12.4c0.3,0.5,0.6,1,0.9,1.5c2.2,1.1,4.5,2,6.9,2.6
			C37.6,91.2,32.8,85.2,33.6,79.8z"/>
		<radialGradient id="SVGID_4_" cx="47.3666" cy="11.6594" r="78.8806" gradientUnits="userSpaceOnUse">
			<stop  offset="0" style="stop-color:#D1E1EE"/>
			<stop  offset="0.337" style="stop-color:#8EE1EE"/>
			<stop  offset="0.9444" style="stop-color:#732FA4"/>
		</radialGradient>
		<path class="st3" d="M97.3,51.1c-0.1-0.8-0.1-1.6-0.2-2.4c-2-0.9-3.9-1.8-5.1-3.7c-1.9-3,0.3-4.5,3.1-5.4l0,0
			c-0.7-2-1.5-3.9-2.4-5.7l0,0c-4.4,1.4-8,4.8-7.9,9.7c0.1,5.8,6.6,11.4,12.7,12.6c0,0,0,0,0,0c0-0.8,0.1-1.5,0.1-2.3
			c0-0.9,0-1.7-0.1-2.6C97.3,51.2,97.3,51.1,97.3,51.1z"/>
		<radialGradient id="SVGID_5_" cx="47.3667" cy="11.6591" r="78.8809" gradientUnits="userSpaceOnUse">
			<stop  offset="0" style="stop-color:#D1E1EE"/>
			<stop  offset="0.337" style="stop-color:#8EE1EE"/>
			<stop  offset="0.9444" style="stop-color:#732FA4"/>
		</radialGradient>
		<path class="st4" d="M22.6,58c5.5-4,11.9-5.4,17.9-8.3c1.3-0.6,0.6-2.5-0.7-2.6c-7.6-0.2-15.7,4.4-21.1,9.5
			c-3,2.8-5.2,5.9-6.8,9.4l0,0c0.2,0.6,0.4,1.2,0.6,1.8c0,0,0,0,0,0.1c0.2,0.6,0.4,1.2,0.6,1.7C15.2,65,18.6,60.9,22.6,58z"/>
		<radialGradient id="SVGID_6_" cx="47.3667" cy="11.6592" r="78.8807" gradientUnits="userSpaceOnUse">
			<stop  offset="0" style="stop-color:#D1E1EE"/>
			<stop  offset="0.337" style="stop-color:#8EE1EE"/>
			<stop  offset="0.9444" style="stop-color:#732FA4"/>
		</radialGradient>
		<path class="st5" d="M40.4,42.7c12.1-1.4,25.5-3.6,36.3,3.5c3,2,6-2.3,3.7-4.8C70.2,30.7,53.2,34,40.2,36.1c-8.7,1.4-21,4-29.3,10
			c-0.2,1.4-0.4,2.8-0.5,4.2c0,0.2,0,0.3,0,0.5c0,0.4-0.1,0.8-0.1,1.3c3.8-2.3,7.5-4.5,11.9-5.9C28.1,44.2,34.2,43.4,40.4,42.7z"/>
		<radialGradient id="SVGID_7_" cx="47.3667" cy="11.6592" r="78.8808" gradientUnits="userSpaceOnUse">
			<stop  offset="0" style="stop-color:#D1E1EE"/>
			<stop  offset="0.337" style="stop-color:#8EE1EE"/>
			<stop  offset="0.9444" style="stop-color:#732FA4"/>
		</radialGradient>
		<path class="st6" d="M57.9,60.3c-11.2-5.5-24.9-2.4-32.1,8c-3.1,4.4-4.5,9.8-4.1,15.1c0,0,0,0,0,0c0.6,0.6,1.2,1.3,1.8,1.9
			c0.1,0.1,0.2,0.1,0.2,0.2c2,1.9,4.1,3.6,6.4,5.1c-2.2-4.7-2.5-10.3-0.5-14.8c3.5-7.7,12-12.3,20.3-10.4
			c6.8,1.5,20.2,12.2,10.8,18.9c-2.9,2.1-7.3,2.3-10.4,0.7c-1.3-0.6-3.8-2.3-3.9-4c-0.1-2.5,2.1-1,2.7,0.4c1.2,3,6.4,4,7.1,0
			c1.1-6-2.9-11.5-9.3-11.5c-6.3,0-11,5.6-10.4,11.7C38,94.9,55.9,98.1,65,90.6C76.5,81.1,69.6,66,57.9,60.3z"/>
		<radialGradient id="SVGID_8_" cx="47.3668" cy="11.6594" r="78.8805" gradientUnits="userSpaceOnUse">
			<stop  offset="0" style="stop-color:#D1E1EE"/>
			<stop  offset="0.337" style="stop-color:#8EE1EE"/>
			<stop  offset="0.9444" style="stop-color:#732FA4"/>
		</radialGradient>
		<path class="st7" d="M86,52c-1.6-0.8-3.4,1.2-2,2.6c2.9,2.7,5.9,5.4,8.1,8.8c1.1,1.6,1.9,3.4,2.8,5.1c0,0,0,0,0,0
			c0.3-1,0.7-2,0.9-2.9c0-0.1,0.1-0.3,0.1-0.4c0.1-0.5,0.2-1,0.4-1.4c0-0.1,0-0.2,0.1-0.3c0.1-0.5,0.2-1,0.3-1.6l0,0
			C93.8,57.7,89.7,54,86,52z"/>
		<radialGradient id="SVGID_9_" cx="47.3668" cy="11.6594" r="78.8803" gradientUnits="userSpaceOnUse">
			<stop  offset="0" style="stop-color:#D1E1EE"/>
			<stop  offset="0.337" style="stop-color:#8EE1EE"/>
			<stop  offset="0.9444" style="stop-color:#732FA4"/>
		</radialGradient>
		<path class="st8" d="M35.7,24.3c9.8,2.3,22.6,0,27.1-10.2c0.5-1,0.7-1.9,0.9-2.8c-2.2-0.5-4.4-0.8-6.7-1h0c0.2,0.3,0.3,0.6,0.3,1
			c0,2.7-5.6,5.7-7.6,6.5c-2.5,1-15.8,2.2-18.1-1.6c-0.7,0.4-1.3,0.8-1.9,1.2c0,0,0,0,0,0c-0.6,0.4-1.3,0.9-1.9,1.3
			C28.9,22,32.5,23.5,35.7,24.3z"/>
		<radialGradient id="SVGID_10_" cx="47.3668" cy="11.6591" r="78.8807" gradientUnits="userSpaceOnUse">
			<stop  offset="0" style="stop-color:#D1E1EE"/>
			<stop  offset="0.337" style="stop-color:#8EE1EE"/>
			<stop  offset="0.9444" style="stop-color:#732FA4"/>
		</radialGradient>
		<path class="st9" d="M77.8,84.7c-0.3-1-1.3-1.7-2.4-1.4c-2.7,0.8-4.3,4.2-5.8,6.4c-1.5,2.2-3.5,4-4.9,6.3c0,0,0,0,0,0
			c0.9-0.2,1.7-0.5,2.6-0.8c0.2-0.1,0.3-0.1,0.5-0.2c0.8-0.3,1.5-0.5,2.3-0.9c0.1,0,0.1,0,0.2-0.1c1.8-0.7,3.5-1.6,5.1-2.5l0,0
			C77,89.5,78.5,86.9,77.8,84.7z"/>
		<radialGradient id="SVGID_11_" cx="47.3668" cy="11.6594" r="78.8806" gradientUnits="userSpaceOnUse">
			<stop  offset="0" style="stop-color:#D1E1EE"/>
			<stop  offset="0.337" style="stop-color:#8EE1EE"/>
			<stop  offset="0.9444" style="stop-color:#732FA4"/>
		</radialGradient>
		<path class="st10" d="M87.7,81.1L87.7,81.1c0-0.3,0-0.7,0-1c-0.4-6.9-1.5-14-5.1-19.9c-3.1-5.1-7.7-9.3-13.1-11.9
			c-5.6-2.6-10.9-2.8-17-1.9c-1.6,0.2-1.2,2.7,0.4,2.8c9.2,0.3,19.3,6.4,23.8,14.4c4.2,7.4,4.6,16.6,3.4,25c0.7-0.5,1.3-1,2-1.6
			c0.1-0.1,0.2-0.1,0.3-0.2c0.6-0.5,1.2-1.1,1.8-1.6c0,0,0.1-0.1,0.1-0.1C85.5,83.7,86.6,82.4,87.7,81.1z"/>
		<radialGradient id="SVGID_12_" cx="47.3667" cy="11.6593" r="78.8804" gradientUnits="userSpaceOnUse">
			<stop  offset="0" style="stop-color:#D1E1EE"/>
			<stop  offset="0.337" style="stop-color:#8EE1EE"/>
			<stop  offset="0.9444" style="stop-color:#732FA4"/>
		</radialGradient>
		<path class="st11" d="M42.9,15.4c2,2.8,6.1,3.1,7.8-0.1c1-1.8-0.6-3.7-2.5-3.3c0.4-0.8,0.9-1.3,1.7-1.6l0,0
			c-0.7,0.1-1.3,0.1-1.9,0.2c0,0-0.1,0-0.1,0c-0.6,0.1-1.3,0.2-1.9,0.3c0,0-0.1,0-0.1,0c-0.6,0.1-1.3,0.3-1.9,0.4c0,0,0,0-0.1,0
			c-0.6,0.2-1.3,0.3-1.9,0.5C41.8,13,42.1,14.2,42.9,15.4z"/>
		<radialGradient id="SVGID_13_" cx="47.3665" cy="11.6594" r="78.8801" gradientUnits="userSpaceOnUse">
			<stop  offset="0" style="stop-color:#D1E1EE"/>
			<stop  offset="0.337" style="stop-color:#8EE1EE"/>
			<stop  offset="0.9444" style="stop-color:#732FA4"/>
		</radialGradient>
		<path class="st12" d="M15.2,56.2c2.4-1.7,5.1-3.1,7.1-5.3c0.8-0.9,0-2.2-1.1-1.9c-3,0.7-5.6,2.7-7.9,4.6c-1,0.8-2,1.6-3,2.5
			c0.1,1.3,0.2,2.5,0.4,3.8C12.2,58.7,13.6,57.3,15.2,56.2z"/>
		<radialGradient id="SVGID_14_" cx="47.3668" cy="11.6594" r="78.8804" gradientUnits="userSpaceOnUse">
			<stop  offset="0" style="stop-color:#D1E1EE"/>
			<stop  offset="0.337" style="stop-color:#8EE1EE"/>
			<stop  offset="0.9444" style="stop-color:#732FA4"/>
		</radialGradient>
		<path class="st13" d="M18.7,29.3c-0.4,0.1-0.8,0.1-1.2,0.2c-1.4,2.1-2.6,4.2-3.6,6.5c0.6,0.3,1.2,0.4,1.9,0.2
			c1.8-0.5,3.4-1.1,4.9-2.1c1.1-0.7,1.6-2.1,1.1-3.3C21.3,29.5,20.1,29.1,18.7,29.3z"/>
		<radialGradient id="SVGID_15_" cx="47.3667" cy="11.6594" r="78.8804" gradientUnits="userSpaceOnUse">
			<stop  offset="0" style="stop-color:#D1E1EE"/>
			<stop  offset="0.337" style="stop-color:#8EE1EE"/>
			<stop  offset="0.9444" style="stop-color:#732FA4"/>
		</radialGradient>
		<path class="st14" d="M67.4,62.9c2.6,3.8,3.2,8,5,12.1c0.4,1,2.2,0.8,2.4-0.3C76.3,64,64,54.7,54.7,53.3c-0.2,0-0.3,0.3-0.1,0.3
			C59.8,55.3,64.3,58.5,67.4,62.9z"/>
		<radialGradient id="SVGID_16_" cx="47.3669" cy="11.6593" r="78.8805" gradientUnits="userSpaceOnUse">
			<stop  offset="0" style="stop-color:#D1E1EE"/>
			<stop  offset="0.337" style="stop-color:#8EE1EE"/>
			<stop  offset="0.9444" style="stop-color:#732FA4"/>
		</radialGradient>
		<path class="st15" d="M16.6,75.2c2.7-5.7,6.3-11.2,10.8-15.7c0.3-0.3-0.1-0.9-0.5-0.7c-6.2,3.5-10.1,9.1-11.1,16.2
			c0,0.1,0,0.2,0.1,0.3c0,0,0,0,0,0C16,75.4,16.4,75.5,16.6,75.2z"/>
		<radialGradient id="SVGID_17_" cx="47.3667" cy="11.6594" r="78.8804" gradientUnits="userSpaceOnUse">
			<stop  offset="0" style="stop-color:#D1E1EE"/>
			<stop  offset="0.337" style="stop-color:#8EE1EE"/>
			<stop  offset="0.9444" style="stop-color:#732FA4"/>
		</radialGradient>
		<path class="st16" d="M63.8,18.3C58.3,22.7,52,26,45.9,29.6c-0.7,0.4-0.4,1.5,0.4,1.5c7.9,0.6,15.6-2.4,21.9-7.1
			c2.5-1.8,5.9-4.4,8.5-7.3h0c-0.6-0.4-1.2-0.7-1.8-1c0,0,0,0,0,0c-0.6-0.3-1.2-0.7-1.8-1c0,0,0,0,0,0c-1.2-0.6-2.5-1.2-3.8-1.7
			C67.6,14.9,65.8,16.7,63.8,18.3z"/>
		<radialGradient id="SVGID_18_" cx="47.3668" cy="11.6594" r="78.8805" gradientUnits="userSpaceOnUse">
			<stop  offset="0" style="stop-color:#D1E1EE"/>
			<stop  offset="0.337" style="stop-color:#8EE1EE"/>
			<stop  offset="0.9444" style="stop-color:#732FA4"/>
		</radialGradient>
		<path class="st17" d="M20.6,25.5c1.2,2.1,3.4,3.6,5.5,4.7c3.1,1.7,5.9,2.2,9.4,1.9c0.9-0.1,1.2-1.4,0.2-1.7
			c-2.6-0.6-5.7-1.6-8.1-2.8c-2-1-3.8-2.5-5.7-3.6C21.4,24.5,21,25,20.6,25.5z"/>
		<radialGradient id="SVGID_19_" cx="47.3665" cy="11.6592" r="78.8811" gradientUnits="userSpaceOnUse">
			<stop  offset="0" style="stop-color:#D1E1EE"/>
			<stop  offset="0.337" style="stop-color:#8EE1EE"/>
			<stop  offset="0.9444" style="stop-color:#732FA4"/>
		</radialGradient>
		<path class="st18" d="M82.7,21.2L82.7,21.2c-3.2,3.1-7.8,4.5-11.5,6.9c-1.2,0.8-0.7,2.7,0.7,2.7c4.6,0.2,10.9-1.6,15.2-5.1l0,0
			c-0.7-0.8-1.3-1.5-2.1-2.3c0,0-0.1-0.1-0.1-0.1C84.3,22.6,83.5,21.9,82.7,21.2z"/>
	</g>
	<radialGradient id="SVGID_20_" cx="40.2742" cy="32.9493" r="82.3112" gradientUnits="userSpaceOnUse">
		<stop  offset="0" style="stop-color:#D1E1EE"/>
		<stop  offset="0.337" style="stop-color:#8EE1EE"/>
		<stop  offset="0.9444" style="stop-color:#732FA4"/>
	</radialGradient>
	<path class="st19" d="M85.5,23.9c1.7,4.6,2.6,9.6,2.6,14.9c0,24.1-19.5,43.6-43.6,43.6c-12.5,0-23.8-5.3-31.7-13.7
		c6.1,16.8,22.1,28.7,41,28.7c24.1,0,43.6-19.5,43.6-43.6C97.4,42.2,92.9,31.7,85.5,23.9z"/>
	<radialGradient id="SVGID_21_" cx="37.1053" cy="28.9491" r="84.4955" gradientUnits="userSpaceOnUse">
		<stop  offset="0" style="stop-color:#D1E1EE"/>
		<stop  offset="0.337" style="stop-color:#8EE1EE"/>
		<stop  offset="0.9444" style="stop-color:#732FA4"/>
	</radialGradient>
	<path class="st20" d="M66.3,81.9c-24.1,0-43.6-19.5-43.6-43.6c0-6.8,1.6-13.3,4.3-19c-10.3,8-16.9,20.4-16.9,34.4
		c0,24.1,19.5,43.6,43.6,43.6C71,97.4,86,87.3,93,72.8C85.6,78.5,76.4,81.9,66.3,81.9z"/>
	<radialGradient id="SVGID_22_" cx="39.5686" cy="18.0928" r="77.2001" gradientUnits="userSpaceOnUse">
		<stop  offset="0" style="stop-color:#D1E1EE"/>
		<stop  offset="0.337" style="stop-color:#8EE1EE"/>
		<stop  offset="0.9444" style="stop-color:#732FA4"/>
	</radialGradient>
	<path class="st21" d="M50.1,19.3c24.1,0,43.6,19.5,43.6,43.6c0,4-0.5,7.9-1.6,11.5c3.3-6.2,5.2-13.2,5.2-20.7
		c0-24.1-19.5-43.6-43.6-43.6c-20.1,0-37,13.6-42,32.1C19.1,28.6,33.5,19.3,50.1,19.3z"/>
</g>
</svg>
