<?xml version="1.0" encoding="utf-8"?>
<!-- Generator: Adobe Illustrator 19.0.0, SVG Export Plug-In . SVG Version: 6.00 Build 0)  -->
<svg version="1.1" id="Layer_1" xmlns="http://www.w3.org/2000/svg" xmlns:xlink="http://www.w3.org/1999/xlink" x="0px" y="0px"
	 viewBox="0 0 135.5 135.5" style="enable-background:new 0 0 135.5 135.5;" xml:space="preserve">
<style type="text/css">
	.st0{fill:url(#XMLID_28_);}
	.st1{opacity:0.5;fill:url(#XMLID_29_);}
	.st2{fill:url(#XMLID_30_);}
	.st3{fill:url(#XMLID_31_);}
	.st4{fill:url(#XMLID_32_);}
	.st5{fill:url(#XMLID_33_);}
	.st6{fill:url(#XMLID_34_);}
	.st7{fill:url(#XMLID_35_);}
	.st8{fill:url(#XMLID_36_);}
	.st9{fill:url(#XMLID_37_);}
	.st10{fill:url(#XMLID_38_);}
	.st11{fill:url(#XMLID_39_);}
	.st12{fill:url(#XMLID_40_);}
	.st13{fill:url(#XMLID_41_);}
	.st14{fill:url(#XMLID_42_);}
	.st15{fill:url(#XMLID_43_);}
	.st16{fill:url(#XMLID_44_);}
	.st17{fill:url(#XMLID_45_);}
	.st18{fill:url(#XMLID_46_);}
	.st19{opacity:0.5;fill:url(#XMLID_47_);}
	.st20{opacity:0.5;fill:url(#XMLID_48_);}
	.st21{opacity:0.3;fill:url(#XMLID_49_);}
</style>
<g id="XMLID_147_">
	<radialGradient id="XMLID_28_" cx="48.548" cy="26.3633" r="116.2804" gradientUnits="userSpaceOnUse">
		<stop  offset="0" style="stop-color:#D1E1ED"/>
		<stop  offset="0.337" style="stop-color:#97D8E7"/>
		<stop  offset="0.9444" style="stop-color:#713C97"/>
	</radialGradient>
	<circle id="XMLID_145_" class="st0" cx="67.8" cy="67.8" r="54.9"/>
	<radialGradient id="XMLID_29_" cx="64.2749" cy="67.1636" r="61.9797" gradientUnits="userSpaceOnUse">
		<stop  offset="6.296300e-002" style="stop-color:#6988C5"/>
		<stop  offset="0.3035" style="stop-color:#6A8AC6;stop-opacity:0.7433"/>
		<stop  offset="0.4765" style="stop-color:#6D90C8;stop-opacity:0.5586"/>
		<stop  offset="0.6285" style="stop-color:#749BCD;stop-opacity:0.3965"/>
		<stop  offset="0.7682" style="stop-color:#7CABD4;stop-opacity:0.2473"/>
		<stop  offset="0.8984" style="stop-color:#89C0DD;stop-opacity:0.1084"/>
		<stop  offset="1" style="stop-color:#97D8E7;stop-opacity:0"/>
	</radialGradient>
	<circle id="XMLID_144_" class="st1" cx="67.8" cy="67.8" r="67.8"/>
	<g id="XMLID_151_">
		<radialGradient id="XMLID_30_" cx="59.7005" cy="14.695" r="99.4208" gradientUnits="userSpaceOnUse">
			<stop  offset="0" style="stop-color:#D1E1ED"/>
			<stop  offset="0.337" style="stop-color:#97D8E7"/>
			<stop  offset="0.9444" style="stop-color:#713C97"/>
		</radialGradient>
		<path id="XMLID_143_" class="st2" d="M42.4,100.5c0.2-1.2-1.5-2.1-2.1-0.9c-2.7,5.5-0.3,10.5,2.4,15.6c0.3,0.6,0.7,1.3,1.1,1.9
			c2.8,1.3,5.7,2.5,8.7,3.3C47.3,115,41.3,107.4,42.4,100.5z"/>
		<radialGradient id="XMLID_31_" cx="59.7004" cy="14.6955" r="99.4205" gradientUnits="userSpaceOnUse">
			<stop  offset="0" style="stop-color:#D1E1ED"/>
			<stop  offset="0.337" style="stop-color:#97D8E7"/>
			<stop  offset="0.9444" style="stop-color:#713C97"/>
		</radialGradient>
		<path id="XMLID_142_" class="st3" d="M122.6,64.4c-0.1-1-0.2-2.1-0.3-3.1c-2.5-1.1-5-2.3-6.5-4.7c-2.4-3.8,0.3-5.7,3.9-6.8l0,0
			c-0.9-2.5-1.9-4.9-3.1-7.2l0,0c-5.5,1.7-10.1,6-9.9,12.2c0.2,7.3,8.3,14.4,16,15.8c0,0,0,0,0,0c0.1-1,0.1-1.9,0.1-2.9
			c0-1.1,0-2.2-0.1-3.2C122.6,64.5,122.6,64.4,122.6,64.4z"/>
		<radialGradient id="XMLID_32_" cx="59.7006" cy="14.695" r="99.4208" gradientUnits="userSpaceOnUse">
			<stop  offset="0" style="stop-color:#D1E1ED"/>
			<stop  offset="0.337" style="stop-color:#97D8E7"/>
			<stop  offset="0.9444" style="stop-color:#713C97"/>
		</radialGradient>
		<path id="XMLID_141_" class="st4" d="M28.5,73.1c6.9-5.1,15-6.8,22.5-10.5c1.6-0.8,0.8-3.2-0.9-3.2c-9.6-0.2-19.8,5.5-26.6,11.9
			c-3.7,3.5-6.6,7.5-8.5,11.8l0,0c0.2,0.8,0.5,1.5,0.7,2.2c0,0,0,0.1,0,0.1c0.3,0.7,0.5,1.5,0.8,2.2C19.2,81.9,23.4,76.8,28.5,73.1z
			"/>
		<radialGradient id="XMLID_33_" cx="59.7006" cy="14.6952" r="99.4206" gradientUnits="userSpaceOnUse">
			<stop  offset="0" style="stop-color:#D1E1ED"/>
			<stop  offset="0.337" style="stop-color:#97D8E7"/>
			<stop  offset="0.9444" style="stop-color:#713C97"/>
		</radialGradient>
		<path id="XMLID_140_" class="st5" d="M50.9,53.8c15.2-1.8,32.1-4.5,45.7,4.4c3.8,2.5,7.6-2.9,4.7-6c-12.7-13.6-34.2-9.4-50.6-6.8
			c-11,1.8-26.5,5-37,12.6c-0.3,1.7-0.5,3.5-0.7,5.3c0,0.2,0,0.4,0,0.6c0,0.5-0.1,1.1-0.1,1.6c4.7-2.9,9.4-5.7,15-7.4
			C35.4,55.6,43.1,54.7,50.9,53.8z"/>
		<radialGradient id="XMLID_34_" cx="59.7006" cy="14.6952" r="99.4206" gradientUnits="userSpaceOnUse">
			<stop  offset="0" style="stop-color:#D1E1ED"/>
			<stop  offset="0.337" style="stop-color:#97D8E7"/>
			<stop  offset="0.9444" style="stop-color:#713C97"/>
		</radialGradient>
		<path id="XMLID_139_" class="st6" d="M73,76c-14.2-7-31.4-3-40.5,10.1c-3.8,5.6-5.6,12.3-5.1,19c0,0,0,0,0,0
			c0.7,0.8,1.5,1.6,2.3,2.4c0.1,0.1,0.2,0.2,0.3,0.3c2.5,2.4,5.2,4.5,8.1,6.4c-2.7-5.9-3.2-13-0.6-18.6c4.4-9.7,15.1-15.5,25.6-13.2
			c8.5,1.9,25.5,15.4,13.6,23.9c-3.6,2.6-9.2,2.8-13.1,0.9c-1.7-0.8-4.8-2.9-4.9-5.1c-0.1-3.1,2.7-1.3,3.4,0.5c1.5,3.8,8.1,5,9,0
			C72.4,94.9,67.3,88,59.3,88c-7.9,0-13.9,7.1-13.1,14.8c1.7,16.8,24.2,20.8,35.7,11.4C96.5,102.2,87.7,83.2,73,76z"/>
		<radialGradient id="XMLID_35_" cx="59.7007" cy="14.6954" r="99.4203" gradientUnits="userSpaceOnUse">
			<stop  offset="0" style="stop-color:#D1E1ED"/>
			<stop  offset="0.337" style="stop-color:#97D8E7"/>
			<stop  offset="0.9444" style="stop-color:#713C97"/>
		</radialGradient>
		<path id="XMLID_138_" class="st7" d="M108.3,65.6c-2-1-4.3,1.6-2.5,3.2c3.7,3.4,7.4,6.8,10.2,11.1c1.3,2,2.4,4.3,3.5,6.5
			c0,0,0,0,0,0c0.4-1.2,0.8-2.5,1.2-3.7c0-0.2,0.1-0.3,0.1-0.5c0.2-0.6,0.3-1.2,0.5-1.8c0-0.1,0.1-0.2,0.1-0.4
			c0.1-0.7,0.3-1.3,0.4-2l0,0C118.2,72.7,113,68.1,108.3,65.6z"/>
		<radialGradient id="XMLID_36_" cx="59.7006" cy="14.6954" r="99.42" gradientUnits="userSpaceOnUse">
			<stop  offset="0" style="stop-color:#D1E1ED"/>
			<stop  offset="0.337" style="stop-color:#97D8E7"/>
			<stop  offset="0.9444" style="stop-color:#713C97"/>
		</radialGradient>
		<path id="XMLID_137_" class="st8" d="M45,30.6c12.4,2.9,28.5,0,34.1-12.8c0.6-1.3,0.9-2.5,1.1-3.5c-2.7-0.6-5.5-1.1-8.4-1.3h0
			c0.2,0.3,0.3,0.8,0.3,1.3c0,3.5-7.1,7.2-9.5,8.2c-3.2,1.2-19.9,2.7-22.8-2c-0.8,0.5-1.6,1-2.4,1.5c0,0,0,0-0.1,0
			c-0.8,0.5-1.6,1.1-2.4,1.7C36.4,27.8,41,29.6,45,30.6z"/>
		<radialGradient id="XMLID_37_" cx="59.7007" cy="14.695" r="99.4205" gradientUnits="userSpaceOnUse">
			<stop  offset="0" style="stop-color:#D1E1ED"/>
			<stop  offset="0.337" style="stop-color:#97D8E7"/>
			<stop  offset="0.9444" style="stop-color:#713C97"/>
		</radialGradient>
		<path id="XMLID_136_" class="st9" d="M98,106.7c-0.4-1.2-1.7-2.1-3-1.7c-3.4,1-5.4,5.3-7.3,8c-1.9,2.7-4.4,5.1-6.1,7.9
			c0,0,0,0,0,0c1.1-0.3,2.2-0.6,3.2-1c0.2-0.1,0.4-0.1,0.6-0.2c1-0.3,1.9-0.7,2.9-1.1c0.1,0,0.1-0.1,0.2-0.1c2.2-0.9,4.4-2,6.4-3.1
			l0,0C97,112.8,98.9,109.6,98,106.7z"/>
		<radialGradient id="XMLID_38_" cx="59.7006" cy="14.6954" r="99.4205" gradientUnits="userSpaceOnUse">
			<stop  offset="0" style="stop-color:#D1E1ED"/>
			<stop  offset="0.337" style="stop-color:#97D8E7"/>
			<stop  offset="0.9444" style="stop-color:#713C97"/>
		</radialGradient>
		<path id="XMLID_135_" class="st10" d="M110.6,102.2L110.6,102.2c0-0.4,0-0.9-0.1-1.3c-0.5-8.6-1.9-17.6-6.4-25.1
			c-3.9-6.5-9.7-11.8-16.5-15c-7.1-3.3-13.7-3.5-21.4-2.4c-2.1,0.3-1.5,3.5,0.5,3.5c11.6,0.4,24.3,8.1,30,18.2
			c5.3,9.3,5.8,20.9,4.2,31.5c0.8-0.6,1.7-1.3,2.5-2c0.1-0.1,0.2-0.2,0.3-0.3c0.8-0.7,1.5-1.3,2.2-2c0,0,0.1-0.1,0.1-0.1
			C107.7,105.6,109.2,103.9,110.6,102.2z"/>
		<radialGradient id="XMLID_39_" cx="59.7006" cy="14.6953" r="99.4202" gradientUnits="userSpaceOnUse">
			<stop  offset="0" style="stop-color:#D1E1ED"/>
			<stop  offset="0.337" style="stop-color:#97D8E7"/>
			<stop  offset="0.9444" style="stop-color:#713C97"/>
		</radialGradient>
		<path id="XMLID_134_" class="st11" d="M54.1,19.4c2.5,3.5,7.7,3.9,9.8-0.1c1.2-2.3-0.8-4.6-3.2-4.1c0.5-1,1.2-1.7,2.1-2.1l0,0
			c-0.8,0.1-1.6,0.2-2.4,0.3c-0.1,0-0.1,0-0.2,0c-0.8,0.1-1.6,0.2-2.4,0.4c0,0-0.1,0-0.1,0c-0.8,0.1-1.6,0.3-2.4,0.5c0,0,0,0-0.1,0
			c-0.8,0.2-1.6,0.4-2.4,0.6C52.7,16.4,53.1,17.9,54.1,19.4z"/>
		<radialGradient id="XMLID_40_" cx="59.7003" cy="14.6954" r="99.4198" gradientUnits="userSpaceOnUse">
			<stop  offset="0" style="stop-color:#D1E1ED"/>
			<stop  offset="0.337" style="stop-color:#97D8E7"/>
			<stop  offset="0.9444" style="stop-color:#713C97"/>
		</radialGradient>
		<path id="XMLID_133_" class="st12" d="M19.2,70.8c3-2.2,6.4-3.9,8.9-6.7c1-1.1,0-2.8-1.4-2.4c-3.8,0.8-7,3.4-10,5.8
			c-1.3,1-2.6,2-3.8,3.1c0.1,1.6,0.2,3.2,0.5,4.8C15.4,73.9,17.2,72.2,19.2,70.8z"/>
		<radialGradient id="XMLID_41_" cx="59.7007" cy="14.6954" r="99.4202" gradientUnits="userSpaceOnUse">
			<stop  offset="0" style="stop-color:#D1E1ED"/>
			<stop  offset="0.337" style="stop-color:#97D8E7"/>
			<stop  offset="0.9444" style="stop-color:#713C97"/>
		</radialGradient>
		<path id="XMLID_132_" class="st13" d="M23.6,36.9c-0.5,0.1-1,0.2-1.5,0.3c-1.7,2.6-3.3,5.3-4.5,8.2c0.7,0.3,1.6,0.4,2.4,0.2
			c2.2-0.7,4.2-1.4,6.2-2.6c1.4-0.9,2-2.6,1.4-4.2C26.8,37.2,25.3,36.7,23.6,36.9z"/>
		<radialGradient id="XMLID_42_" cx="59.7006" cy="14.6953" r="99.4202" gradientUnits="userSpaceOnUse">
			<stop  offset="0" style="stop-color:#D1E1ED"/>
			<stop  offset="0.337" style="stop-color:#97D8E7"/>
			<stop  offset="0.9444" style="stop-color:#713C97"/>
		</radialGradient>
		<path id="XMLID_131_" class="st14" d="M84.9,79.2c3.3,4.7,4.1,10.1,6.3,15.2c0.5,1.2,2.8,1,3-0.4C96.2,80.7,80.7,68.9,69,67.1
			c-0.3,0-0.4,0.3-0.1,0.4C75.3,69.7,81,73.7,84.9,79.2z"/>
		<radialGradient id="XMLID_43_" cx="59.7008" cy="14.6953" r="99.4203" gradientUnits="userSpaceOnUse">
			<stop  offset="0" style="stop-color:#D1E1ED"/>
			<stop  offset="0.337" style="stop-color:#97D8E7"/>
			<stop  offset="0.9444" style="stop-color:#713C97"/>
		</radialGradient>
		<path id="XMLID_130_" class="st15" d="M20.9,94.8c3.4-7.2,8-14.1,13.6-19.8c0.4-0.4-0.1-1.2-0.7-0.9C26,78.6,21,85.6,19.9,94.5
			c0,0.1,0,0.2,0.1,0.3c0,0,0,0,0,0C20.2,95.1,20.7,95.1,20.9,94.8z"/>
		<radialGradient id="XMLID_44_" cx="59.7006" cy="14.6954" r="99.4202" gradientUnits="userSpaceOnUse">
			<stop  offset="0" style="stop-color:#D1E1ED"/>
			<stop  offset="0.337" style="stop-color:#97D8E7"/>
			<stop  offset="0.9444" style="stop-color:#713C97"/>
		</radialGradient>
		<path id="XMLID_129_" class="st16" d="M80.4,23c-7,5.6-14.9,9.8-22.5,14.2c-0.9,0.5-0.5,1.8,0.5,1.9c10,0.8,19.6-3,27.6-8.9
			c3.2-2.3,7.4-5.5,10.7-9.2h0c-0.7-0.4-1.5-0.9-2.2-1.3c0,0,0,0,0,0c-0.8-0.4-1.5-0.8-2.3-1.2c0,0,0,0,0,0
			c-1.6-0.8-3.2-1.5-4.8-2.1C85.2,18.8,82.9,21,80.4,23z"/>
		<radialGradient id="XMLID_45_" cx="59.7006" cy="14.6954" r="99.4203" gradientUnits="userSpaceOnUse">
			<stop  offset="0" style="stop-color:#D1E1ED"/>
			<stop  offset="0.337" style="stop-color:#97D8E7"/>
			<stop  offset="0.9444" style="stop-color:#713C97"/>
		</radialGradient>
		<path id="XMLID_128_" class="st17" d="M25.9,32.1c1.6,2.6,4.3,4.6,6.9,6c3.9,2.1,7.4,2.8,11.8,2.4c1.1-0.1,1.6-1.8,0.3-2.1
			c-3.3-0.8-7.1-2-10.2-3.5c-2.6-1.2-4.8-3.1-7.2-4.5C27,30.9,26.5,31.5,25.9,32.1z"/>
		<radialGradient id="XMLID_46_" cx="59.7003" cy="14.6952" r="99.4211" gradientUnits="userSpaceOnUse">
			<stop  offset="0" style="stop-color:#D1E1ED"/>
			<stop  offset="0.337" style="stop-color:#97D8E7"/>
			<stop  offset="0.9444" style="stop-color:#713C97"/>
		</radialGradient>
		<path id="XMLID_127_" class="st18" d="M104.3,26.7L104.3,26.7c-4,3.9-9.9,5.7-14.5,8.7c-1.6,1-0.9,3.3,0.9,3.4
			c5.8,0.3,13.8-2,19.2-6.4l0,0c-0.8-1-1.7-1.9-2.6-2.9c0,0-0.1-0.1-0.1-0.1C106.2,28.5,105.3,27.6,104.3,26.7z"/>
	</g>
	<radialGradient id="XMLID_47_" cx="50.7613" cy="41.529" r="103.7444" gradientUnits="userSpaceOnUse">
		<stop  offset="0" style="stop-color:#D1E1ED"/>
		<stop  offset="0.337" style="stop-color:#97D8E7"/>
		<stop  offset="0.9444" style="stop-color:#713C97"/>
	</radialGradient>
	<path id="XMLID_126_" class="st19" d="M107.8,30.1c2.1,5.8,3.3,12.2,3.3,18.7c0,30.3-24.6,54.9-54.9,54.9c-15.8,0-30-6.7-40-17.3
		c7.7,21.1,27.9,36.2,51.7,36.2c30.3,0,54.9-24.6,54.9-54.9C122.7,53.2,117,40,107.8,30.1z"/>
	<radialGradient id="XMLID_48_" cx="46.7672" cy="36.4872" r="106.4974" gradientUnits="userSpaceOnUse">
		<stop  offset="0" style="stop-color:#D1E1ED"/>
		<stop  offset="0.337" style="stop-color:#97D8E7"/>
		<stop  offset="0.9444" style="stop-color:#713C97"/>
	</radialGradient>
	<path id="XMLID_125_" class="st20" d="M83.6,103.2c-30.3,0-54.9-24.6-54.9-54.9c0-8.6,2-16.7,5.5-23.9
		C21.1,34.4,12.8,50.1,12.8,67.8c0,30.3,24.6,54.9,54.9,54.9c21.8,0,40.6-12.7,49.5-31C107.9,98.9,96.3,103.2,83.6,103.2z"/>
	<radialGradient id="XMLID_49_" cx="49.8719" cy="22.8041" r="97.3023" gradientUnits="userSpaceOnUse">
		<stop  offset="0" style="stop-color:#D1E1ED"/>
		<stop  offset="0.337" style="stop-color:#97D8E7"/>
		<stop  offset="0.9444" style="stop-color:#713C97"/>
	</radialGradient>
	<path id="XMLID_124_" class="st21" d="M63.2,24.3c30.3,0,54.9,24.6,54.9,54.9c0,5-0.7,9.9-2,14.5c4.2-7.8,6.6-16.6,6.6-26.1
		c0-30.3-24.6-54.9-54.9-54.9c-25.3,0-46.6,17.1-53,40.4C24.1,36,42.2,24.3,63.2,24.3z"/>
</g>
</svg>
