<?xml version="1.0" encoding="utf-8"?>
<!-- Generator: Adobe Illustrator 19.0.0, SVG Export Plug-In . SVG Version: 6.00 Build 0)  -->
<svg version="1.1" id="Layer_1" xmlns="http://www.w3.org/2000/svg" xmlns:xlink="http://www.w3.org/1999/xlink" x="0px" y="0px"
	 viewBox="0 0 1012.9 741.8" style="enable-background:new 0 0 1012.9 741.8;" xml:space="preserve">
<style type="text/css">
	.st0{opacity:0.5;fill:url(#SVGID_1_);}
	.st1{opacity:0.5;fill:url(#SVGID_2_);}
	.st2{opacity:0.5;fill:url(#SVGID_3_);}
	.st3{opacity:0.5;fill:url(#SVGID_4_);}
</style>
<g>
	<radialGradient id="SVGID_1_" cx="375.2857" cy="454.2262" r="307.6001" gradientUnits="userSpaceOnUse">
		<stop  offset="5.925930e-002" style="stop-color:#1B1F52"/>
		<stop  offset="0.2488" style="stop-color:#1B1E50;stop-opacity:0.7902"/>
		<stop  offset="0.4688" style="stop-color:#191D48;stop-opacity:0.5468"/>
		<stop  offset="0.7038" style="stop-color:#151A3C;stop-opacity:0.2868"/>
		<stop  offset="0.948" style="stop-color:#0E142B;stop-opacity:1.655048e-002"/>
		<stop  offset="0.963" style="stop-color:#0E132A;stop-opacity:0"/>
	</radialGradient>
	<path class="st0" d="M58.6,427.2c136.9-99,284.8-185,445.2-238c29.8-9.9,60.2-18.6,91.5-21.8c22.5-2.3,49.7,0.8,60.3,20.7
		c3.8,7.2,4.7,15.6,4.1,23.7c-2.6,33.8-29.6,60-54.5,82.9c-33.5,30.8-66.7,62.1-102.5,90.3c-36.5,28.7-75.8,54-110.1,85.4
		c-34.3,31.4-63.9,70.1-74.4,115.4c-2.2,9.4-2.9,20.7,4.2,27.1c7.5,6.7,19.2,4.2,28.8,1.2c105.9-33.5,207.2-84.5,317.3-99.8
		c7.4-1,15.3-1.8,21.9,1.7c13.5,7.1,13.3,26.6,8.2,40.9c-8.6,24.1-25.3,44.4-43,62.8c-43.4,45.2-94.4,82.2-145.1,119
		c-3.2-15.9-24.4-18.9-40.6-17.7c-42.8,3.2-85.3,10.2-126.9,20.8c-6-12.1,6.3-25,17.2-33c39.4-29,78.9-57.9,118.3-86.9
		c-70.9,1-136.2,37.2-205.9,50.1c-15,2.8-30.5,4.4-45.4,1.1c-14.9-3.3-29.2-12.2-35.8-25.9c-6.5-13.6-4.7-30,1.4-43.9
		c6.1-13.8,16-25.5,25.7-37.1c41.2-48.7,88.3-95.8,125.2-147.7c5.9-8.3,10.6-18,10.3-28.2c-0.1-3.9-1.1-8-3.6-11
		c-5.5-6.5-15.9-5.4-23.9-2.3c-27,10.4-54.9,28.8-77.1,47.1c-29.9,24.7-63.8,45.8-96.9,65.9c-14.5,8.8-29.5,17.4-46.1,20.4
		c-16.7,3-35.5-0.6-46.8-13.2c-14.7-16.3-12.4-41.7-5.4-62.5c8.2-24.3,21.7-46.8,39.4-65.4"/>
	<radialGradient id="SVGID_2_" cx="617.9764" cy="252.1938" r="331.3604" gradientUnits="userSpaceOnUse">
		<stop  offset="5.925930e-002" style="stop-color:#1B1F52"/>
		<stop  offset="0.2488" style="stop-color:#1B1E50;stop-opacity:0.7902"/>
		<stop  offset="0.4688" style="stop-color:#191D48;stop-opacity:0.5468"/>
		<stop  offset="0.7038" style="stop-color:#151A3C;stop-opacity:0.2868"/>
		<stop  offset="0.948" style="stop-color:#0E142B;stop-opacity:1.655048e-002"/>
		<stop  offset="0.963" style="stop-color:#0E132A;stop-opacity:0"/>
	</radialGradient>
	<path class="st1" d="M1004.7,297.2c-66.4,43.7-126.9,96.3-194.5,138.2c-67.6,41.9-145.2,73.4-224.6,68.5c-1.6-0.1-3.3-0.2-4.7-0.9
		c-7.7-3.7-1.9-15.3,4.4-21c44.7-40.7,85.7-85.5,122.2-133.7c17.8-23.5,34.6-47.8,48.6-73.8c6.2-11.4,36.3-68.7,5.9-72.4
		c-14.3-1.7-34.1,6.4-45.7,14.2c-19.9,13.4-35.1,32.4-50.8,50.5c-33,38.4-69,74.3-107.4,107.3c-13,11.1-26.4,22-41.9,29.3
		c-3.3,1.6-7,3-10.6,2.1c-10.9-2.6-7.4-19.2-0.8-28.3c18.2-25.2,40.7-46.9,60-71.1c19.3-24.3-26.4-2-23.4-32.9
		c1.6-16.7,60.3-86,46.5-95.6c-16.2-11.2-38.3-4.6-56.1,3.9c-50.4,24.1-93.7,60.3-139.2,92.7c-45.4,32.5-95.1,62.1-150.3,70.1
		c-4.1,0.6-8.6,1-12.3-0.7c-10.6-5-7.5-20.9-1.9-31.2c19-35.2,46.8-64.8,74.3-93.9C345.2,173.3,388,128,430.7,82.7
		c20.1-21.3,40.5-42.8,64.9-58.9c24.5-16.1,53.8-26.5,82.9-23.1c-37.2,41.9-74.3,83.8-111.5,125.6c-9.1,10.2-18.8,23.3-14.3,36.2
		c28.1,1.7,53.5-15,77.8-29.1c34.4-20,71.1-36.1,109.2-47.9c9.4-2.9,21.8-4.6,27.2,3.7c3.8,5.8,1.8,13.5-1,19.9
		c-21.9,50.7-79.7,81.1-94.8,134.2c-1.3,4.5-2.2,9.5-0.1,13.6c4.9,9.8,19.7,6.1,29.2,0.7c52.9-30,99.2-70.1,149-105.2
		c49.7-35,104.9-65.6,165.4-72.3c24-2.7,52.7,0.9,64.8,21.9c12.9,22.5-0.9,50.6-15.9,71.7c-28.1,39.7-61.1,76-98,107.6
		c-25.5,21.8-53.3,42-71.7,70c-6.8,10.3-12.3,21.9-12.4,34.2c-0.1,12.3,6.5,25.2,17.9,29.7c6.2,2.4,13.1,2.2,19.7,1.5
		c56.2-5.8,105.9-42.5,162.2-47.4c9.4-0.8,20-0.3,26.5,6.6c6.8,7.2,6.3,19.1,1.5,27.7c-4.9,8.6-13.2,14.7-21.3,20.3
		c-49.6,34-104,60.9-161.2,79.7"/>
	<radialGradient id="SVGID_3_" cx="722.0907" cy="528.6809" r="199.1234" gradientUnits="userSpaceOnUse">
		<stop  offset="5.925930e-002" style="stop-color:#431955"/>
		<stop  offset="0.2386" style="stop-color:#411953;stop-opacity:0.8016"/>
		<stop  offset="0.4466" style="stop-color:#3C184C;stop-opacity:0.5713"/>
		<stop  offset="0.669" style="stop-color:#331640;stop-opacity:0.3253"/>
		<stop  offset="0.8999" style="stop-color:#271130;stop-opacity:6.978965e-002"/>
		<stop  offset="0.963" style="stop-color:#230F2A;stop-opacity:0"/>
	</radialGradient>
	<path class="st2" d="M831.6,334.9c-83.3,74.6-177.5,136.8-257.1,215.4c-29.3,29-58.3,64.6-56.7,105.8c0.1,2.7,0.4,5.5,1.9,7.8
		c3.2,4.8,10.3,4.8,16,3.9c72.1-12,123.8-82.1,195.7-94.9c0.7,10.4-7.4,19-14.8,26.3c-33.3,32.5-66.1,69.2-75.7,114.7
		c-0.5,2.3-0.8,5,0.7,6.8c1.7,2.1,4.8,2,7.5,1.6c38.6-5.3,73-27.3,101.9-53.4c28.9-26.1,53.7-56.4,82-83.1
		c32.1-30.2,69.2-56.2,93.5-93.1c-6.8-4.4-15.9-3.5-23.1,0.2c-7.2,3.7-12.8,9.8-18.3,15.7c-29.4,31.3-60.6,60.9-93.5,88.6
		c-12.6,10.7-26.2,21.4-42.3,24.8c31.1-43.4,78.8-75.1,100.2-123.9c1.7-3.8,3.2-8.1,1.6-12c-1.4-3.5-5-5.6-8.6-6.8
		c-13.8-4.8-29.1-0.3-42.4,5.7c-41.1,18.5-76.7,51.5-121.3,58.4c-6.5,1-15,0.1-16.7-6.2c-0.9-3.2,0.5-6.6,2.1-9.5
		c14.9-28.8,42.8-48.2,68.8-67.6c36.7-27.4,72.6-58.6,92.1-100.1c2.7-5.8,5.1-12.6,2.6-18.6c-2.5-5.9-12.4-8.1-15.2-2.3"/>
	<radialGradient id="SVGID_4_" cx="198.7991" cy="250.5078" r="202.5788" gradientUnits="userSpaceOnUse">
		<stop  offset="5.925930e-002" style="stop-color:#431955"/>
		<stop  offset="0.2386" style="stop-color:#411953;stop-opacity:0.8016"/>
		<stop  offset="0.4466" style="stop-color:#3C184C;stop-opacity:0.5713"/>
		<stop  offset="0.669" style="stop-color:#331640;stop-opacity:0.3253"/>
		<stop  offset="0.8999" style="stop-color:#271130;stop-opacity:6.978965e-002"/>
		<stop  offset="0.963" style="stop-color:#230F2A;stop-opacity:0"/>
	</radialGradient>
	<path class="st3" d="M371.1,97.4c-42.2,48.2-64.5,124-116.1,162c-7.1,5.2-14.6,10.3-23.1,12.4c-8.6,2-18.5,0.4-24.3-6.2
		c-5.8-6.6-6.2-16.3-4.7-25c6.9-39.5,44.7-66.8,56.6-105.1c2.5-7.9,3.2-17.8-3-23.3c-4.9-4.3-12.2-4.1-18.5-2.6
		c-20.6,4.9-36.8,20.2-52.6,34.2c-17.5,15.5-35.9,30.1-54.9,43.6c-7.7,5.5-17.7,11-26.1,6.6c6.5-16.9,18.9-30.7,31-44.2
		c22.5-25,45-50.2,61.7-79.3c4.6-8,8.8-17.8,4.9-26.2c-12.7-0.4-24.1,7.3-34.1,15.1C115.5,99.9,73.1,151.7,31.2,203
		c-10.6,13.1-21.5,26.4-27.8,42c-2.4,6-4.2,12.5-3.2,18.9c0.9,6.4,5.1,12.7,11.3,14.5c3.8,1.1,7.8,0.6,11.7-0.4
		c20-5.1,34.9-21.1,49.7-35.4c14.9-14.3,30.9-27.6,47.8-39.6c11.2-8,24.7-15.7,37.9-12c-5.5,10.3-15.7,17.1-24.3,24.9
		c-8.7,7.9-16.5,18.6-14.9,30.2c0.3,2.3,1.1,4.7,2.9,6.2c3.5,2.9,8.8,1.1,12.8-1.2c26.1-14.7,43.6-40.5,64.2-62.2
		c5-5.2,11.2-10.6,18.3-9.9c-9,27.3-28.3,49.9-48.4,70.5c-41.8,42.6-89.5,79.8-125.8,127.2c-11,14.3-21.2,30.4-22.8,48.3
		c-0.7,7.8,0.4,16.1,5.2,22.3c10.3,13.2,30.9,10.4,46.6,4.5c47-17.4,87.4-49.2,123.9-83.6c75.3-70.9,138-155.2,184.2-247.7
		c4.4-8.8,8.9-18,17-23.5L371.1,97.4z"/>
</g>
</svg>
