<?xml version="1.0" encoding="utf-8"?>
<!-- Generator: Adobe Illustrator 19.0.0, SVG Export Plug-In . SVG Version: 6.00 Build 0)  -->
<svg version="1.1" id="Layer_1" xmlns="http://www.w3.org/2000/svg" xmlns:xlink="http://www.w3.org/1999/xlink" x="0px" y="0px"
	 viewBox="0 0 381.6 381.6" style="enable-background:new 0 0 381.6 381.6;" xml:space="preserve">
<style type="text/css">
	.st0{fill:#F9FBFC;}
	.st1{fill:#E1E1E0;}
	.st2{fill:#BDBDBD;}
	.st3{fill:#F5F5F5;}
	.st4{opacity:0.1;fill:#212120;}
	.st5{opacity:0.5;fill:url(#SVGID_1_);}
</style>
<g>
	<circle class="st0" cx="190.8" cy="190.8" r="142.7"/>
	<g>
		<circle class="st1" cx="101" cy="139.7" r="22.5"/>
		<path class="st2" d="M80.5,141.6c0-12.4,10.1-22.5,22.5-22.5c5.7,0,10.9,2.1,14.9,5.7c-4.1-4.6-10.1-7.6-16.8-7.6
			c-12.4,0-22.5,10.1-22.5,22.5c0,6.7,2.9,12.7,7.6,16.8C82.6,152.6,80.5,147.4,80.5,141.6z"/>
		<path class="st3" d="M101.9,117.2c-0.1,0-0.3,0-0.4,0c12.2,0.2,22,10.2,22,22.5c0,12.4-10.1,22.5-22.5,22.5
			c-12.3,0-22.2-9.8-22.5-22c0,0.1,0,0.3,0,0.4c0,12.9,10.5,23.4,23.4,23.4c12.9,0,23.4-10.5,23.4-23.4
			C125.2,127.7,114.8,117.2,101.9,117.2z"/>
	</g>
	<g>
		<circle class="st1" cx="250.2" cy="100.4" r="11.2"/>
		<path class="st2" d="M240,101.3c0-6.2,5-11.2,11.2-11.2c2.9,0,5.5,1.1,7.4,2.8c-2.1-2.3-5.1-3.8-8.4-3.8c-6.2,0-11.2,5-11.2,11.2
			c0,3.3,1.5,6.3,3.8,8.4C241,106.8,240,104.2,240,101.3z"/>
		<path class="st3" d="M250.7,89.1c-0.1,0-0.1,0-0.2,0c6.1,0.1,11,5.1,11,11.2c0,6.2-5,11.2-11.2,11.2c-6.1,0-11.1-4.9-11.2-11
			c0,0.1,0,0.1,0,0.2c0,6.4,5.2,11.7,11.7,11.7s11.7-5.2,11.7-11.7C262.3,94.3,257.1,89.1,250.7,89.1z"/>
	</g>
	<g>
		<circle class="st1" cx="289.5" cy="214.3" r="28"/>
		<path class="st2" d="M263.9,216.7c0-15.5,12.6-28,28-28c7.1,0,13.6,2.7,18.6,7.1c-5.1-5.8-12.6-9.4-21-9.4c-15.5,0-28,12.6-28,28
			c0,8.4,3.7,15.8,9.4,21C266.6,230.3,263.9,223.8,263.9,216.7z"/>
		<path class="st3" d="M290.6,186.3c-0.2,0-0.4,0-0.6,0c15.2,0.3,27.5,12.7,27.5,28c0,15.5-12.6,28-28,28c-15.3,0-27.7-12.3-28-27.5
			c0,0.2,0,0.4,0,0.6c0,16.1,13,29.1,29.1,29.1c16.1,0,29.1-13,29.1-29.1C319.8,199.3,306.7,186.3,290.6,186.3z"/>
	</g>
	<g>
		<circle class="st1" cx="214.6" cy="279.8" r="28"/>
		<path class="st2" d="M189,282.2c0-15.5,12.6-28,28-28c7.1,0,13.6,2.7,18.6,7.1c-5.1-5.8-12.6-9.4-21-9.4c-15.5,0-28,12.6-28,28
			c0,8.4,3.7,15.8,9.4,21C191.7,295.8,189,289.3,189,282.2z"/>
		<path class="st3" d="M215.7,251.7c-0.2,0-0.4,0-0.6,0c15.2,0.3,27.5,12.7,27.5,28c0,15.5-12.6,28-28,28c-15.3,0-27.7-12.3-28-27.5
			c0,0.2,0,0.4,0,0.6c0,16.1,13,29.1,29.1,29.1s29.1-13,29.1-29.1C244.9,264.8,231.8,251.7,215.7,251.7z"/>
	</g>
	<g>
		<circle class="st1" cx="159.1" cy="262.7" r="15.8"/>
		<path class="st2" d="M144.7,264.1c0-8.7,7.1-15.8,15.8-15.8c4,0,7.7,1.5,10.5,4c-2.9-3.3-7.1-5.3-11.8-5.3
			c-8.7,0-15.8,7.1-15.8,15.8c0,4.7,2.1,8.9,5.3,11.8C146.2,271.8,144.7,268.1,144.7,264.1z"/>
		<path class="st3" d="M159.8,247c-0.1,0-0.2,0-0.3,0c8.6,0.2,15.5,7.2,15.5,15.8c0,8.7-7.1,15.8-15.8,15.8
			c-8.6,0-15.6-6.9-15.8-15.5c0,0.1,0,0.2,0,0.3c0,9.1,7.3,16.4,16.4,16.4c9.1,0,16.4-7.3,16.4-16.4
			C176.2,254.3,168.8,247,159.8,247z"/>
	</g>
	<g>
		<circle class="st1" cx="188.5" cy="240.9" r="9.6"/>
		<path class="st2" d="M179.8,241.7c0-5.3,4.3-9.6,9.6-9.6c2.4,0,4.6,0.9,6.3,2.4c-1.8-2-4.3-3.2-7.2-3.2c-5.3,0-9.6,4.3-9.6,9.6
			c0,2.8,1.2,5.4,3.2,7.2C180.7,246.4,179.8,244.2,179.8,241.7z"/>
		<path class="st3" d="M188.9,231.4c-0.1,0-0.1,0-0.2,0c5.2,0.1,9.4,4.3,9.4,9.6c0,5.3-4.3,9.6-9.6,9.6c-5.2,0-9.4-4.2-9.6-9.4
			c0,0.1,0,0.1,0,0.2c0,5.5,4.4,9.9,9.9,9.9c5.5,0,9.9-4.4,9.9-9.9S194.4,231.4,188.9,231.4z"/>
	</g>
	<g>
		<circle class="st1" cx="315.4" cy="174.7" r="10.8"/>
		<path class="st2" d="M305.5,175.6c0-6,4.8-10.8,10.8-10.8c2.7,0,5.3,1,7.2,2.7c-2-2.2-4.9-3.6-8.1-3.6c-6,0-10.8,4.8-10.8,10.8
			c0,3.2,1.4,6.1,3.6,8.1C306.6,180.9,305.5,178.4,305.5,175.6z"/>
		<path class="st3" d="M315.8,163.9c-0.1,0-0.1,0-0.2,0c5.9,0.1,10.6,4.9,10.6,10.8c0,6-4.8,10.8-10.8,10.8
			c-5.9,0-10.7-4.7-10.8-10.6c0,0.1,0,0.1,0,0.2c0,6.2,5,11.2,11.2,11.2c6.2,0,11.2-5,11.2-11.2S322.1,163.9,315.8,163.9z"/>
	</g>
	<g>
		<circle class="st1" cx="115.4" cy="188.1" r="14.2"/>
		<path class="st2" d="M102.4,189.3c0-7.9,6.4-14.2,14.2-14.2c3.6,0,6.9,1.4,9.4,3.6c-2.6-2.9-6.4-4.8-10.7-4.8
			c-7.9,0-14.2,6.4-14.2,14.2c0,4.2,1.9,8.1,4.8,10.7C103.7,196.2,102.4,192.9,102.4,189.3z"/>
		<path class="st3" d="M116,173.8c-0.1,0-0.2,0-0.3,0c7.7,0.2,14,6.5,14,14.2c0,7.9-6.4,14.2-14.2,14.2c-7.8,0-14.1-6.2-14.2-14
			c0,0.1,0,0.2,0,0.3c0,8.2,6.6,14.8,14.8,14.8c8.2,0,14.8-6.6,14.8-14.8C130.8,180.4,124.1,173.8,116,173.8z"/>
	</g>
	<g>
		<circle class="st1" cx="147.8" cy="136.1" r="11.9"/>
		<path class="st2" d="M136.9,137.1c0-6.6,5.3-11.9,11.9-11.9c3,0,5.8,1.1,7.9,3c-2.2-2.5-5.4-4-8.9-4c-6.6,0-11.9,5.3-11.9,11.9
			c0,3.6,1.6,6.7,4,8.9C138,142.9,136.9,140.1,136.9,137.1z"/>
		<path class="st3" d="M148.3,124.1c-0.1,0-0.2,0-0.2,0c6.5,0.1,11.7,5.4,11.7,11.9c0,6.6-5.3,11.9-11.9,11.9
			c-6.5,0-11.8-5.2-11.9-11.7c0,0.1,0,0.2,0,0.2c0,6.9,5.6,12.4,12.4,12.4c6.9,0,12.4-5.6,12.4-12.4
			C160.7,129.7,155.1,124.1,148.3,124.1z"/>
	</g>
	<g>
		<circle class="st1" cx="126.3" cy="271.1" r="8.1"/>
		<path class="st2" d="M118.9,271.8c0-4.4,3.6-8.1,8.1-8.1c2,0,3.9,0.8,5.3,2c-1.5-1.7-3.6-2.7-6-2.7c-4.4,0-8.1,3.6-8.1,8.1
			c0,2.4,1,4.6,2.7,6C119.7,275.7,118.9,273.8,118.9,271.8z"/>
		<path class="st3" d="M126.6,263c-0.1,0-0.1,0-0.2,0c4.4,0.1,7.9,3.7,7.9,8c0,4.4-3.6,8.1-8.1,8.1c-4.4,0-8-3.5-8-7.9
			c0,0.1,0,0.1,0,0.2c0,4.6,3.7,8.4,8.4,8.4c4.6,0,8.4-3.7,8.4-8.4C135,266.8,131.2,263,126.6,263z"/>
	</g>
	<path class="st4" d="M190.8,272.7c-63.9,0-118.7-38.7-142.2-94c-0.3,4-0.5,8-0.5,12.1c0,78.8,63.9,142.7,142.7,142.7
		s142.7-63.9,142.7-142.7c0-4.1-0.2-8.1-0.5-12.1C309.5,233.9,254.7,272.7,190.8,272.7z"/>
	<path class="st4" d="M190.8,305.2c-59.7,0-111.7-32.9-138.9-81.5c14.8,63,71.4,109.9,138.9,109.9s124.1-46.9,138.9-109.9
		C302.5,272.3,250.5,305.2,190.8,305.2z"/>
</g>
<radialGradient id="SVGID_1_" cx="190.8086" cy="190.8086" r="190.8086" gradientUnits="userSpaceOnUse">
	<stop  offset="0.6866" style="stop-color:#FFFFFF"/>
	<stop  offset="0.9696" style="stop-color:#FFFFFF;stop-opacity:0"/>
</radialGradient>
<circle class="st5" cx="190.8" cy="190.8" r="190.8"/>
</svg>
