<?xml version="1.0" encoding="utf-8"?>
<!-- Generator: Adobe Illustrator 19.0.0, SVG Export Plug-In . SVG Version: 6.00 Build 0)  -->
<svg version="1.1" id="Layer_1" xmlns="http://www.w3.org/2000/svg" xmlns:xlink="http://www.w3.org/1999/xlink" x="0px" y="0px"
	 viewBox="0 0 146.7 143.5" style="enable-background:new 0 0 146.7 143.5;" xml:space="preserve">
<style type="text/css">
	.st0{display:none;fill:url(#XMLID_30_);}
	.st1{display:none;fill:#DD0E7C;}
	.st2{opacity:0.5;fill:url(#XMLID_31_);}
	.st3{opacity:0.5;fill:url(#XMLID_32_);}
	.st4{fill:url(#XMLID_33_);}
	.st5{opacity:0.5;fill:url(#XMLID_34_);}
	.st6{opacity:0.5;fill:url(#XMLID_35_);}
	.st7{opacity:0.4;}
	.st8{fill:url(#XMLID_36_);}
	.st9{fill:url(#XMLID_37_);}
	.st10{fill:url(#XMLID_38_);}
	.st11{fill:url(#XMLID_39_);}
	.st12{opacity:0.5;fill:url(#XMLID_40_);}
	.st13{opacity:0.5;fill:url(#XMLID_41_);}
	.st14{opacity:0.5;fill:url(#XMLID_42_);}
	.st15{opacity:0.5;fill:url(#XMLID_43_);}
	.st16{opacity:0.5;fill:url(#XMLID_44_);}
	.st17{opacity:0.5;fill:url(#XMLID_45_);}
	.st18{opacity:0.5;fill:url(#XMLID_46_);}
	.st19{opacity:0.5;fill:url(#XMLID_47_);}
	.st20{opacity:0.25;fill:url(#XMLID_48_);}
</style>
<g id="XMLID_169_">
	
		<radialGradient id="XMLID_30_" cx="324.9867" cy="-118.2736" r="75.3169" gradientTransform="matrix(1.4097 -0.4873 0.4982 1.3789 -323.5363 394.3993)" gradientUnits="userSpaceOnUse">
		<stop  offset="8.148150e-002" style="stop-color:#E0AC44"/>
		<stop  offset="0.8519" style="stop-color:#E0AC44;stop-opacity:0"/>
	</radialGradient>
	<path id="XMLID_167_" class="st0" d="M164,40.4c17.7,49-8.6,102.7-58.6,120c-50.1,17.3-105-8.4-122.7-57.3
		C-35,54.1-8.8,0.4,41.3-16.9C91.4-34.2,146.3-8.6,164,40.4z"/>
	<path id="XMLID_166_" class="st1" d="M402.5,225.3c13.5,37.4-6.5,78.3-44.7,91.5c-38.2,13.2-80.1-6.4-93.6-43.7
		c-13.5-37.4,6.5-78.3,44.7-91.5C347.1,168.4,389,188,402.5,225.3z"/>
	
		<radialGradient id="XMLID_31_" cx="315.6293" cy="-124.1446" r="42.7186" gradientTransform="matrix(1.4097 -0.4873 0.4982 1.3789 -323.5363 394.3993)" gradientUnits="userSpaceOnUse">
		<stop  offset="3.703740e-003" style="stop-color:#97D8E7"/>
		<stop  offset="0.937" style="stop-color:#6988C5"/>
	</radialGradient>
	<path id="XMLID_165_" class="st2" d="M11.8,98.2C-1.7,60.9,18.4,19.9,56.6,6.7c15-5.2,30.5-5.3,44.7-1.3C85.2-1.1,66.7-2,48.9,4.1
		C10.7,17.3-9.3,58.3,4.2,95.6c8.2,22.7,26.9,38.8,48.8,45C34.5,133.2,19.1,118.3,11.8,98.2z"/>
	
		<radialGradient id="XMLID_32_" cx="322.2253" cy="-117.1737" r="47.0681" gradientTransform="matrix(1.4097 -0.4873 0.4982 1.3789 -323.5363 394.3993)" gradientUnits="userSpaceOnUse">
		<stop  offset="7.407410e-003" style="stop-color:#B31E5B"/>
		<stop  offset="1" style="stop-color:#5D2D7D"/>
	</radialGradient>
	<path id="XMLID_164_" class="st3" d="M107.2,108.8c-35.4,12.3-74.3-5.9-86.9-40.6c-5.8-16-4.9-32.6,1.1-47.2
		C2.2,40-5.5,68.8,4.2,95.6c13.5,37.4,55.4,56.9,93.6,43.7c29.6-10.2,48.3-37.2,48.9-66.2C139.3,89.3,125.5,102.5,107.2,108.8z"/>
	
		<radialGradient id="XMLID_33_" cx="354.0556" cy="-82.6623" r="62.9335" gradientTransform="matrix(1.4097 -0.4873 0.4982 1.3789 -323.5363 394.3993)" gradientUnits="userSpaceOnUse">
		<stop  offset="7.407410e-003" style="stop-color:#B31E5B"/>
		<stop  offset="1" style="stop-color:#5D2D7D"/>
	</radialGradient>
	<path id="XMLID_163_" class="st4" d="M93.4,2.8c8,7.2,14.4,16.3,18.3,27c12.5,34.7-6.1,72.8-41.5,85c-21,7.3-43.2,3.8-60.4-7.4
		c17.3,29.5,54.1,43.6,88,31.9c38.2-13.2,58.2-54.2,44.7-91.5C134.3,25.1,115.5,8.9,93.4,2.8z"/>
	<g id="XMLID_187_">
		
			<radialGradient id="XMLID_34_" cx="324.2473" cy="-124.6548" r="35.0313" gradientTransform="matrix(1.4097 -0.4873 0.4982 1.3789 -323.5363 394.3993)" gradientUnits="userSpaceOnUse">
			<stop  offset="3.703740e-003" style="stop-color:#97D8E7"/>
			<stop  offset="0.937" style="stop-color:#6988C5"/>
		</radialGradient>
		<path id="XMLID_162_" class="st5" d="M0,74.2c0.1,2.7,0.4,5.3,0.8,8c8,3.1,17.7,2.6,26,2.2c14.5-0.7,28.9-2.7,43.1-5.8
			c14.6-3.2,28.8-8.1,42.4-14.1c10.1-4.5,21.2-9.6,30.2-16.6c0,0,0,0,0-0.1c-1-2.8-2.2-5.4-3.5-8c-10.2,4.5-20,10.4-30.3,14.7
			c-11.6,4.9-23.6,8.7-35.8,12c-12.6,3.3-25.5,5.6-38.5,6.8C24.3,74.3,10.7,76.8,0,74.2z"/>
		
			<radialGradient id="XMLID_35_" cx="323.6526" cy="-89.6777" r="30.5318" gradientTransform="matrix(1.4097 -0.4873 0.4982 1.3789 -323.5363 394.3993)" gradientUnits="userSpaceOnUse">
			<stop  offset="3.703740e-003" style="stop-color:#97D8E7"/>
			<stop  offset="0.937" style="stop-color:#6988C5"/>
		</radialGradient>
		<path id="XMLID_161_" class="st6" d="M145.5,84.5c-15.8,9.5-31.7,18.7-49.5,25.1c-12.4,4.4-25.3,7.8-38.3,10.3
			c-10.6,2-22.7,1.8-32.9,5.6c2.3,2,4.8,3.9,7.4,5.6c9.6,1,20-1,28.9-2.5c13-2.1,25.8-5.6,38.2-10c14.1-5.1,28.7-11.4,41.9-19.6
			C143.1,94.3,144.6,89.5,145.5,84.5z"/>
	</g>
	<g id="XMLID_182_" class="st7">
		
			<radialGradient id="XMLID_36_" cx="323.1999" cy="-104.1999" r="33.4868" gradientTransform="matrix(1.4097 -0.4873 0.4982 1.3789 -323.5363 394.3993)" gradientUnits="userSpaceOnUse">
			<stop  offset="7.407410e-003" style="stop-color:#B31E5B"/>
			<stop  offset="1" style="stop-color:#5D2D7D"/>
		</radialGradient>
		<path id="XMLID_160_" class="st8" d="M97.1,83.1c-18.5,7.2-37.6,13-57.1,17c-9.3,1.9-18.8,3.8-28.2,4.9c-1.1,0.1-2.2,0.2-3.3,0.3
			c3,5.5,6.6,10.5,10.7,14.9c6-0.4,11.5-1.2,15.6-1.8c22.6-3.2,45.1-8.2,66.5-16.1c15.3-5.6,30.5-12.4,44.7-20.6
			c1.1-7.7,1-15.6-0.6-23.5C130.1,68.1,114.1,76.4,97.1,83.1z"/>
		
			<radialGradient id="XMLID_37_" cx="323.3906" cy="-76.9066" r="21.5577" gradientTransform="matrix(1.4097 -0.4873 0.4982 1.3789 -323.5363 394.3993)" gradientUnits="userSpaceOnUse">
			<stop  offset="7.407410e-003" style="stop-color:#B31E5B"/>
			<stop  offset="1" style="stop-color:#5D2D7D"/>
		</radialGradient>
		<path id="XMLID_159_" class="st9" d="M87.6,133.4C74.5,138,61.2,137.7,48,139c15.5,5.6,33,6.2,49.8,0.3c16.8-5.8,30-17,38.5-30.8
			c-7.7,2.6-14.6,8.1-21.5,12.1C106,125.5,97.1,130.2,87.6,133.4z"/>
		
			<radialGradient id="XMLID_38_" cx="325.3729" cy="-161.9622" r="19.9269" gradientTransform="matrix(1.4097 -0.4873 0.4982 1.3789 -323.5363 394.3993)" gradientUnits="userSpaceOnUse">
			<stop  offset="7.407410e-003" style="stop-color:#B31E5B"/>
			<stop  offset="1" style="stop-color:#5D2D7D"/>
		</radialGradient>
		<path id="XMLID_158_" class="st10" d="M14.8,28.5c4.1-0.6,8.2-1.4,12-2.1c12-2.1,24.1-4.7,35.8-8.2C73.7,15,86.6,10.5,98,4.2
			c-6.8-2.4-13.9-3.8-21.2-4.1c-6.5,2.7-13.1,5-19.7,7.1c-9.1,2.8-18.3,5.1-27.7,7.1C23.8,18.4,18.9,23.2,14.8,28.5z"/>
		
			<radialGradient id="XMLID_39_" cx="324.7063" cy="-140.2584" r="32.5683" gradientTransform="matrix(1.4097 -0.4873 0.4982 1.3789 -323.5363 394.3993)" gradientUnits="userSpaceOnUse">
			<stop  offset="7.407410e-003" style="stop-color:#B31E5B"/>
			<stop  offset="1" style="stop-color:#5D2D7D"/>
		</radialGradient>
		<path id="XMLID_157_" class="st11" d="M32.6,70.3c22.8-0.4,44.7-9.8,65-19c12.6-5.7,25.1-11.8,37.1-18.7c-5-7.5-11.3-13.9-18.5-19
			c-8.9,5-18,9.6-27.3,13.8c-18,8.3-36.8,16.8-56.8,19c-9.2,1-18.3,0.8-27.5-0.1c-2.4,6.2-3.9,12.8-4.5,19.5
			C10.7,68.9,21.7,70.5,32.6,70.3z"/>
	</g>
	
		<radialGradient id="XMLID_40_" cx="326.4139" cy="-153.3706" r="25.3365" gradientTransform="matrix(1.4097 -0.4873 0.4982 1.3789 -323.5363 394.3993)" gradientUnits="userSpaceOnUse">
		<stop  offset="3.703740e-003" style="stop-color:#97D8E7"/>
		<stop  offset="0.937" style="stop-color:#6988C5"/>
	</radialGradient>
	<path id="XMLID_156_" class="st12" d="M100.5,5.1c-1.7,0.9-3.4,1.8-5.1,2.6C86,12,76.4,16,66.6,19.3C49,25.1,30.8,27.7,12.7,31.4
		c-1.3,1.9-2.6,3.9-3.7,5.9c20.6,2.8,41.6-1.7,61.2-8.2c13.5-4.4,28.6-10.4,41.3-18.7C108,8.4,104.3,6.6,100.5,5.1z"/>
	<g id="XMLID_171_">
		
			<radialGradient id="XMLID_41_" cx="285.8264" cy="-118.5257" r="7.3312" gradientTransform="matrix(1.4097 -0.4873 0.4982 1.3789 -323.5363 394.3993)" gradientUnits="userSpaceOnUse">
			<stop  offset="3.703740e-003" style="stop-color:#97D8E7"/>
			<stop  offset="0.937" style="stop-color:#6988C5"/>
		</radialGradient>
		<path id="XMLID_155_" class="st13" d="M36.2,94.1c1.5-0.8,0.8-3.3-0.7-3.4c-5.4-0.6-10.8-0.5-16.2-0.5c-5.8,0-11.4-1-17.1-1.5
			c0.6,2.3,1.3,4.7,2.1,7c0.1,0.4,0.3,0.8,0.5,1.2C15,99.3,27.1,98.7,36.2,94.1z"/>
		
			<radialGradient id="XMLID_42_" cx="349.32" cy="-111.646" r="14.7835" gradientTransform="matrix(1.4097 -0.4873 0.4982 1.3789 -323.5363 394.3993)" gradientUnits="userSpaceOnUse">
			<stop  offset="3.703740e-003" style="stop-color:#97D8E7"/>
			<stop  offset="0.937" style="stop-color:#6988C5"/>
		</radialGradient>
		<path id="XMLID_154_" class="st14" d="M125.9,64.3c-15.2,7.1-30.8,13.2-46.7,18.5c-1,0.3-0.4,1.7,0.5,1.5
			c17.4-3.6,34.3-9.1,50.3-16.8c5.1-2.5,10.4-5,15.6-7.8c-0.3-1.8-0.7-3.6-1.1-5.4C138.4,57.9,132.3,61.3,125.9,64.3z"/>
		
			<radialGradient id="XMLID_43_" cx="343.847" cy="-146.5855" r="13.1247" gradientTransform="matrix(1.4097 -0.4873 0.4982 1.3789 -323.5363 394.3993)" gradientUnits="userSpaceOnUse">
			<stop  offset="3.703740e-003" style="stop-color:#97D8E7"/>
			<stop  offset="0.937" style="stop-color:#6988C5"/>
		</radialGradient>
		<path id="XMLID_153_" class="st15" d="M58,37.1c20.5-5.6,40.7-12.7,59.4-22.8c-0.9-0.7-1.9-1.3-2.8-2C96,21.3,77.3,29.7,57.6,36.2
			C57,36.4,57.3,37.3,58,37.1z"/>
		
			<radialGradient id="XMLID_44_" cx="329.0419" cy="-80.9692" r="3.8934" gradientTransform="matrix(1.4097 -0.4873 0.4982 1.3789 -323.5363 394.3993)" gradientUnits="userSpaceOnUse">
			<stop  offset="3.703740e-003" style="stop-color:#97D8E7"/>
			<stop  offset="0.937" style="stop-color:#6988C5"/>
		</radialGradient>
		<path id="XMLID_152_" class="st16" d="M107.8,118.5c-5.7,2.4-11.1,5.4-16.7,7.9c-0.1,0,0,0.2,0,0.1c5.8-2.1,11.8-4.1,17.1-7.2
			C108.7,119.1,108.3,118.3,107.8,118.5z"/>
		
			<radialGradient id="XMLID_45_" cx="299.4066" cy="-83.1186" r="7.2809" gradientTransform="matrix(1.4097 -0.4873 0.4982 1.3789 -323.5363 394.3993)" gradientUnits="userSpaceOnUse">
			<stop  offset="3.703740e-003" style="stop-color:#97D8E7"/>
			<stop  offset="0.937" style="stop-color:#6988C5"/>
		</radialGradient>
		<path id="XMLID_150_" class="st17" d="M72.6,130.5c-11.4,1.2-22.6,3.2-34,4.4c1,0.5,2,1,3,1.5c10.7,1,21.2,0.4,31.5-3.3
			C74.5,132.6,74.1,130.3,72.6,130.5z"/>
		
			<radialGradient id="XMLID_46_" cx="306.5338" cy="-112.4144" r="2.5417" gradientTransform="matrix(1.4097 -0.4873 0.4982 1.3789 -323.5363 394.3993)" gradientUnits="userSpaceOnUse">
			<stop  offset="3.703740e-003" style="stop-color:#97D8E7"/>
			<stop  offset="0.937" style="stop-color:#6988C5"/>
		</radialGradient>
		<path id="XMLID_149_" class="st18" d="M46.9,90c-1.1,0.3-0.5,1.9,0.6,1.6c1.8-0.5,3.5-0.9,5.3-1.2c1.6-0.2,3.3-0.2,4.9-0.5
			c0.8-0.1,1-1.2,0.1-1.4C54.4,87.9,50.2,89,46.9,90z"/>
		
			<radialGradient id="XMLID_47_" cx="300.8263" cy="-149.3229" r="7.18" gradientTransform="matrix(1.4097 -0.4873 0.4982 1.3789 -323.5363 394.3993)" gradientUnits="userSpaceOnUse">
			<stop  offset="3.703740e-003" style="stop-color:#97D8E7"/>
			<stop  offset="0.937" style="stop-color:#6988C5"/>
		</radialGradient>
		<path id="XMLID_148_" class="st19" d="M41.7,41.7c1.8-0.6,1.1-3-0.6-3C29.9,38.5,19,40.6,8,42.3c-0.2,0-0.2,0.2,0,0.3
			C19.3,44.6,30.6,45.2,41.7,41.7z"/>
	</g>
	
		<radialGradient id="XMLID_48_" cx="301.3471" cy="-170.7668" r="26.9499" gradientTransform="matrix(1.4906 -0.1128 0.1153 1.458 -372.5505 344.5011)" gradientUnits="userSpaceOnUse">
		<stop  offset="3.703740e-003" style="stop-color:#97D8E7"/>
		<stop  offset="0.937" style="stop-color:#6988C5"/>
	</radialGradient>
	<path id="XMLID_146_" class="st20" d="M18.8,64.4c1.8,22.7,20.4,39.8,41.5,38.2c21.1-1.6,36.7-21.3,35-44
		c-1.8-22.7-20.4-39.8-41.5-38.2C32.6,22,17,41.7,18.8,64.4z"/>
</g>
</svg>
