<?xml version="1.0" encoding="utf-8"?>
<!-- Generator: Adobe Illustrator 19.0.0, SVG Export Plug-In . SVG Version: 6.00 Build 0)  -->
<svg version="1.1" id="Layer_1" xmlns="http://www.w3.org/2000/svg" xmlns:xlink="http://www.w3.org/1999/xlink" x="0px" y="0px"
	 viewBox="0 0 137.5 113.7" style="enable-background:new 0 0 137.5 113.7;" xml:space="preserve">
<style type="text/css">
	.st0{fill:#E5E6E7;}
	.st1{fill:#A02424;}
	.st2{fill:#919396;}
	.st3{fill:#BABCBE;}
	.st4{fill:#26A8DF;}
	.st5{opacity:0.45;fill:url(#SVGID_1_);}
</style>
<g>
	<g>
		<path class="st0" d="M89.3,47.6v36.2h-41V47.6l1.9-7.2l0.2-0.9l4.3-16.2l0.1-0.4l0.1-0.4l4.7-17.8c0.7-2.7,3.2-4.6,6-4.6h6.1
			c2.8,0,5.3,1.9,6,4.6l4.7,17.8l0.1,0.4l0.1,0.4l4.3,16.2l0.2,0.9L89.3,47.6z"/>
	</g>
	<path class="st1" d="M82.7,22.9H72.2l-0.1-0.2c-0.3-1-1.2-1.7-2.2-1.7h-2.3c-1,0-2,0.7-2.2,1.7l-0.1,0.2H54.8l0.1-0.4l4.7-17.8
		c0.7-2.7,3.2-4.6,6-4.6h6.1c2.8,0,5.3,1.9,6,4.6l4.7,17.8L82.7,22.9z"/>
	<g>
		<path class="st2" d="M76.6,93.1H60.9c-1.2,0-2.3-0.8-2.6-1.9L56,83.8h25.6l-2.3,7.3C78.8,92.3,77.8,93.1,76.6,93.1z"/>
	</g>
	<g>
		<g>
			<polygon class="st3" points="136.2,34 136.2,62.4 131.5,67.3 112.4,87.1 103,97 101.5,98.6 92,108.4 86.9,113.7 80.6,93.4 
				80.6,61.3 86.6,58.3 87.5,57.9 131.5,36.3 			"/>
		</g>
		<g>
			<polygon class="st3" points="57,61.3 57,93.4 50.6,113.7 45.5,108.4 36,98.6 34.5,97 25.1,87.1 6,67.3 1.3,62.4 1.3,34 6,36.3 
				50.1,57.9 50.9,58.3 			"/>
		</g>
	</g>
	<g>
		<path class="st2" d="M74,86.2H63.5l1.8-53.7c0-1.1,0.9-1.9,1.9-1.9h3.2c1.1,0,1.9,0.8,1.9,1.9L74,86.2z M64.4,85.3h8.7l-1.7-52.8
			c0-0.6-0.5-1-1-1h-3.2c-0.6,0-1,0.4-1,1L64.4,85.3z"/>
	</g>
	<g>
		<polygon class="st2" points="73.4,23.3 82.8,23.3 82.6,22.4 73.4,22.4 		"/>
		<polygon class="st2" points="62.7,22.4 54.9,22.4 54.7,23.3 62.7,23.3 		"/>
	</g>
	<g>
		<path class="st4" d="M76.4,23.8h-3.9l-0.2-0.9l-0.1-0.2c-0.3-1-1.2-1.7-2.2-1.7h-2.3c-1,0-2,0.7-2.2,1.7l-0.1,0.2l-0.2,0.9h-3.9
			l0.2-0.9l4-15c0.3-1,1.2-1.7,2.2-1.7h2.3c1,0,2,0.7,2.2,1.7l4,15L76.4,23.8z"/>
	</g>
	<g>
		<g>
			<polygon class="st2" points="87.4,40.4 72.4,40.4 72.4,39.5 87.1,39.5 			"/>
		</g>
		<g>
			<polygon class="st2" points="65.7,39.5 65.7,40.4 50.1,40.4 50.4,39.5 			"/>
		</g>
	</g>
	<g>
		<g>
			<rect x="80.1" y="39.9" class="st2" width="0.9" height="43.9"/>
		</g>
		<g>
			<rect x="56.5" y="39.9" class="st2" width="0.9" height="43.9"/>
		</g>
	</g>
	<g>
		<polygon class="st1" points="101.5,98.6 92,108.4 86.1,88.8 85.9,87.9 95.9,80 96.1,80.9 		"/>
		<polygon class="st1" points="112.4,87.1 103,97 97.8,79.6 97.5,78.7 107.5,70.8 107.8,71.7 		"/>
		<polygon class="st1" points="51.6,87.9 51.4,88.8 45.5,108.4 36,98.6 41.4,80.9 41.6,80 		"/>
		<polygon class="st1" points="40,78.7 39.7,79.6 34.5,97 25.1,87.1 29.8,71.7 30,70.8 		"/>
	</g>
	<g>
		<g>
			<polygon class="st2" points="132.9,42.8 131.5,43.7 90.8,69.8 86.6,58.3 87.4,57.9 91.2,68.5 131.5,42.7 132.5,42.1 			"/>
		</g>
		<g>
			<polygon class="st2" points="133,51.8 131.5,52.9 107.8,71.7 97.8,79.6 96.1,80.9 86.1,88.8 80.6,93.3 80.6,92.1 85.9,87.9 
				95.9,80 97.5,78.7 107.5,70.8 131.5,51.8 132.4,51.1 			"/>
		</g>
		<g>
			<polygon class="st2" points="50.9,58.3 46.7,69.8 6,43.7 4.6,42.8 5.1,42.1 6,42.7 46.3,68.5 50.1,57.9 			"/>
		</g>
		<g>
			<polygon class="st2" points="57,92.1 57,93.3 51.4,88.8 41.4,80.9 39.7,79.6 29.8,71.7 6,52.9 4.5,51.8 5.1,51.1 6,51.8 30,70.8 
				40,78.7 41.6,80 51.6,87.9 			"/>
		</g>
	</g>
	<g>
		<g>
			<path class="st0" d="M137.5,18.5v49.7c0,1.5-1.2,2.8-2.8,2.8h-0.5c-1.5,0-2.8-1.2-2.8-2.8V18.5c0-1.5,1.2-2.8,2.8-2.8h0.5
				C136.3,15.7,137.5,17,137.5,18.5z"/>
		</g>
		<g>
			<path class="st0" d="M6,18.5v49.7C6,69.7,4.8,71,3.2,71H2.8C1.2,71,0,69.7,0,68.2V18.5c0-1.5,1.2-2.8,2.8-2.8h0.5
				C4.8,15.7,6,17,6,18.5z"/>
		</g>
	</g>
	<path class="st1" d="M6,18.5v13H0v-13c0-1.5,1.2-2.8,2.8-2.8h0.5C4.8,15.7,6,17,6,18.5z"/>
	<path class="st1" d="M137.5,18.5v13h-6v-13c0-1.5,1.2-2.8,2.8-2.8h0.5C136.3,15.7,137.5,17,137.5,18.5z"/>
	<linearGradient id="SVGID_1_" gradientUnits="userSpaceOnUse" x1="108.3009" y1="56.8566" x2="43.9943" y2="56.8566">
		<stop  offset="0" style="stop-color:#231F20"/>
		<stop  offset="1" style="stop-color:#231F20;stop-opacity:0"/>
	</linearGradient>
	<path class="st5" d="M137.5,18.5v49.7c0,1.5-1.2,2.8-2.8,2.8h-0.5c-1.5,0-2.8-1.2-2.8-2.8v-0.9l-19.1,19.9L103,97l-1.5,1.6
		l-9.4,9.8l-5.1,5.3l-6.4-20.3v-6.5l-1.4,4.3c-0.4,1.1-1.4,1.9-2.6,1.9h-7.2v-9.3c0,0,1.7-1.4,1.7-4.8V25c0-2.7-1.1-4-1.1-4
		L68.8,6.2C68.8,1,67.7,0,67.7,0h4.2c2.8,0,5.3,1.9,6,4.6l4.7,17.8l0.1,0.4l0.1,0.4l4.3,16.2l0.2,0.9l1.9,7.2V57l42.2-20.7V18.5
		c0-1.5,1.2-2.8,2.8-2.8h0.5C136.3,15.7,137.5,17,137.5,18.5z"/>
</g>
</svg>
