<?xml version="1.0" encoding="utf-8"?>
<!-- Generator: Adobe Illustrator 19.0.0, SVG Export Plug-In . SVG Version: 6.00 Build 0)  -->
<svg version="1.1" id="Layer_1" xmlns="http://www.w3.org/2000/svg" xmlns:xlink="http://www.w3.org/1999/xlink" x="0px" y="0px"
	 viewBox="0 0 103.6 102.4" style="enable-background:new 0 0 103.6 102.4;" xml:space="preserve">
<style type="text/css">
	.st0{fill:#919396;}
	.st1{fill:#BABCBE;}
	.st2{fill:#1B75BA;}
	.st3{fill:#26A8DF;}
	.st4{fill:#E5E6E7;}
	.st5{opacity:0.45;fill:url(#SVGID_1_);}
</style>
<g>
	<g id="XMLID_3_">
		<path class="st0" d="M83.9,102.4H73c-0.9,0-1.7-0.7-1.8-1.6l-1.5-15.9h17.5l-1.5,15.9C85.5,101.7,84.8,102.4,83.9,102.4z"/>
		<path class="st0" d="M30.4,102.4H19.5c-0.9,0-1.7-0.7-1.8-1.6l-1.5-15.9h17.5l-1.5,15.9C32.1,101.7,31.3,102.4,30.4,102.4z"/>
	</g>
	<g>
		<path class="st1" d="M35.6,3.4V99c0,0-27.5-5.7-34.2-22.4c-0.8-2-1.3-4.3-1.4-6.7c0-0.3,0-0.6,0-0.9c0-0.1,0-0.2,0-0.3
			c0-2.1,0.3-4.3,0.9-6.7c0.1-0.4,0.2-0.8,0.3-1.2c0.6-2.1,1.3-4.4,2.2-6.7C12.4,31.5,35.6,3.4,35.6,3.4z"/>
		<path class="st1" d="M103.6,69c0,0.3,0,0.6,0,0.9c-0.1,2.4-0.6,4.6-1.4,6.7C95.4,93.4,67.9,99,67.9,99V3.4
			c0,0,23.3,28.1,32.2,50.8c0.9,2.3,1.6,4.5,2.2,6.7c0.1,0.4,0.2,0.8,0.3,1.2c0.6,2.3,0.9,4.6,0.9,6.7
			C103.6,68.8,103.6,68.9,103.6,69z"/>
	</g>
	<path class="st2" d="M102.4,60.9H89.2c-0.3-2.2-0.8-4.4-1.5-6.7h12.4C101,56.5,101.8,58.7,102.4,60.9z"/>
	<path class="st2" d="M103.6,68.7H88.9c0.4-1.6,0.5-3.3,0.5-5.2c0-0.5,0-1-0.1-1.4h13.4C103.2,64.4,103.6,66.7,103.6,68.7z"/>
	<path class="st2" d="M103.6,70c-0.1,2.4-0.6,4.6-1.4,6.7H85c1.5-1.9,2.8-4.1,3.6-6.7H103.6z"/>
	<path class="st2" d="M15.9,54.2c-0.7,2.3-1.2,4.5-1.5,6.7H1.2c0.6-2.1,1.3-4.4,2.2-6.7H15.9z"/>
	<path class="st2" d="M14.7,68.7H0c0-2.1,0.3-4.3,0.9-6.7h13.3c0,0.5-0.1,1-0.1,1.4C14.1,65.4,14.3,67.1,14.7,68.7z"/>
	<path class="st2" d="M18.5,76.6H1.5c-0.8-2-1.3-4.3-1.4-6.7h15C15.8,72.6,17,74.8,18.5,76.6z"/>
	<path class="st0" d="M32.7,85.5l-0.2,0.9c-0.1,0-9.5-2.4-15-9.8c-1.4-1.9-2.6-4.1-3.3-6.7c-0.1-0.4-0.2-0.8-0.3-1.2
		c-0.3-1.6-0.5-3.4-0.5-5.3c0-0.5,0-0.9,0.1-1.4c0-0.4,0.1-0.8,0.1-1.2c0.3-2.2,0.8-4.4,1.5-6.7c4.8-15.7,18.3-32,18.5-32.2l0.7,0.6
		c-0.2,0.2-13.4,16.2-18.2,31.6c-0.7,2.3-1.2,4.5-1.5,6.7c-0.1,0.4-0.1,0.8-0.1,1.2c0,0.5-0.1,1-0.1,1.4c0,1.9,0.1,3.6,0.5,5.2
		c0.1,0.4,0.2,0.8,0.3,1.2c0.8,2.6,2,4.8,3.5,6.7C24,83.3,32.5,85.5,32.7,85.5z"/>
	<path class="st0" d="M90.3,63.5c0,1.9-0.1,3.6-0.5,5.3c-0.1,0.4-0.2,0.8-0.3,1.2c-0.7,2.6-1.9,4.8-3.3,6.7
		c-5.6,7.4-14.9,9.7-15,9.8l-0.2-0.9c0.1,0,8.7-2.2,14.1-8.9c1.5-1.9,2.8-4.1,3.6-6.7c0.1-0.4,0.2-0.8,0.3-1.2
		c0.4-1.6,0.5-3.3,0.5-5.2c0-0.5,0-1-0.1-1.4c0-0.4-0.1-0.8-0.1-1.2c-0.3-2.2-0.8-4.4-1.5-6.7c-4.8-15.4-18-31.4-18.2-31.6l0.7-0.6
		c0.2,0.2,13.7,16.5,18.5,32.2c0.7,2.3,1.2,4.5,1.5,6.7c0.1,0.4,0.1,0.8,0.1,1.2C90.3,62.6,90.3,63,90.3,63.5z"/>
	<ellipse class="st3" cx="51.8" cy="44.4" rx="9.3" ry="6.8"/>
	<path class="st4" d="M78.6,69.1c0,10.7-6.2,19.9-15.2,24.2c-0.3,0.1-0.6,0.3-0.9,0.4c-3.3,1.4-6.9,2.2-10.7,2.2
		c-3.9,0-7.5-0.8-10.8-2.3c-0.3-0.1-0.6-0.3-0.9-0.4C31.1,88.9,25,79.7,25,69.1c0-14.8,12-26.8,26.8-26.8
		C66.6,42.3,78.6,54.3,78.6,69.1z"/>
	<path class="st1" d="M65.1,46.3H38.2v-1.1c0-2.3,1.8-4.1,4.1-4.1H61c2.3,0,4.1,1.8,4.1,4.1V46.3z"/>
	<path id="XMLID_1_" class="st4" d="M68.1,35.3h-0.3c-1,0-1.8-0.8-1.8-1.8V1.8c0-1,0.8-1.8,1.8-1.8h0.3c1,0,1.8,0.8,1.8,1.8v31.8
		C69.9,34.5,69.1,35.3,68.1,35.3z"/>
	<path class="st4" d="M35.8,35.4h-0.3c-1,0-1.8-0.8-1.8-1.8V1.9c0-1,0.8-1.8,1.8-1.8h0.3c1,0,1.8,0.8,1.8,1.8v31.8
		C37.6,34.6,36.8,35.4,35.8,35.4z"/>
	<path id="XMLID_2_" class="st0" d="M60.4,68.6h-8.2V46.3h-0.9v22.4h-8.3l-3,24.6c0.3,0.1,0.6,0.3,0.9,0.4l2.9-24.1h15.8l2.9,24.1
		c0.3-0.1,0.6-0.3,0.9-0.4L60.4,68.6z"/>
	<linearGradient id="SVGID_1_" gradientUnits="userSpaceOnUse" x1="105.0189" y1="51.2142" x2="42.2287" y2="51.2142">
		<stop  offset="0" style="stop-color:#231F20"/>
		<stop  offset="1" style="stop-color:#231F20;stop-opacity:0"/>
	</linearGradient>
	<path class="st5" d="M103.6,69c0,0.3,0,0.6,0,0.9c-0.1,2.4-0.6,4.6-1.4,6.7c-2.8,7-9.2,12-15.7,15.5l-0.8,8.7
		c-0.1,0.9-0.9,1.6-1.8,1.6H73c-0.9,0-1.7-0.7-1.8-1.6l-0.2-2.5c-1.9,0.5-3,0.7-3,0.7v-8.5c-1.4,1.1-2.9,2-4.6,2.8
		c-0.3,0.1-0.6,0.3-0.9,0.4c-3.3,1.4-6.9,2.2-10.7,2.2c-3.9,0-7.5-0.8-10.8-2.3c-0.3-0.1-0.6-0.3-0.9-0.4c-0.9-0.4-1.7-0.9-2.5-1.4
		c19.2,3.6,27.5-17.7,27.5-29.7s-5.7-15.8-5.7-15.8c0-4.5-2.9-5.2-2.9-5.2c0-2.6-4.6-3.4-4.6-3.4c3.5,0,6.5,1.4,8.1,3.4H61
		c2.3,0,4.1,1.8,4.1,4.1v0.7c1,0.6,1.9,1.2,2.8,1.9V35.3h-0.2c-1,0-1.8-0.8-1.8-1.8V1.8c0-1,0.8-1.8,1.8-1.8h0.3
		c1,0,1.8,0.8,1.8,1.8v4c5.7,7.2,22.9,29.6,30.3,48.4c0.9,2.3,1.6,4.5,2.2,6.7c0.1,0.4,0.2,0.8,0.3,1.2c0.6,2.3,0.9,4.6,0.9,6.7
		C103.6,68.8,103.6,68.9,103.6,69z"/>
</g>
</svg>
