<?xml version="1.0" encoding="utf-8"?>
<!-- Generator: Adobe Illustrator 19.0.0, SVG Export Plug-In . SVG Version: 6.00 Build 0)  -->
<svg version="1.1" id="Layer_1" xmlns="http://www.w3.org/2000/svg" xmlns:xlink="http://www.w3.org/1999/xlink" x="0px" y="0px" width="90px" height="95px"
	 viewBox="0 0 149.6 334.8" style="enable-background:new 0 0 149.6 334.8;" xml:space="preserve">
<style type="text/css">
	.st0{fill:url(#XMLID_32_);}
	.st1{fill:url(#XMLID_33_);}
	.st2{fill:url(#XMLID_34_);}
	.st3{fill:url(#XMLID_35_);}
	.st4{fill:#919396;}
	.st5{fill:#BABCBE;}
	.st6{fill:#A12625;}
	.st7{opacity:0.45;fill:url(#SVGID_1_);}
	.st8{opacity:0.45;fill:url(#SVGID_2_);}
	.st9{opacity:0.45;fill:url(#SVGID_3_);}
	.st10{fill:#E5E6E7;}
	.st11{fill:#29A8E0;}
	.st12{opacity:0.45;fill:url(#SVGID_4_);}
	.st13{opacity:0.45;fill:url(#SVGID_5_);}
</style>
<g>
	<linearGradient id="XMLID_32_" gradientUnits="userSpaceOnUse" x1="74.7989" y1="317.0149" x2="74.7989" y2="194.4904">
		<stop  offset="5.376340e-002" style="stop-color:#F59221;stop-opacity:0"/>
		<stop  offset="0.2688" style="stop-color:#FEDC11"/>
		<stop  offset="0.5645" style="stop-color:#F59221;stop-opacity:0.5"/>
		<stop  offset="0.713" style="stop-color:#F8AE1E;stop-opacity:0.3295"/>
		<stop  offset="0.9041" style="stop-color:#FCCF16;stop-opacity:0.1101"/>
		<stop  offset="1" style="stop-color:#FEDC11;stop-opacity:0"/>
	</linearGradient>
	<polygon id="XMLID_4_" class="st0" points="87.2,226.1 74.8,226.1 74.8,226.1 62.3,226.1 56,303.8 93.6,303.8 	"/>
	<g>
		<linearGradient id="XMLID_33_" gradientUnits="userSpaceOnUse" x1="137.5083" y1="327.0049" x2="137.5083" y2="234.3604">
			<stop  offset="5.376340e-002" style="stop-color:#F59221;stop-opacity:0"/>
			<stop  offset="0.2688" style="stop-color:#FEDC11"/>
			<stop  offset="0.5645" style="stop-color:#F59221;stop-opacity:0.5"/>
			<stop  offset="0.713" style="stop-color:#F8AE1E;stop-opacity:0.3295"/>
			<stop  offset="0.9041" style="stop-color:#FCCF16;stop-opacity:0.1101"/>
			<stop  offset="1" style="stop-color:#FEDC11;stop-opacity:0"/>
		</linearGradient>
		<polygon id="XMLID_3_" class="st1" points="142.9,237 137.5,237 137.5,237 132.1,237 129.4,334.8 137.5,334.8 137.5,334.8 
			145.7,334.8 		"/>
		<linearGradient id="XMLID_34_" gradientUnits="userSpaceOnUse" x1="12.0874" y1="327.0049" x2="12.0874" y2="234.3604">
			<stop  offset="5.376340e-002" style="stop-color:#F59221;stop-opacity:0"/>
			<stop  offset="0.2688" style="stop-color:#FEDC11"/>
			<stop  offset="0.5645" style="stop-color:#F59221;stop-opacity:0.5"/>
			<stop  offset="0.713" style="stop-color:#F8AE1E;stop-opacity:0.3295"/>
			<stop  offset="0.9041" style="stop-color:#FCCF16;stop-opacity:0.1101"/>
			<stop  offset="1" style="stop-color:#FEDC11;stop-opacity:0"/>
		</linearGradient>
		<polygon id="XMLID_2_" class="st2" points="17.5,237 12.1,237 12.1,237 6.7,237 3.9,334.8 12.1,334.8 12.1,334.8 20.2,334.8 		"/>
	</g>
	<linearGradient id="XMLID_35_" gradientUnits="userSpaceOnUse" x1="74.7984" y1="308.3229" x2="74.7984" y2="202.4407">
		<stop  offset="5.376340e-002" style="stop-color:#F59221;stop-opacity:0"/>
		<stop  offset="0.2688" style="stop-color:#FEDC11"/>
		<stop  offset="0.5645" style="stop-color:#F59221;stop-opacity:0.5"/>
		<stop  offset="0.713" style="stop-color:#F8AE1E;stop-opacity:0.3295"/>
		<stop  offset="0.9041" style="stop-color:#FCCF16;stop-opacity:0.1101"/>
		<stop  offset="1" style="stop-color:#FEDC11;stop-opacity:0"/>
	</linearGradient>
	<polygon id="XMLID_1_" class="st3" points="80.2,237 74.8,237 74.8,237 69.4,237 66.6,334.8 74.8,334.8 74.8,334.8 82.9,334.8 	"/>
	<g>
		<g>
			<g>
				<g>
					<g>
						<path class="st4" d="M4,186.7v58c0,1.5,1.2,2.7,2.7,2.7h10.7c1.5,0,2.7-1.2,2.7-2.7v-58c0-4.5-3.6-19.4-8.1-19.4h0
							c-2.2,0-4.2,3.7-5.7,8C4.9,179.6,4,184.4,4,186.7z"/>
					</g>
					<g>
						<path class="st5" d="M0,200.8v37.3c0,2.7,1.7,4.9,4,5.8c0.4,0.2,0.9,0.3,1.3,0.4c0.3,0,0.6,0.1,0.8,0.1H18
							c0.8,0,1.5-0.1,2.2-0.4c2.3-0.9,4-3.1,4-5.8v-37.3c0-2.7-1.7-4.9-4-5.8c-0.7-0.3-1.4-0.4-2.2-0.4h-5.9c0,0,0,0,0,0H6.2
							c-0.8,0-1.5,0.1-2.2,0.4C1.7,195.9,0,198.1,0,200.8z"/>
					</g>
				</g>
				<g>
					<path class="st4" d="M21.4,203.8v24c0,0.9,0.9,1.5,1.7,1.1c5.2-2.2,21.2-10,30.4-26v-41.3c0-2.4-3.4-3.1-4.2-0.7
						c-0.6,1.6-1.2,3.3-1.9,5.1c-5.3,13.4-13.9,30.4-25.3,36.8C21.6,203,21.4,203.4,21.4,203.8z"/>
				</g>
			</g>
			<g>
				<g>
					<g>
						<path class="st4" d="M129.4,186.7v58c0,1.5,1.2,2.7,2.7,2.7h10.7c1.5,0,2.7-1.2,2.7-2.7v-58c0-2.2-0.9-7.1-2.4-11.4
							c-1.5-4.3-3.5-8-5.7-8C133,167.2,129.4,182.2,129.4,186.7z"/>
					</g>
					<g>
						<path class="st5" d="M125.4,200.8v37.3c0,2.7,1.7,4.9,4,5.8c0.7,0.3,1.4,0.4,2.2,0.4h11.8c0.3,0,0.6,0,0.8-0.1
							c0.5-0.1,0.9-0.2,1.3-0.4c2.3-0.9,4-3.1,4-5.8v-37.3c0-2.7-1.7-4.9-4-5.8c-0.7-0.3-1.4-0.4-2.2-0.4h-11.8
							c-0.8,0-1.5,0.1-2.2,0.4C127.1,195.9,125.4,198.1,125.4,200.8z"/>
					</g>
				</g>
				<g>
					<path class="st4" d="M100.4,160.9c5,13.9,14.3,34.6,27.2,41.9c0.4,0.2,0.6,0.6,0.6,1v24c0,0.9-0.9,1.4-1.7,1.1
						c-5.2-2.2-21.3-10-30.4-26v-41.3C96.2,159.2,99.6,158.6,100.4,160.9z"/>
				</g>
			</g>
		</g>
		<g>
			<g>
				<path class="st6" d="M0,203.5v34.6c0,2.7,1.7,4.9,4,5.8c0.4,0.2,0.9,0.3,1.3,0.4c0.3,0,0.6,0.1,0.8,0.1H8
					c-3.1,0-5.6-2.5-5.6-5.6v-32C2.3,205.2,1.4,203.9,0,203.5z"/>
			</g>
			<g>
				<path class="st6" d="M141.6,244.3h1.8c0.3,0,0.6,0,0.8-0.1c0.5-0.1,0.9-0.2,1.3-0.4c2.3-0.9,4-3.1,4-5.8v-34.6
					c-1.4,0.4-2.3,1.7-2.3,3.2v32C147.3,241.7,144.7,244.3,141.6,244.3z"/>
			</g>
		</g>
		
			<linearGradient id="SVGID_1_" gradientUnits="userSpaceOnUse" x1="1534.0743" y1="207.3164" x2="1546.1759" y2="207.3164" gradientTransform="matrix(-1 0 0 1 1546.1759 0)">
			<stop  offset="0" style="stop-color:#231F20"/>
			<stop  offset="1" style="stop-color:#231F20;stop-opacity:0"/>
		</linearGradient>
		<path class="st7" d="M0,200.8v37.3c0,2.7,1.7,4.9,4,5.8v0.8c0,1.5,1.2,2.7,2.7,2.7h5.3v-3.1c0,0-1.7-2.5-1.7-5.7v-38.5
			c0-5.4,1.5-5.5,1.7-5.5c0,0,0,0,0,0v-27.3h0c-2.2,0-4.2,3.7-5.7,8c-1.5,4.3-2.4,9.2-2.4,11.4v8.3C1.7,195.9,0,198.1,0,200.8z"/>
		
			<linearGradient id="SVGID_2_" gradientUnits="userSpaceOnUse" x1="1408.6671" y1="207.3164" x2="1420.7697" y2="207.3164" gradientTransform="matrix(-1 0 0 1 1546.1759 0)">
			<stop  offset="0" style="stop-color:#231F20"/>
			<stop  offset="1" style="stop-color:#231F20;stop-opacity:0"/>
		</linearGradient>
		<path class="st8" d="M125.4,200.8v37.3c0,2.7,1.7,4.9,4,5.8v0.8c0,1.5,1.2,2.7,2.7,2.7h5.3v-3.7c0,0-1.7-2.5-1.7-5.7v-38.5
			c0-3,0.5-4.3,0.9-4.9c0.4-0.6,0.8-0.6,0.8-0.6v-26.8c-4.5,0-8.1,14.9-8.1,19.4v8.3C127.1,195.9,125.4,198.1,125.4,200.8z"/>
		
			<linearGradient id="SVGID_3_" gradientUnits="userSpaceOnUse" x1="1498.177" y1="196.897" x2="1524.8136" y2="196.897" gradientTransform="matrix(-1 0 0 1 1546.1759 0)">
			<stop  offset="0" style="stop-color:#231F20"/>
			<stop  offset="1" style="stop-color:#231F20;stop-opacity:0"/>
		</linearGradient>
		<path class="st9" d="M21.4,203.8v24C37.4,222.3,48,208,48,208l-0.7-42c-5.3,13.4-13.9,30.4-25.3,36.8
			C21.6,203,21.4,203.4,21.4,203.8z"/>
		<g>
			<path class="st10" d="M54.1,34.9v63.6h41.4V34.9c0-3.7-1-8.7-2.7-13.7c-0.2-0.5-0.3-0.9-0.5-1.4C88.7,9.8,82.2,0,74.8,0
				c-5.7,0-10.9,5.9-14.7,13.1c-1.1,2.1-2.1,4.4-2.9,6.7c-0.2,0.5-0.3,0.9-0.5,1.4C55,26.2,54.1,31.2,54.1,34.9z"/>
		</g>
		<g>
			<path class="st5" d="M49.8,156.5h50v-57c0-2.3-1.9-4.2-4.2-4.2H54.1c-2.3,0-4.2,1.9-4.2,4.2V156.5z"/>
		</g>
		<g>
			<path class="st4" d="M63.8,227.5h22.1c1.7,0,3.2-1.1,3.7-2.7l3.3-10.4H56.7l3.3,10.4C60.6,226.4,62.1,227.5,63.8,227.5z"/>
		</g>
		<g>
			<path class="st10" d="M99.2,217.7H50.4c-4,0-7.3-3.3-7.3-7.3v-53.3c0-4,3.3-7.3,7.3-7.3h48.8c4,0,7.3,3.3,7.3,7.3v53.3
				C106.5,214.5,103.2,217.7,99.2,217.7z"/>
		</g>
		<g>
			<g>
				<path class="st4" d="M95.5,70.2L106,84.7c0.3,0.5,0.5,1,0.5,1.6v4.9c0,1.5-1.2,2.7-2.7,2.7h-8.2V70.2z"/>
			</g>
			<g>
				<path class="st4" d="M54.1,70.2L43.6,84.7c-0.3,0.5-0.5,1-0.5,1.6v4.9c0,1.5,1.2,2.7,2.7,2.7h8.2V70.2z"/>
			</g>
		</g>
		<g>
			<rect x="43.1" y="159.5" class="st5" width="63.4" height="1.4"/>
		</g>
		<g>
			<g>
				<rect x="55.3" y="160.2" class="st5" width="1.4" height="34.3"/>
			</g>
			<g>
				<rect x="92.9" y="160.2" class="st5" width="1.4" height="34.3"/>
			</g>
		</g>
		<g>
			<g>
				<polygon class="st5" points="49.7,217.7 51.1,217.7 51.1,195.3 60.3,195.3 60.3,217.7 61.7,217.7 61.7,193.9 49.7,193.9 				"/>
			</g>
			<g>
				<polygon class="st5" points="87.9,217.7 89.3,217.7 89.3,195.3 98.5,195.3 98.5,217.7 99.9,217.7 99.9,193.9 87.9,193.9 				"/>
			</g>
		</g>
		<g>
			<polygon class="st4" points="65.4,149.8 66.8,149.8 66.8,113.8 82.8,113.8 82.8,149.8 84.2,149.8 84.2,112.4 65.4,112.4 			"/>
		</g>
		<g>
			<g>
				<polygon class="st4" points="52.8,149.8 54.2,149.8 54.2,130.6 58.6,126.1 58.6,95.2 57.2,95.2 57.2,125.6 52.8,130 				"/>
			</g>
			<g>
				<polygon class="st4" points="95.4,149.8 96.8,149.8 96.8,130 92.4,125.6 92.4,95.2 91,95.2 91,126.1 95.4,130.6 				"/>
			</g>
		</g>
		<g>
			<polygon class="st4" points="72,128.7 77.6,128.7 77.6,113.1 76.2,113.1 76.2,127.3 73.4,127.3 73.4,113.1 72,113.1 			"/>
		</g>
		<g>
			<rect x="54.1" y="82.7" class="st5" width="41.4" height="1.4"/>
		</g>
		<g>
			<path class="st4" d="M74.8,70.2L74.8,70.2c1.2,0,2.1,0.9,2.1,2.1v19.4c0,1.2-1,2.1-2.1,2.1l0,0c-1.2,0-2.1-0.9-2.1-2.1V72.4
				C72.7,71.2,73.6,70.2,74.8,70.2z"/>
		</g>
		<g>
			<g>
				<polygon class="st5" points="60.1,83.4 61.5,83.4 61.5,57.7 65.5,57.7 65.5,83.4 66.9,83.4 66.9,56.3 60.1,56.3 				"/>
			</g>
			<g>
				<polygon class="st5" points="82.7,83.4 84.1,83.4 84.1,57.8 88.1,57.8 88.1,83.4 89.5,83.4 89.5,56.3 82.7,56.3 				"/>
			</g>
		</g>
		<g>
			<path class="st5" d="M56.8,21.2h36.1c-0.2-0.5-0.3-0.9-0.5-1.4H57.2C57.1,20.3,56.9,20.8,56.8,21.2z"/>
		</g>
		<g>
			<g>
				<rect x="56.2" y="145.9" class="st6" width="7.5" height="3.9"/>
				<rect x="56.2" y="140.7" class="st6" width="7.5" height="3.9"/>
				<rect x="56.2" y="135.5" class="st6" width="7.5" height="3.9"/>
			</g>
			<g>
				<rect x="85.9" y="145.9" class="st6" width="7.5" height="3.9"/>
				<rect x="85.9" y="140.7" class="st6" width="7.5" height="3.9"/>
				<rect x="85.9" y="135.5" class="st6" width="7.5" height="3.9"/>
			</g>
		</g>
		<path class="st6" d="M73.4,67.2h2.9c0.6,0,1-0.5,1-1V49.3h-4.9v16.9C72.3,66.7,72.8,67.2,73.4,67.2z"/>
		<g>
			<circle class="st5" cx="74.8" cy="38.5" r="12.1"/>
		</g>
		<g>
			<circle class="st11" cx="74.8" cy="38.5" r="8.9"/>
		</g>
		
			<linearGradient id="SVGID_4_" gradientUnits="userSpaceOnUse" x1="1471.3702" y1="113.7634" x2="1503.0686" y2="113.7634" gradientTransform="matrix(-1 0 0 1 1546.1759 0)">
			<stop  offset="0" style="stop-color:#231F20"/>
			<stop  offset="1" style="stop-color:#231F20;stop-opacity:0"/>
		</linearGradient>
		<path class="st12" d="M54.1,93.9v1.3h0c-2.3,0-4.2,1.9-4.2,4.2v50.4c-3.8,0.3-6.7,3.4-6.7,7.2v53.3c0,3.8,2.9,6.8,6.5,7.2v0.1h8.1
			l2.3,7.1c0.5,1.6,2,2.7,3.7,2.7h6.9l-0.7-9.8h-3.1c0,0,0-61.2,0-64.8c0-3.5,1.9-3.2,1.9-3.2s0-48.7,0-51.3c0-2.6,1.4-3.3,1.4-3.3
			V49.7c-2.2-2.6-1.1-4.4-1.1-4.4V31.8c0-1.7,0.9-4.4,0.9-4.4C70,3.9,74.8,0,74.8,0c-5.7,0-10.9,5.9-14.7,13.1
			c-1.1,2.1-2.1,4.4-2.9,6.7c-0.2,0.5-0.3,0.9-0.5,1.4c-1.7,5-2.7,10-2.7,13.7v35.4L43.6,84.7c-0.3,0.5-0.5,1-0.5,1.6v4.9
			c0,1.5,1.2,2.7,2.7,2.7H54.1z"/>
		<g>
			<g>
				<path class="st4" d="M66.7,186.7v58c0,1.5,1.2,2.7,2.7,2.7h10.7c1.5,0,2.7-1.2,2.7-2.7v-58c0-4.5-3.6-19.4-8.1-19.4
					c-0.1,0-0.3,0-0.4,0c-2,0.4-3.9,4-5.3,8C67.6,179.6,66.7,184.4,66.7,186.7z"/>
			</g>
			<g>
				<path class="st5" d="M62.7,200.8v37.3c0,2.7,1.7,4.9,4,5.8c0.4,0.2,0.9,0.3,1.3,0.4c0.3,0,0.6,0.1,0.8,0.1h11.8
					c0.8,0,1.5-0.1,2.2-0.4c2.3-0.9,4-3.1,4-5.8v-37.3c0-2.7-1.7-4.9-4-5.8c-0.7-0.3-1.4-0.4-2.2-0.4h-6.3c0,0,0,0,0,0h-5.5
					c-0.8,0-1.5,0.1-2.2,0.4C64.4,195.9,62.7,198.1,62.7,200.8z"/>
			</g>
		</g>
		<g>
			<path class="st6" d="M70,206.7v37.6h9.7v-37.6c0-1.8-1.5-3.3-3.3-3.3h-3.1C71.4,203.4,70,204.8,70,206.7z"/>
		</g>
		
			<linearGradient id="SVGID_5_" gradientUnits="userSpaceOnUse" x1="1471.8087" y1="207.3374" x2="1483.4729" y2="207.3374" gradientTransform="matrix(-1 0 0 1 1546.1759 0)">
			<stop  offset="0" style="stop-color:#231F20"/>
			<stop  offset="1" style="stop-color:#231F20;stop-opacity:0"/>
		</linearGradient>
		<path class="st13" d="M62.7,200.8v37.3c0,2.7,1.7,4.9,4,5.8v0.8c0,1.5,1.2,2.7,2.7,2.7h4.9v-3.1c0,0-1.7-2.5-1.7-5.7v-38.5
			c0-5.4,1.5-5.5,1.7-5.5c0,0,0,0,0,0v-27.3c-2,0.4-3.9,4-5.3,8c-1.5,4.3-2.4,9.2-2.4,11.4v8.3C64.4,195.9,62.7,198.1,62.7,200.8z"
			/>
	</g>
</g>
</svg>
