<?xml version="1.0" encoding="utf-8"?>
<!-- Generator: Adobe Illustrator 19.0.0, SVG Export Plug-In . SVG Version: 6.00 Build 0)  -->
<svg version="1.1" id="Layer_1" xmlns="http://www.w3.org/2000/svg" xmlns:xlink="http://www.w3.org/1999/xlink" x="0px" y="0px" width="50px" height="50px"
	 viewBox="0 0 166.5 124" style="enable-background:new 0 0 166.5 124;" xml:space="preserve">
<style type="text/css">
	.st0{fill:#25BCB4;}
	.st1{fill:#F04E4F;}
	.st2{fill:#FFF0BC;}
	.st3{fill:#F8B2B6;}
	.st4{fill:#FBAA41;}
	.st5{fill:#1F2C5D;}
	.st6{fill:#FFFFFF;}
</style>
<g>
	<g>
		<g>
			<path class="st0" d="M41.4,102.2c-0.2,0.5-5.1,18-5.1,18l2.9,0.7l5.6-17.5L41.4,102.2z"/>
			<circle class="st0" cx="37.8" cy="121" r="3"/>
		</g>
		<g>
			<path class="st0" d="M122.1,104c0.2,0.5,7.2,17.3,7.2,17.3l2.7-1.2l-6.4-17.2L122.1,104z"/>
			<circle class="st0" cx="130.9" cy="121" r="3"/>
		</g>
	</g>
	<path class="st1" d="M166.5,79.6c0,18.5-37.3,28.5-83.2,28.5c-46,0-83.2-10-83.2-28.5s37.3-29.5,83.2-29.5
		C129.2,50.2,166.5,61.2,166.5,79.6z"/>
	<g>
		<path class="st2" d="M83.6,77.3c-14.2,0-30.6-2.8-48.2-10.9l-0.3-0.1l0-0.3c0-0.1-1.1-13.9,4.4-28.9c4-11,12.2-24.6,29.2-32.9
			C82.5-2.5,99-1.2,110.9,8.4c0.4,0.3,0.8,0.7,1.3,1.1c12.7,11.1,19.8,29.7,21,55.2l0,0.3l-0.2,0.2C132.6,65.3,113,77.3,83.6,77.3z"
			/>
		<path class="st3" d="M118.5,56.2c-2.9-9.4-8.2-21.7-17.4-28.5c0.8-2.5,2.4-5.1,3.6-6.7c0.8,0.7,1.8,1.2,2.9,1.2
			c2.4,0,4.4-1.9,4.4-4.3c0-2.4-1.9-4.4-4.3-4.4c-2.4,0-4.4,1.9-4.4,4.3c0,0.2,0,0.3,0,0.5c-1.9,1.7-3.7,5.2-4.8,7.8
			c-4.6-2.7-10-4.1-16.5-3.2c-4.3,0.6-8,1.7-11.4,3.1c-1-2.6-2.8-6.4-4.7-8.2c0-0.2,0.1-0.3,0.1-0.5c0-2.4-1.9-4.4-4.3-4.4
			c-2.4,0-4.4,1.9-4.4,4.3c0,2.4,1.9,4.4,4.3,4.4c1.1,0,2.2-0.4,3-1.1c1.1,1.7,2.7,4.3,3.4,6.8c-17.3,9.3-21.6,30-22.5,43.2
			c13.8,5,26.6,6.8,38,6.8c16.5,0,29.9-3.7,38.5-7.1C121.3,66.1,120.1,61.3,118.5,56.2z"/>
		<g>
			<ellipse class="st4" cx="67.9" cy="51.3" rx="4.2" ry="3.7"/>
			<ellipse class="st4" cx="100.6" cy="51.3" rx="4.2" ry="3.7"/>
			<path class="st5" d="M78.8,57.9c0.9,1.5,2.3,2.9,4,3.5c3.2,1.3,5.9-0.9,7.8-3.4c0.7-0.9-0.9-1.8-1.6-0.9
				c-1.6,2.2-3.9,3.8-6.5,2.1c-0.8-0.6-1.6-1.4-2.1-2.2C79.8,56,78.2,56.9,78.8,57.9L78.8,57.9z"/>
			<ellipse class="st6" cx="84.2" cy="43.3" rx="10.7" ry="7"/>
			<circle class="st5" cx="84.3" cy="43.4" r="3.3"/>
		</g>
	</g>
	<g>
		<ellipse class="st6" cx="17.8" cy="80.6" rx="8" ry="4.2"/>
		<ellipse class="st6" cx="43.5" cy="91.1" rx="7.4" ry="3.9"/>
		<ellipse class="st6" cx="83.8" cy="94.7" rx="7.6" ry="3.4"/>
		<ellipse class="st6" cx="122.7" cy="91.6" rx="7.1" ry="3.1"/>
		<ellipse class="st6" cx="146.4" cy="80.6" rx="7.9" ry="3.6"/>
	</g>
</g>
</svg>
