<?xml version="1.0" encoding="utf-8"?>
<!-- Generator: Adobe Illustrator 19.0.0, SVG Export Plug-In . SVG Version: 6.00 Build 0)  -->
<svg version="1.1" id="Layer_1" xmlns="http://www.w3.org/2000/svg" xmlns:xlink="http://www.w3.org/1999/xlink" x="0px" y="0px"
	 viewBox="0 0 475.9 351" style="enable-background:new 0 0 475.9 351;" xml:space="preserve" preserveAspectRatio = "none">
<style type="text/css">
	.st0{fill:url(#b_1_);fill-opacity:0.25;}
	.st1{fill:none;stroke:url(#XMLID_192_);}
</style>
<g id="XMLID_188_" transform="matrix(1 0 0 -1 -12 61)">
	<g id="XMLID_189_">
		
			<linearGradient id="b_1_" gradientUnits="userSpaceOnUse" x1="-1660.9072" y1="-1214.3075" x2="-1665.2493" y2="-1218.6495" gradientTransform="matrix(279 0 0 49 464260 59495)">
			<stop  offset="0" style="stop-color:#104067;stop-opacity:0.7"/>
			<stop  offset="0.3333" style="stop-color:#2C411C;stop-opacity:0.7"/>
			<stop  offset="0.6667" style="stop-color:#4D3114;stop-opacity:0.7"/>
			<stop  offset="1" style="stop-color:#8F5122;stop-opacity:0.7"/>
		</linearGradient>
		<path id="b" class="st0" d="M12-289.5h423.9c4.7,0,11.2,2.7,14.5,6l30.5,30.5c3.3,3.3,6,9.8,6,14.5l0.9,298.9H63.1
			c-4.7,0-11.2-2.7-14.5-6L18,23.9c-3.3-3.3-6-9.8-6-14.5V-289.5z"/>
	</g>
	
		<linearGradient id="XMLID_192_" gradientUnits="userSpaceOnUse" x1="-1662.4192" y1="-1216.9688" x2="-1663.772" y2="-1216.9688" gradientTransform="matrix(278 0 0 48 462590.5 58300.0039)">
		<stop  offset="0" style="stop-color:#4089C9"/>
		<stop  offset="0.3333" style="stop-color:#657654"/>
		<stop  offset="0.6667" style="stop-color:#886E4B"/>
		<stop  offset="1" style="stop-color:#CB8C2A"/>
	</linearGradient>
	<path id="XMLID_190_" class="st1" d="M12.9-289.5V10.3c0,4.5,2.6,10.8,5.8,13.9l30.5,30.5c3.2,3.2,9.4,5.8,13.9,5.8H487v-297.9
		c0-4.5-2.6-10.8-5.8-13.9l-30-32.4c-3.2-3.2-9.4-5.8-13.9-5.8C437.3-289.5,12.9-289.5,12.9-289.5z"/>
</g>
</svg>
