<?xml version="1.0" encoding="utf-8"?>
<!-- Generator: Adobe Illustrator 19.0.0, SVG Export Plug-In . SVG Version: 6.00 Build 0)  -->
<svg version="1.1" id="Layer_1" xmlns="http://www.w3.org/2000/svg" xmlns:xlink="http://www.w3.org/1999/xlink" x="0px" y="0px"
	 viewBox="0 0 249.5 94.3" style="enable-background:new 0 0 249.5 94.3;" xml:space="preserve">
<style type="text/css">
	.st0{fill:#FFD8BD;}
	.st1{fill:#41134F;}
	.st2{fill:#8F3055;}
	.st3{fill:#671C53;}
	.st4{fill:url(#XMLID_28_);}
	.st5{opacity:0.32;fill:url(#XMLID_29_);}
</style>
<path id="XMLID_157_" class="st0" d="M70.3,26.6c0,0,15-26.2,55-26.6c40-0.4,54.1,26.6,54.1,26.6H70.3z"/>
<path id="XMLID_158_" class="st1" d="M0,59.2c0,0-2.1-37.8,126.3-37.8c120,0,122.6,37.8,122.6,37.8H0z"/>
<path id="XMLID_160_" class="st2" d="M75.4,80.1c0,0-88.4-5.8-73.1-25.7c15.4-19.9,107.9-22.4,146.5-21.2
	c38.6,1.2,109.9,11.9,99.6,29.1C233.5,87.1,75.4,80.1,75.4,80.1z"/>
<path id="XMLID_161_" class="st3" d="M81.9,80.7c0,0-6.8-3.4,0-8.2s28.5-8.2,47-7.7c18.5,0.5,44.8,5.3,41.9,13
	C168,85.5,100.1,92.5,81.9,80.7z"/>
<linearGradient id="XMLID_28_" gradientUnits="userSpaceOnUse" x1="86.5112" y1="84.3405" x2="162.3062" y2="84.3405">
	<stop  offset="2.249530e-002" style="stop-color:#FFE0D9"/>
	<stop  offset="0.9976" style="stop-color:#FFE0D9"/>
</linearGradient>
<path id="XMLID_162_" class="st4" d="M86.5,80.9c0,0,14-6.8,39.2-6.6c25.2,0.2,36.6,5.6,36.6,5.6s-3.4,15-36.4,14.3
	C92.9,93.7,86.5,80.9,86.5,80.9z"/>
<linearGradient id="XMLID_29_" gradientUnits="userSpaceOnUse" x1="127.6218" y1="116.1065" x2="123.7303" y2="31.7897">
	<stop  offset="2.375160e-003" style="stop-color:#FFE0D9"/>
	<stop  offset="1" style="stop-color:#FFE0D9;stop-opacity:0"/>
</linearGradient>
<path id="XMLID_163_" class="st5" d="M75.4,80.1c0,0-88.4-5.8-73.1-25.7c15.4-19.9,107.9-22.4,146.5-21.2
	c38.6,1.2,109.9,11.9,99.6,29.1C233.5,87.1,75.4,80.1,75.4,80.1z"/>
</svg>
