<?xml version="1.0" encoding="utf-8"?>
<!-- Generator: Adobe Illustrator 19.0.0, SVG Export Plug-In . SVG Version: 6.00 Build 0)  -->
<svg version="1.1" id="Layer_1" xmlns="http://www.w3.org/2000/svg" xmlns:xlink="http://www.w3.org/1999/xlink" x="0px" y="0px"
	 viewBox="0 0 750 183.7" style="enable-background:new 0 0 750 183.7;" xml:space="preserve" preserveAspectRatio = "none">
<style type="text/css">
	.st0{fill:url(#SVGID_1_);}
	.st1{fill:url(#SVGID_2_);}
	.st2{fill:url(#SVGID_3_);}
	.st3{fill:url(#SVGID_4_);}
	.st4{fill:url(#SVGID_5_);}
	.st5{fill:url(#SVGID_6_);}
	.st6{fill:url(#SVGID_7_);}
	.st7{opacity:0.2;fill:url(#SVGID_8_);}
	.st8{fill:#F64C50;}
	.st9{fill:url(#SVGID_9_);}
	.st10{fill:url(#SVGID_10_);}
	.st11{fill:url(#SVGID_11_);}
	.st12{fill:url(#SVGID_12_);}
	.st13{fill:url(#SVGID_13_);}
</style>
<g>
	<g>
		<linearGradient id="SVGID_1_" gradientUnits="userSpaceOnUse" x1="259.2664" y1="-67.3333" x2="259.2664" y2="148.6664">
			<stop  offset="0" style="stop-color:#BE4449"/>
			<stop  offset="5.694795e-002" style="stop-color:#B1434A"/>
			<stop  offset="0.2673" style="stop-color:#873D4D"/>
			<stop  offset="0.4719" style="stop-color:#65394F"/>
			<stop  offset="0.6666" style="stop-color:#4E3551"/>
			<stop  offset="0.8472" style="stop-color:#3F3352"/>
			<stop  offset="1" style="stop-color:#3A3352"/>
		</linearGradient>
		<polygon class="st0" points="384.5,44.7 362.5,35.7 349.5,34.7 317.5,47.7 296.5,56.7 275.5,61.7 223.5,42.7 175.5,8.7 156.5,2.7 
			115.5,22.7 88.5,42.7 60.5,51.7 21.5,63.7 0,65.5 0,119 518.5,110.7 461.5,85.7 421.5,69.7 		"/>
		<linearGradient id="SVGID_2_" gradientUnits="userSpaceOnUse" x1="168.9383" y1="-4.7351" x2="156.2715" y2="56.5984">
			<stop  offset="0" style="stop-color:#F64C50"/>
			<stop  offset="8.954704e-003" style="stop-color:#F14B50"/>
			<stop  offset="8.728802e-002" style="stop-color:#C64551"/>
			<stop  offset="0.172" style="stop-color:#A04051"/>
			<stop  offset="0.2622" style="stop-color:#813C51"/>
			<stop  offset="0.3595" style="stop-color:#673952"/>
			<stop  offset="0.4667" style="stop-color:#533652"/>
			<stop  offset="0.5889" style="stop-color:#453452"/>
			<stop  offset="0.7392" style="stop-color:#3D3352"/>
			<stop  offset="1" style="stop-color:#3A3352"/>
		</linearGradient>
		<polygon class="st1" points="95.9,37.3 117.9,30 129.2,24.7 142.5,19.3 137.2,29.3 143.2,28.7 160.5,28 177.2,30 165.9,24 
			153.2,20.7 171.2,22.7 183.9,28 207.2,37.3 223.5,42.7 198.5,24 177.9,8.7 154.5,0 129.9,14.7 107.9,28 		"/>
		<linearGradient id="SVGID_3_" gradientUnits="userSpaceOnUse" x1="394.1768" y1="4.6522" x2="353.1767" y2="184.6524">
			<stop  offset="0" style="stop-color:#F64C50"/>
			<stop  offset="8.954704e-003" style="stop-color:#F14B50"/>
			<stop  offset="8.728802e-002" style="stop-color:#C64551"/>
			<stop  offset="0.172" style="stop-color:#A04051"/>
			<stop  offset="0.2622" style="stop-color:#813C51"/>
			<stop  offset="0.3595" style="stop-color:#673952"/>
			<stop  offset="0.4667" style="stop-color:#533652"/>
			<stop  offset="0.5889" style="stop-color:#453452"/>
			<stop  offset="0.7392" style="stop-color:#3D3352"/>
			<stop  offset="1" style="stop-color:#3A3352"/>
		</linearGradient>
		<polygon class="st2" points="291.2,58.7 324.5,53.3 344.5,46.7 360.5,46 346.5,43.3 357.9,40.7 373.2,46.7 402.5,65.3 415.2,72.7 
			403.2,78 381.2,82 364.5,85.3 393.9,85.3 419.2,82 439.2,82.7 465.9,88 423.9,68.7 367.2,36 350.5,32 312.5,50 		"/>
		<linearGradient id="SVGID_4_" gradientUnits="userSpaceOnUse" x1="246.3893" y1="37.418" x2="211.3892" y2="198.4184">
			<stop  offset="0" style="stop-color:#483452"/>
			<stop  offset="3.834075e-002" style="stop-color:#453250"/>
			<stop  offset="0.2583" style="stop-color:#372C49"/>
			<stop  offset="0.5292" style="stop-color:#2F2944"/>
			<stop  offset="1" style="stop-color:#2C2843"/>
		</linearGradient>
		<path class="st3" d="M474.9,91.5l-13.4-5.9l-1.2-0.5L429.2,86l-31.3-1.3L360.5,78l-24.7,7.3l-36,1.3l-21.3-3.3l-16.7-2.7l10.7,5.3
			l-14,0.7l-11.3-6l-14.7,8l-34,2.7c0,0-34.7-3.3-36.7-4c-2-0.7-40.7-2.7-40.7-2.7l-32-8l-24-2.7l-31.3,6.7L44.5,70l17.3-10l10-12
			l-11.3,3.6l-39,12L0,65.5V119l462.6-7.4C465.6,106.5,471.1,97.7,474.9,91.5z"/>
	</g>
	<linearGradient id="SVGID_5_" gradientUnits="userSpaceOnUse" x1="331.2803" y1="60.0151" x2="332.2803" y2="121.0151">
		<stop  offset="0" style="stop-color:#483452"/>
		<stop  offset="3.834075e-002" style="stop-color:#453250"/>
		<stop  offset="0.2583" style="stop-color:#372C49"/>
		<stop  offset="0.5292" style="stop-color:#2F2944"/>
		<stop  offset="1" style="stop-color:#2C2843"/>
	</linearGradient>
	<polygon class="st4" points="286.5,64.7 307,72.7 317.5,79.2 335.5,82.7 354,87.2 376.5,86.2 353,83.2 330.5,76.2 317.5,76.2 
		307,70.2 	"/>
</g>
<linearGradient id="SVGID_6_" gradientUnits="userSpaceOnUse" x1="648.5328" y1="-45.3333" x2="648.5328" y2="127.8514">
	<stop  offset="0" style="stop-color:#BE4449"/>
	<stop  offset="5.694795e-002" style="stop-color:#B1434A"/>
	<stop  offset="0.2673" style="stop-color:#873D4D"/>
	<stop  offset="0.4719" style="stop-color:#65394F"/>
	<stop  offset="0.6666" style="stop-color:#4E3551"/>
	<stop  offset="0.8472" style="stop-color:#3F3352"/>
	<stop  offset="1" style="stop-color:#3A3352"/>
</linearGradient>
<polygon class="st5" points="739.9,105.3 730.5,100 714.5,89.3 701.9,83.3 687.9,86 674.5,88 657.2,81.3 640.5,72 629.2,72.7 
	611.9,83.3 597.2,92 576.5,97.3 557.2,104.7 568.2,104.2 573.2,107.3 587.9,107.3 601.9,109.3 625.9,108 637.9,108 647.9,108 
	654.5,109.3 659.9,107.3 685.9,106 697.2,108.7 709.2,106 720.4,104.5 "/>
<linearGradient id="SVGID_7_" gradientUnits="userSpaceOnUse" x1="375.0001" y1="63.6667" x2="375.0001" y2="222.6664">
	<stop  offset="0" style="stop-color:#BE4449"/>
	<stop  offset="5.694795e-002" style="stop-color:#B1434A"/>
	<stop  offset="0.2673" style="stop-color:#873D4D"/>
	<stop  offset="0.4719" style="stop-color:#65394F"/>
	<stop  offset="0.6666" style="stop-color:#4E3551"/>
	<stop  offset="0.8472" style="stop-color:#3F3352"/>
	<stop  offset="1" style="stop-color:#3A3352"/>
</linearGradient>
<path class="st6" d="M708.1,94.2l-96,3c0,0-151.5-12-157.5-9c-6,3-196.1,1.5-196.5,6c-0.6,7.4-129,1.5-129,1.5L0,90.4v93.2h750V87.4
	L708.1,94.2z"/>
<linearGradient id="SVGID_8_" gradientUnits="userSpaceOnUse" x1="375.8261" y1="49.0781" x2="373.826" y2="262.0779">
	<stop  offset="0" style="stop-color:#F64C50"/>
	<stop  offset="8.954704e-003" style="stop-color:#F14B50"/>
	<stop  offset="8.728802e-002" style="stop-color:#C64551"/>
	<stop  offset="0.172" style="stop-color:#A04051"/>
	<stop  offset="0.2622" style="stop-color:#813C51"/>
	<stop  offset="0.3595" style="stop-color:#673952"/>
	<stop  offset="0.4667" style="stop-color:#533652"/>
	<stop  offset="0.5889" style="stop-color:#453452"/>
	<stop  offset="0.7392" style="stop-color:#3D3352"/>
	<stop  offset="1" style="stop-color:#3A3352"/>
</linearGradient>
<path class="st7" d="M750,101.1c-35.2,1.1-72.2,2.9-82.4,3.7c-21,1.5-49.5,13.5-49.5,13.5l-30,10.5l52.5,4.5l-52.5,12l-34.5-4.5
	l-55.5-3l49.5,10.5l25.5,10.5l-69,6l-37.5,3l-157.5,3l-49.5-4.5l33-3c0,0-33-6-37.5-6c-4.5,0-36-4.5-36-4.5h-57l-84-3l13.5-10.5
	l30-6l31.5-7.5l-21-3l-42-3l-34.6-3.1l19.6-7.4l103.5-6l19.6-5.4c-33.7-0.5-69.1-2.1-69.1-2.1L0,90.4v93.2h750V101.1z"/>
<g>
	<polygon class="st8" points="220.5,169.7 198.5,161.7 192.5,148.7 178.5,138.7 151.5,141.7 124.5,153.7 103.5,137.7 55.5,116.7 
		22.5,83.7 0,74.7 0,183.7 238.8,183.7 	"/>
	<linearGradient id="SVGID_9_" gradientUnits="userSpaceOnUse" x1="118.7009" y1="116.0556" x2="77.3676" y2="353.3886">
		<stop  offset="0" style="stop-color:#F64C50"/>
		<stop  offset="8.954704e-003" style="stop-color:#F14B50"/>
		<stop  offset="8.728802e-002" style="stop-color:#C64551"/>
		<stop  offset="0.172" style="stop-color:#A04051"/>
		<stop  offset="0.2622" style="stop-color:#813C51"/>
		<stop  offset="0.3595" style="stop-color:#673952"/>
		<stop  offset="0.4667" style="stop-color:#533652"/>
		<stop  offset="0.5889" style="stop-color:#453452"/>
		<stop  offset="0.7392" style="stop-color:#3D3352"/>
		<stop  offset="1" style="stop-color:#3A3352"/>
	</linearGradient>
	<polygon class="st9" points="218.5,175.3 206.5,173.3 191.9,168 169.2,163.3 139.2,170 110.5,164.7 86.5,162.7 62.5,155.3 
		87.2,157.3 104.5,158.7 89.2,150 58.5,140.7 23.2,124.7 5.2,92.7 0,86.9 0,183.7 230.7,183.7 	"/>
</g>
<g>
	<ellipse class="st8" cx="245.2" cy="113.3" rx="1" ry="0.5"/>
	<ellipse class="st8" cx="132.5" cy="139.2" rx="1" ry="0.5"/>
	<ellipse class="st8" cx="215" cy="134.2" rx="1" ry="0.5"/>
	<ellipse class="st8" cx="465" cy="120.2" rx="1" ry="0.5"/>
	<ellipse class="st8" cx="511.9" cy="118.8" rx="1.7" ry="0.8"/>
	<ellipse class="st8" cx="604.2" cy="136.3" rx="1.7" ry="0.8"/>
	<ellipse class="st8" cx="625.9" cy="102.5" rx="1.7" ry="0.8"/>
	<ellipse class="st8" cx="569" cy="119.2" rx="1" ry="0.5"/>
	<ellipse class="st8" cx="285.5" cy="134.2" rx="1" ry="0.5"/>
	<ellipse class="st8" cx="152" cy="114.2" rx="1" ry="0.5"/>
	<ellipse class="st8" cx="287" cy="105.2" rx="1" ry="0.5"/>
	<ellipse class="st8" cx="383.5" cy="107.7" rx="1" ry="0.5"/>
	<ellipse class="st8" cx="512.5" cy="150.7" rx="1" ry="0.5"/>
	<ellipse class="st8" cx="435" cy="129.2" rx="1" ry="0.5"/>
	<ellipse class="st8" cx="340" cy="123.7" rx="1" ry="0.5"/>
	<ellipse class="st8" cx="341" cy="105.2" rx="1" ry="0.5"/>
</g>
<linearGradient id="SVGID_10_" gradientUnits="userSpaceOnUse" x1="427.5328" y1="108.6667" x2="652.6078" y2="108.6667">
	<stop  offset="0" style="stop-color:#483452"/>
	<stop  offset="3.834075e-002" style="stop-color:#453250"/>
	<stop  offset="0.2583" style="stop-color:#372C49"/>
	<stop  offset="0.5292" style="stop-color:#2F2944"/>
	<stop  offset="1" style="stop-color:#2C2843"/>
</linearGradient>
<path class="st10" d="M451.5,100.7c-0.5-1.5-24,3.5-24,3.5l22.5,5l37,2l35,6.5l56.5-3l31.5-4.5c0,0,41,1,42.5,1.5s-20-7-20-7
	l-24-3.5c0,0-84,0.5-86.5,0.5s-53-2-54.5-2S451.5,100.7,451.5,100.7z"/>
<g>
	<linearGradient id="SVGID_11_" gradientUnits="userSpaceOnUse" x1="529.1235" y1="42.5507" x2="524.1237" y2="232.5506">
		<stop  offset="0" style="stop-color:#F64C50"/>
		<stop  offset="0.2171" style="stop-color:#C24551"/>
		<stop  offset="0.4847" style="stop-color:#883D51"/>
		<stop  offset="0.714" style="stop-color:#5E3852"/>
		<stop  offset="0.8931" style="stop-color:#443452"/>
		<stop  offset="1" style="stop-color:#3A3352"/>
	</linearGradient>
	<polygon class="st11" points="618.9,103.3 609.5,98 593.5,87.3 580.9,81.3 566.9,84 553.5,86 536.2,79.3 519.5,70 508.2,70.7 
		490.9,81.3 476.2,90 455.5,95.3 436.2,102.7 447.2,102.2 452.2,105.3 466.9,105.3 480.9,107.3 504.9,106 516.9,106 526.9,106 
		533.5,107.3 538.9,105.3 564.9,104 576.2,106.7 588.2,104 599.4,102.5 	"/>
	<linearGradient id="SVGID_12_" gradientUnits="userSpaceOnUse" x1="541.8364" y1="40.204" x2="501.2625" y2="218.3329">
		<stop  offset="0" style="stop-color:#F64C50"/>
		<stop  offset="8.954704e-003" style="stop-color:#F14B50"/>
		<stop  offset="8.728802e-002" style="stop-color:#C64551"/>
		<stop  offset="0.172" style="stop-color:#A04051"/>
		<stop  offset="0.2622" style="stop-color:#813C51"/>
		<stop  offset="0.3595" style="stop-color:#673952"/>
		<stop  offset="0.4667" style="stop-color:#533652"/>
		<stop  offset="0.5889" style="stop-color:#453452"/>
		<stop  offset="0.7392" style="stop-color:#3D3352"/>
		<stop  offset="1" style="stop-color:#3A3352"/>
	</linearGradient>
	<path class="st12" d="M597,95.7l-15-9l-7-2l3.5,4l5,2.5l2,4l-8-2.5L567,91.2l-12.5,4.5l-9.5-2l-16.5-8.5l-10.5-10l-9-2l-15.5,12.5
		l2.5-5l-7.5,6c0,0-8.5,6-10,6c-0.7,0-6.2-0.1-11.8-0.2l-11.2,2.9l-19.3,7.3l11-0.5l5,3.2h14.7l14,2l24-1.3h12h10l6.7,1.3l5.3-2
		l26-1.3l11.3,2.7l12-2.7l11.2-1.5l19.4,0.8L597,95.7z"/>
</g>
<g>
	<polygon class="st8" points="750,183.7 750,27.8 704.5,49.7 679.5,81.7 633.5,107.7 615.5,139.7 595.5,165.7 573.7,183.7 	"/>
	<linearGradient id="SVGID_13_" gradientUnits="userSpaceOnUse" x1="655.9611" y1="52.9849" x2="692.1334" y2="326.4837">
		<stop  offset="0" style="stop-color:#F64C50"/>
		<stop  offset="8.954704e-003" style="stop-color:#F14B50"/>
		<stop  offset="8.728802e-002" style="stop-color:#C64551"/>
		<stop  offset="0.172" style="stop-color:#A04051"/>
		<stop  offset="0.2622" style="stop-color:#813C51"/>
		<stop  offset="0.3595" style="stop-color:#673952"/>
		<stop  offset="0.4667" style="stop-color:#533652"/>
		<stop  offset="0.5889" style="stop-color:#453452"/>
		<stop  offset="0.7392" style="stop-color:#3D3352"/>
		<stop  offset="1" style="stop-color:#3A3352"/>
	</linearGradient>
	<polygon class="st13" points="578.3,183.7 750,183.7 750,46.2 739.5,73.7 701.5,102.7 684.5,123.7 697.5,113.7 717.5,102.7 
		695.5,124.7 658.5,145.7 639.5,164.7 600.5,170.7 	"/>
</g>
</svg>
