<?xml version="1.0" encoding="utf-8"?>
<!-- Generator: Adobe Illustrator 19.0.0, SVG Export Plug-In . SVG Version: 6.00 Build 0)  -->
<svg version="1.1" id="Layer_1" xmlns="http://www.w3.org/2000/svg" xmlns:xlink="http://www.w3.org/1999/xlink" x="0px" y="0px"
	 viewBox="0 0 285.5 285.5" style="enable-background:new 0 0 285.5 285.5;" xml:space="preserve">
<style type="text/css">
	.st0{fill:#FAFBFB;}
	.st1{fill:#E0E0E0;}
	.st2{fill:#BDBDBD;}
	.st3{fill:#F5F5F5;}
	.st4{opacity:0.1;fill:#212121;}
</style>
<g>
	<circle class="st0" cx="142.7" cy="142.7" r="142.7"/>
	<g>
		<circle class="st1" cx="52.9" cy="91.6" r="22.5"/>
		<path class="st2" d="M32.4,93.6c0-12.4,10.1-22.5,22.5-22.5c5.7,0,10.9,2.1,14.9,5.7c-4.1-4.6-10.1-7.6-16.8-7.6
			c-12.4,0-22.5,10.1-22.5,22.5c0,6.7,2.9,12.7,7.6,16.8C34.5,104.5,32.4,99.3,32.4,93.6z"/>
		<path class="st3" d="M53.8,69.2c-0.1,0-0.3,0-0.4,0c12.2,0.2,22,10.2,22,22.5c0,12.4-10.1,22.5-22.5,22.5
			c-12.3,0-22.2-9.8-22.5-22c0,0.1,0,0.3,0,0.4c0,12.9,10.5,23.4,23.4,23.4c12.9,0,23.4-10.5,23.4-23.4
			C77.2,79.6,66.7,69.2,53.8,69.2z"/>
	</g>
	<g>
		<circle class="st1" cx="202.1" cy="52.3" r="11.2"/>
		<path class="st2" d="M191.9,53.2c0-6.2,5-11.2,11.2-11.2c2.9,0,5.5,1.1,7.4,2.8c-2.1-2.3-5.1-3.8-8.4-3.8c-6.2,0-11.2,5-11.2,11.2
			c0,3.3,1.5,6.3,3.8,8.4C192.9,58.7,191.9,56.1,191.9,53.2z"/>
		<path class="st3" d="M202.6,41c-0.1,0-0.1,0-0.2,0c6.1,0.1,11,5.1,11,11.2c0,6.2-5,11.2-11.2,11.2c-6.1,0-11.1-4.9-11.2-11
			c0,0.1,0,0.1,0,0.2c0,6.4,5.2,11.7,11.7,11.7c6.4,0,11.7-5.2,11.7-11.7C214.3,46.3,209,41,202.6,41z"/>
	</g>
	<g>
		<circle class="st1" cx="241.5" cy="166.2" r="28"/>
		<path class="st2" d="M215.8,168.6c0-15.5,12.6-28,28-28c7.1,0,13.6,2.7,18.6,7.1c-5.1-5.8-12.6-9.4-21-9.4c-15.5,0-28,12.6-28,28
			c0,8.4,3.7,15.8,9.4,21C218.5,182.2,215.8,175.7,215.8,168.6z"/>
		<path class="st3" d="M242.6,138.2c-0.2,0-0.4,0-0.6,0c15.2,0.3,27.5,12.7,27.5,28c0,15.5-12.6,28-28,28c-15.3,0-27.7-12.3-28-27.5
			c0,0.2,0,0.4,0,0.6c0,16.1,13,29.1,29.1,29.1c16.1,0,29.1-13,29.1-29.1C271.7,151.2,258.7,138.2,242.6,138.2z"/>
	</g>
	<g>
		<circle class="st1" cx="166.5" cy="231.7" r="28"/>
		<path class="st2" d="M140.9,234.1c0-15.5,12.6-28,28-28c7.1,0,13.6,2.7,18.6,7.1c-5.1-5.8-12.6-9.4-21-9.4c-15.5,0-28,12.6-28,28
			c0,8.4,3.7,15.8,9.4,21C143.6,247.7,140.9,241.2,140.9,234.1z"/>
		<path class="st3" d="M167.7,203.7c-0.2,0-0.4,0-0.6,0c15.2,0.3,27.5,12.7,27.5,28c0,15.5-12.6,28-28,28c-15.3,0-27.7-12.3-28-27.5
			c0,0.2,0,0.4,0,0.6c0,16.1,13,29.1,29.1,29.1s29.1-13,29.1-29.1C196.8,216.7,183.7,203.7,167.7,203.7z"/>
	</g>
	<g>
		<circle class="st1" cx="111" cy="214.7" r="15.8"/>
		<path class="st2" d="M96.6,216c0-8.7,7.1-15.8,15.8-15.8c4,0,7.7,1.5,10.5,4c-2.9-3.3-7.1-5.3-11.8-5.3c-8.7,0-15.8,7.1-15.8,15.8
			c0,4.7,2.1,8.9,5.3,11.8C98.1,223.7,96.6,220,96.6,216z"/>
		<path class="st3" d="M111.7,198.9c-0.1,0-0.2,0-0.3,0c8.6,0.2,15.5,7.2,15.5,15.8c0,8.7-7.1,15.8-15.8,15.8
			c-8.6,0-15.6-6.9-15.8-15.5c0,0.1,0,0.2,0,0.3c0,9.1,7.3,16.4,16.4,16.4s16.4-7.3,16.4-16.4C128.1,206.2,120.7,198.9,111.7,198.9z
			"/>
	</g>
	<g>
		<circle class="st1" cx="140.4" cy="192.8" r="9.6"/>
		<path class="st2" d="M131.7,193.6c0-5.3,4.3-9.6,9.6-9.6c2.4,0,4.6,0.9,6.3,2.4c-1.8-2-4.3-3.2-7.2-3.2c-5.3,0-9.6,4.3-9.6,9.6
			c0,2.8,1.2,5.4,3.2,7.2C132.6,198.3,131.7,196.1,131.7,193.6z"/>
		<path class="st3" d="M140.8,183.3c-0.1,0-0.1,0-0.2,0c5.2,0.1,9.4,4.3,9.4,9.6c0,5.3-4.3,9.6-9.6,9.6c-5.2,0-9.4-4.2-9.6-9.4
			c0,0.1,0,0.1,0,0.2c0,5.5,4.4,9.9,9.9,9.9c5.5,0,9.9-4.4,9.9-9.9S146.3,183.3,140.8,183.3z"/>
	</g>
	<g>
		<circle class="st1" cx="267.3" cy="126.6" r="10.8"/>
		<path class="st2" d="M257.5,127.5c0-6,4.8-10.8,10.8-10.8c2.7,0,5.3,1,7.2,2.7c-2-2.2-4.9-3.6-8.1-3.6c-6,0-10.8,4.8-10.8,10.8
			c0,3.2,1.4,6.1,3.6,8.1C258.5,132.8,257.5,130.3,257.5,127.5z"/>
		<path class="st3" d="M267.8,115.8c-0.1,0-0.1,0-0.2,0c5.9,0.1,10.6,4.9,10.6,10.8c0,6-4.8,10.8-10.8,10.8
			c-5.9,0-10.7-4.7-10.8-10.6c0,0.1,0,0.1,0,0.2c0,6.2,5,11.2,11.2,11.2c6.2,0,11.2-5,11.2-11.2C279,120.8,274,115.8,267.8,115.8z"
			/>
	</g>
	<g>
		<circle class="st1" cx="67.3" cy="140" r="14.2"/>
		<path class="st2" d="M54.3,141.2c0-7.9,6.4-14.2,14.2-14.2c3.6,0,6.9,1.4,9.4,3.6c-2.6-2.9-6.4-4.8-10.7-4.8
			c-7.9,0-14.2,6.4-14.2,14.2c0,4.2,1.9,8.1,4.8,10.7C55.6,148.1,54.3,144.8,54.3,141.2z"/>
		<path class="st3" d="M67.9,125.7c-0.1,0-0.2,0-0.3,0c7.7,0.2,14,6.5,14,14.2c0,7.9-6.4,14.2-14.2,14.2c-7.8,0-14.1-6.2-14.2-14
			c0,0.1,0,0.2,0,0.3c0,8.2,6.6,14.8,14.8,14.8c8.2,0,14.8-6.6,14.8-14.8C82.7,132.4,76.1,125.7,67.9,125.7z"/>
	</g>
	<g>
		<circle class="st1" cx="99.7" cy="88" r="11.9"/>
		<path class="st2" d="M88.8,89c0-6.6,5.3-11.9,11.9-11.9c3,0,5.8,1.1,7.9,3c-2.2-2.5-5.4-4-8.9-4c-6.6,0-11.9,5.3-11.9,11.9
			c0,3.6,1.6,6.7,4,8.9C90,94.8,88.8,92.1,88.8,89z"/>
		<path class="st3" d="M100.2,76.1c-0.1,0-0.2,0-0.2,0c6.5,0.1,11.7,5.4,11.7,11.9c0,6.6-5.3,11.9-11.9,11.9
			c-6.5,0-11.8-5.2-11.9-11.7c0,0.1,0,0.2,0,0.2c0,6.9,5.6,12.4,12.4,12.4c6.9,0,12.4-5.6,12.4-12.4
			C112.6,81.6,107.1,76.1,100.2,76.1z"/>
	</g>
	<g>
		<circle class="st1" cx="78.2" cy="223" r="8.1"/>
		<path class="st2" d="M70.9,223.7c0-4.4,3.6-8.1,8.1-8.1c2,0,3.9,0.8,5.3,2c-1.5-1.7-3.6-2.7-6-2.7c-4.4,0-8.1,3.6-8.1,8.1
			c0,2.4,1,4.6,2.7,6C71.6,227.6,70.9,225.7,70.9,223.7z"/>
		<path class="st3" d="M78.5,215c-0.1,0-0.1,0-0.2,0c4.4,0.1,7.9,3.7,7.9,8c0,4.4-3.6,8.1-8.1,8.1c-4.4,0-8-3.5-8-7.9
			c0,0.1,0,0.1,0,0.2c0,4.6,3.7,8.4,8.4,8.4s8.4-3.7,8.4-8.4C86.9,218.7,83.2,215,78.5,215z"/>
	</g>
	<path class="st4" d="M142.7,224.6c-63.9,0-118.7-38.7-142.2-94c-0.3,4-0.5,8-0.5,12.1c0,78.8,63.9,142.7,142.7,142.7
		s142.7-63.9,142.7-142.7c0-4.1-0.2-8.1-0.5-12.1C261.4,185.9,206.6,224.6,142.7,224.6z"/>
	<path class="st4" d="M142.7,257.1C83,257.1,31,224.2,3.8,175.5c14.8,63,71.4,109.9,138.9,109.9s124.1-46.9,138.9-109.9
		C254.4,224.2,202.4,257.1,142.7,257.1z"/>
</g>
</svg>
